<svg xmlns="http://www.w3.org/2000/svg" width="485" height="166" viewBox="0 0 485 166" fill="none"><g clip-path="url(#clip0_10_602)"><path d="M178.5 104.5L192 112.5M192 112.5L206 104.5M192 112.5V129" stroke="#0D354F"></path><path d="M178.5 34.5L192 42.5M192 42.5L206 34.5M192 42.5V59" stroke="#0D354F"></path><path d="M197.5 70L211 78M211 78L225 70M211 78V94.5" stroke="#0D354F"></path><path d="M197.5 0L211 8M211 8L225 0M211 8V24.5" stroke="#0D354F"></path><path d="M138.5 105L152 113M152 113L166 105M152 113V129.5" stroke="#0D354F"></path><path d="M138.5 35L152 43M152 43L166 35M152 43V59.5" stroke="#0D354F"></path><path d="M178.5 97.5L192 89.5M192 89.5L206 97.5M192 89.5V73" stroke="#0D354F"></path><path d="M197.5 61.5L211 53.5M211 53.5L225 61.5M211 53.5V37" stroke="#0D354F"></path><path d="M198.5 132.5L212 124.5M212 124.5L226 132.5M212 124.5V108" stroke="#0D354F"></path><path d="M178.5 27.5L192 19.5M192 19.5L206 27.5M192 19.5V3" stroke="#0D354F"></path><path d="M138.5 97.5L152 89.5M152 89.5L166 97.5M152 89.5V73" stroke="#0D354F"></path><path d="M138.5 27.5L152 19.5M152 19.5L166 27.5M152 19.5V3" stroke="#0D354F"></path><path d="M186 70L172.5 78M172.5 78L158.5 70M172.5 78V94.5" stroke="#0D354F"></path><path d="M186 0L172.5 8M172.5 8L158.5 0M172.5 8V24.5" stroke="#0D354F"></path><path d="M186 132.5L172.5 124.5M172.5 124.5L158.5 132.5M172.5 124.5V108" stroke="#0D354F"></path><path d="M186 62.5L172.5 54.5M172.5 54.5L158.5 62.5M172.5 54.5V38" stroke="#0D354F"></path><path d="M99.5 104.5L113 112.5M113 112.5L127 104.5M113 112.5V129" stroke="#0D354F"></path><path d="M99.5 34.5L113 42.5M113 42.5L127 34.5M113 42.5V59" stroke="#0D354F"></path><path d="M118.5 70L132 78M132 78L146 70M132 78V94.5" stroke="#0D354F"></path><path d="M118.5 0L132 8M132 8L146 0M132 8V24.5" stroke="#0D354F"></path><path d="M59.5 105L73 113M73 113L87 105M73 113V129.5" stroke="#0D354F"></path><path d="M59.5 35L73 43M73 43L87 35M73 43V59.5" stroke="#0D354F"></path><path d="M99.5 97.5L113 89.5M113 89.5L127 97.5M113 89.5V73" stroke="#0D354F"></path><path d="M118.5 61.5L132 53.5M132 53.5L146 61.5M132 53.5V37" stroke="#0D354F"></path><path d="M119.5 132.5L133 124.5M133 124.5L147 132.5M133 124.5V108" stroke="#0D354F"></path><path d="M99.5 27.5L113 19.5M113 19.5L127 27.5M113 19.5V3" stroke="#0D354F"></path><path d="M59.5 97.5L73 89.5M73 89.5L87 97.5M73 89.5V73" stroke="#0D354F"></path><path d="M59.5 27.5L73 19.5M73 19.5L87 27.5M73 19.5V3" stroke="#0D354F"></path><path d="M107 70L93.5 78M93.5 78L79.5 70M93.5 78V94.5" stroke="#0D354F"></path><path d="M107 0L93.5 8M93.5 8L79.5 0M93.5 8V24.5" stroke="#0D354F"></path><path d="M107 132.5L93.5 124.5M93.5 124.5L79.5 132.5M93.5 124.5V108" stroke="#0D354F"></path><path d="M107 62.5L93.5 54.5M93.5 54.5L79.5 62.5M93.5 54.5V38" stroke="#0D354F"></path><path d="M19.5 104.5L33 112.5M33 112.5L47 104.5M33 112.5V129" stroke="#0D354F"></path><path d="M19.5 34.5L33 42.5M33 42.5L47 34.5M33 42.5V59" stroke="#0D354F"></path><path d="M38.5 70L52 78M52 78L66 70M52 78V94.5" stroke="#0D354F"></path><path d="M38.5 0L52 8M52 8L66 0M52 8V24.5" stroke="#0D354F"></path><path d="M-20.5 105L-7 113M-7 113L7 105M-7 113L-7 129.5" stroke="#0D354F"></path><path d="M-20.5 35L-7 43M-7 43L7 35M-7 43L-7 59.5" stroke="#0D354F"></path><path d="M19.5 97.5L33 89.5M33 89.5L47 97.5M33 89.5V73" stroke="#0D354F"></path><path d="M38.5 61.5L52 53.5M52 53.5L66 61.5M52 53.5V37" stroke="#0D354F"></path><path d="M39.5 132.5L53 124.5M53 124.5L67 132.5M53 124.5V108" stroke="#0D354F"></path><path d="M19.5 27.5L33 19.5M33 19.5L47 27.5M33 19.5V3" stroke="#0D354F"></path><path d="M-20.5 97.5L-7 89.5M-7 89.5L7 97.5M-7 89.5L-7 73" stroke="#0D354F"></path><path d="M-20.5 27.5L-7 19.5M-7 19.5L7 27.5M-7 19.5L-7 3" stroke="#0D354F"></path><path d="M27 70L13.5 78M13.5 78L-0.5 70M13.5 78L13.5 94.5" stroke="#0D354F"></path><path d="M27 0L13.5 8M13.5 8L-0.5 0M13.5 8L13.5 24.5" stroke="#0D354F"></path><path d="M27 132.5L13.5 124.5M13.5 124.5L-0.5 132.5M13.5 124.5L13.5 108" stroke="#0D354F"></path><path d="M27 62.5L13.5 54.5M13.5 54.5L-0.5 62.5M13.5 54.5L13.5 38" stroke="#0D354F"></path><path d="M258.5 104.5L272 112.5M272 112.5L286 104.5M272 112.5V129" stroke="#0D354F"></path><path d="M258.5 34.5L272 42.5M272 42.5L286 34.5M272 42.5V59" stroke="#0D354F"></path><path d="M277.5 70L291 78M291 78L305 70M291 78V94.5" stroke="#0D354F"></path><path d="M277.5 0L291 8M291 8L305 0M291 8V24.5" stroke="#0D354F"></path><path d="M218.5 105L232 113M232 113L246 105M232 113V129.5" stroke="#0D354F"></path><path d="M218.5 35L232 43M232 43L246 35M232 43V59.5" stroke="#0D354F"></path><path d="M258.5 97.5L272 89.5M272 89.5L286 97.5M272 89.5V73" stroke="#0D354F"></path><path d="M277.5 61.5L291 53.5M291 53.5L305 61.5M291 53.5V37" stroke="#0D354F"></path><path d="M278.5 132.5L292 124.5M292 124.5L306 132.5M292 124.5V108" stroke="#0D354F"></path><path d="M258.5 27.5L272 19.5M272 19.5L286 27.5M272 19.5V3" stroke="#0D354F"></path><path d="M218.5 97.5L232 89.5M232 89.5L246 97.5M232 89.5V73" stroke="#0D354F"></path><path d="M218.5 27.5L232 19.5M232 19.5L246 27.5M232 19.5V3" stroke="#0D354F"></path><path d="M266 70L252.5 78M252.5 78L238.5 70M252.5 78V94.5" stroke="#0D354F"></path><path d="M266 0L252.5 8M252.5 8L238.5 0M252.5 8V24.5" stroke="#0D354F"></path><path d="M266 132.5L252.5 124.5M252.5 124.5L238.5 132.5M252.5 124.5V108" stroke="#0D354F"></path><path d="M266 62.5L252.5 54.5M252.5 54.5L238.5 62.5M252.5 54.5V38" stroke="#0D354F"></path><path d="M337.5 104.5L351 112.5M351 112.5L365 104.5M351 112.5V129" stroke="#0D354F"></path><path d="M337.5 34.5L351 42.5M351 42.5L365 34.5M351 42.5V59" stroke="#0D354F"></path><path d="M356.5 70L370 78M370 78L384 70M370 78V94.5" stroke="#0D354F"></path><path d="M356.5 0L370 8M370 8L384 0M370 8V24.5" stroke="#0D354F"></path><path d="M297.5 105L311 113M311 113L325 105M311 113V129.5" stroke="#0D354F"></path><path d="M297.5 35L311 43M311 43L325 35M311 43V59.5" stroke="#0D354F"></path><path d="M337.5 97.5L351 89.5M351 89.5L365 97.5M351 89.5V73" stroke="#0D354F"></path><path d="M356.5 61.5L370 53.5M370 53.5L384 61.5M370 53.5V37" stroke="#0D354F"></path><path d="M357.5 132.5L371 124.5M371 124.5L385 132.5M371 124.5V108" stroke="#0D354F"></path><path d="M337.5 27.5L351 19.5M351 19.5L365 27.5M351 19.5V3" stroke="#0D354F"></path><path d="M297.5 97.5L311 89.5M311 89.5L325 97.5M311 89.5V73" stroke="#0D354F"></path><path d="M297.5 27.5L311 19.5M311 19.5L325 27.5M311 19.5V3" stroke="#0D354F"></path><path d="M345 70L331.5 78M331.5 78L317.5 70M331.5 78V94.5" stroke="#0D354F"></path><path d="M345 0L331.5 8M331.5 8L317.5 0M331.5 8V24.5" stroke="#0D354F"></path><path d="M345 132.5L331.5 124.5M331.5 124.5L317.5 132.5M331.5 124.5V108" stroke="#0D354F"></path><path d="M345 62.5L331.5 54.5M331.5 54.5L317.5 62.5M331.5 54.5V38" stroke="#0D354F"></path><path d="M417.5 104.5L431 112.5M431 112.5L445 104.5M431 112.5V129" stroke="#0D354F"></path><path d="M417.5 34.5L431 42.5M431 42.5L445 34.5M431 42.5V59" stroke="#0D354F"></path><path d="M436.5 70L450 78M450 78L464 70M450 78V94.5" stroke="#0D354F"></path><path d="M436.5 0L450 8M450 8L464 0M450 8V24.5" stroke="#0D354F"></path><path d="M377.5 105L391 113M391 113L405 105M391 113V129.5" stroke="#0D354F"></path><path d="M377.5 35L391 43M391 43L405 35M391 43V59.5" stroke="#0D354F"></path><path d="M417.5 97.5L431 89.5M431 89.5L445 97.5M431 89.5V73" stroke="#0D354F"></path><path d="M436.5 61.5L450 53.5M450 53.5L464 61.5M450 53.5V37" stroke="#0D354F"></path><path d="M437.5 132.5L451 124.5M451 124.5L465 132.5M451 124.5V108" stroke="#0D354F"></path><path d="M417.5 27.5L431 19.5M431 19.5L445 27.5M431 19.5V3" stroke="#0D354F"></path><path d="M377.5 97.5L391 89.5M391 89.5L405 97.5M391 89.5V73" stroke="#0D354F"></path><path d="M377.5 27.5L391 19.5M391 19.5L405 27.5M391 19.5V3" stroke="#0D354F"></path><path d="M425 70L411.5 78M411.5 78L397.5 70M411.5 78V94.5" stroke="#0D354F"></path><path d="M425 0L411.5 8M411.5 8L397.5 0M411.5 8V24.5" stroke="#0D354F"></path><path d="M425 132.5L411.5 124.5M411.5 124.5L397.5 132.5M411.5 124.5V108" stroke="#0D354F"></path><path d="M425 62.5L411.5 54.5M411.5 54.5L397.5 62.5M411.5 54.5V38" stroke="#0D354F"></path><path d="M457.5 105L471 113M471 113L485 105M471 113V129.5" stroke="#0D354F"></path><path d="M457.5 35L471 43M471 43L485 35M471 43V59.5" stroke="#0D354F"></path><path d="M457.5 97.5L471 89.5M471 89.5L485 97.5M471 89.5V73" stroke="#0D354F"></path><path d="M457.5 27.5L471 19.5M471 19.5L485 27.5M471 19.5V3" stroke="#0D354F"></path><path d="M505 70L491.5 78M491.5 78L477.5 70M491.5 78V94.5" stroke="#0D354F"></path><path d="M505 0L491.5 8M491.5 8L477.5 0M491.5 8V24.5" stroke="#0D354F"></path><path d="M505 132.5L491.5 124.5M491.5 124.5L477.5 132.5M491.5 124.5V108" stroke="#0D354F"></path><path d="M505 62.5L491.5 54.5M491.5 54.5L477.5 62.5M491.5 54.5V38" stroke="#0D354F"></path><path d="M198 138L211.5 146M211.5 146L225.5 138M211.5 146V162.5" stroke="#0D354F"></path><path d="M179 165.5L192.5 157.5M192.5 157.5L206.5 165.5M192.5 157.5V141" stroke="#0D354F"></path><path d="M139 165.5L152.5 157.5M152.5 157.5L166.5 165.5M152.5 157.5V141" stroke="#0D354F"></path><path d="M186.5 138L173 146M173 146L159 138M173 146V162.5" stroke="#0D354F"></path><path d="M119 138L132.5 146M132.5 146L146.5 138M132.5 146V162.5" stroke="#0D354F"></path><path d="M100 165.5L113.5 157.5M113.5 157.5L127.5 165.5M113.5 157.5V141" stroke="#0D354F"></path><path d="M60 165.5L73.5 157.5M73.5 157.5L87.5 165.5M73.5 157.5V141" stroke="#0D354F"></path><path d="M107.5 138L94 146M94 146L80 138M94 146V162.5" stroke="#0D354F"></path><path d="M39 138L52.5 146M52.5 146L66.5 138M52.5 146V162.5" stroke="#0D354F"></path><path d="M20 165.5L33.5 157.5M33.5 157.5L47.5 165.5M33.5 157.5V141" stroke="#0D354F"></path><path d="M-20 165.5L-6.5 157.5M-6.5 157.5L7.5 165.5M-6.5 157.5L-6.5 141" stroke="#0D354F"></path><path d="M27.5 138L14 146M14 146L0 138M14 146L14 162.5" stroke="#0D354F"></path><path d="M278 138L291.5 146M291.5 146L305.5 138M291.5 146V162.5" stroke="#0D354F"></path><path d="M259 165.5L272.5 157.5M272.5 157.5L286.5 165.5M272.5 157.5V141" stroke="#0D354F"></path><path d="M219 165.5L232.5 157.5M232.5 157.5L246.5 165.5M232.5 157.5V141" stroke="#0D354F"></path><path d="M266.5 138L253 146M253 146L239 138M253 146V162.5" stroke="#0D354F"></path><path d="M357 138L370.5 146M370.5 146L384.5 138M370.5 146V162.5" stroke="#0D354F"></path><path d="M338 165.5L351.5 157.5M351.5 157.5L365.5 165.5M351.5 157.5V141" stroke="#0D354F"></path><path d="M298 165.5L311.5 157.5M311.5 157.5L325.5 165.5M311.5 157.5V141" stroke="#0D354F"></path><path d="M345.5 138L332 146M332 146L318 138M332 146V162.5" stroke="#0D354F"></path><path d="M437 138L450.5 146M450.5 146L464.5 138M450.5 146V162.5" stroke="#0D354F"></path><path d="M418 165.5L431.5 157.5M431.5 157.5L445.5 165.5M431.5 157.5V141" stroke="#0D354F"></path><path d="M378 165.5L391.5 157.5M391.5 157.5L405.5 165.5M391.5 157.5V141" stroke="#0D354F"></path><path d="M425.5 138L412 146M412 146L398 138M412 146V162.5" stroke="#0D354F"></path><path d="M458 165.5L471.5 157.5M471.5 157.5L485.5 165.5M471.5 157.5V141" stroke="#0D354F"></path><path d="M505.5 138L492 146M492 146L478 138M492 146V162.5" stroke="#0D354F"></path></g><defs><clipPath id="clip0_10_602"><rect width="166" height="485" fill="white" transform="translate(0 166) rotate(-90)"></rect></clipPath></defs></svg>