<svg xmlns="http://www.w3.org/2000/svg" height="512" viewBox="0 0 128 128" width="512"><g><path d="m16.448 106.565a4.75 4.75 0 0 0 -1.42 9.393 4.674 4.674 0 0 0 .713.054 4.76 4.76 0 0 0 4.7-4.04 4.757 4.757 0 0 0 -3.993-5.407zm-.9 5.933a1.25 1.25 0 0 1 .183-2.486 1.206 1.206 0 0 1 .19.014 1.25 1.25 0 1 1 -.373 2.472z"></path><path d="m122.667 29.031-24.926-22.306a7.749 7.749 0 0 0 -11.232.95l-54.333 68.3a1.749 1.749 0 0 0 .2 2.393l.052.047-25.183 26.795a9.2 9.2 0 0 0 .726 13.29l2.963 2.543a9.2 9.2 0 0 0 13.682-1.956c1.767-2.711 3.656-5.936 5.657-9.351 4.015-6.855 8.538-14.545 13.71-20.98l14.017 12.544a1.749 1.749 0 0 0 2.108.171c45.605-29.123 62.841-70.06 63.01-70.471a1.75 1.75 0 0 0 -.451-1.969zm-95.414 78.934c-1.979 3.378-3.848 6.568-5.568 9.209a5.7 5.7 0 0 1 -8.475 1.208l-2.963-2.543a5.7 5.7 0 0 1 -.452-8.23l25.245-26.859 6.332 5.667c-5.382 6.665-10.012 14.536-14.119 21.548zm32.086-10.165-23.4-20.937 53.309-67.009a4.248 4.248 0 0 1 6.159-.521l23.976 21.456c-3.056 6.632-20.4 41.263-60.044 67.011z"></path><path d="m53.48 61.643a1.75 1.75 0 0 0 -2.459.28l-4.821 6.065a1.75 1.75 0 1 0 2.739 2.179l4.821-6.067a1.751 1.751 0 0 0 -.28-2.457z"></path><path d="m88.477 19.147a4.756 4.756 0 0 0 3.987 5.406 4.857 4.857 0 0 0 .72.054 4.75 4.75 0 1 0 -4.707-5.46zm5.932.9a1.25 1.25 0 0 1 -1.422 1.048 1.25 1.25 0 0 1 .186-2.486 1.179 1.179 0 0 1 .187.015 1.248 1.248 0 0 1 1.049 1.421z"></path></g></svg>