<svg xmlns="http://www.w3.org/2000/svg" width="512" height="512" viewBox="0 0 128 128"><g><path d="M119.869,44.331l-.334-.321c-.288-.277-.648-.642-1.076-1.076-.471-.478-1.046-1.058-1.7-1.7.608-1.01,1.385-2.126,2.365-3.529.689-.988,1.473-2.11,2.362-3.432a1.749,1.749,0,0,0-.706-2.561,8.486,8.486,0,0,0-8.179.751l.029-.12c.281-1.168.6-2.5.948-4.042a1.751,1.751,0,0,0-1.59-2.129c-2.844-.185-6.164,1.192-8.349,5.218a10.769,10.769,0,0,0-2.537-.627A11.588,11.588,0,0,0,92.441,22.7,1.758,1.758,0,0,0,90.5,23.842a45.082,45.082,0,0,0-2.122,9.623c-.945.339-1.922.694-2.969,1.078-1.216.447-2.5.92-3.872,1.409-8.995,3.214-24.124,3.294-44.967.236-8-1.172-14.591.366-19.068,4.446a16.309,16.309,0,0,0-1.529,1.6A8.538,8.538,0,0,0,10.055,44.7C5.838,48.847,4.2,58.169,4.751,74.927A1.75,1.75,0,0,0,6.5,76.62h.058a1.75,1.75,0,0,0,1.692-1.806c-.5-15.273.894-24.307,4.26-27.617a5.147,5.147,0,0,1,.883-.7A26.058,26.058,0,0,0,11.58,58.25a123.317,123.317,0,0,0,1.463,16.233c.7,5.124,1.351,9.963.891,12.711a17.951,17.951,0,0,0,.536,8.434,60.675,60.675,0,0,1,1.511,8.377,1.75,1.75,0,0,0,1.739,1.555h6.75a1.75,1.75,0,0,0,1.729-2.023c-.017-.109-1.659-10.534-1.791-15.044.529-.774,1.657-2.45,3.089-4.731a17.872,17.872,0,0,1-.123,3.419,17.96,17.96,0,0,0,.529,8.455,60.846,60.846,0,0,1,1.508,8.369,1.749,1.749,0,0,0,1.739,1.555H37.9a1.749,1.749,0,0,0,1.728-2.022c-.017-.109-1.649-10.534-1.78-15.044.538-.786,1.7-2.507,3.16-4.851,6.94.763,14.621.857,22.563.952.768.009,1.554.021,2.331.031a14.867,14.867,0,0,1-.138,2.558,18.035,18.035,0,0,0,.532,8.449,61.01,61.01,0,0,1,1.5,8.372,1.749,1.749,0,0,0,1.739,1.555h6.75a1.751,1.751,0,0,0,1.729-2.022C78,103.429,76.369,93,76.238,88.492c.461-.675,1.38-2.045,2.561-3.907.179-.017.372-.019.549-.038a15.59,15.59,0,0,1-.144,2.644,17.918,17.918,0,0,0,.525,8.439A60.5,60.5,0,0,1,81.23,104a1.75,1.75,0,0,0,1.74,1.557h6.75a1.749,1.749,0,0,0,1.728-2.02c-.016-.109-1.639-10.536-1.77-15.046a158.684,158.684,0,0,0,8.848-14.68c.019-.031.037-.062.052-.088a55.1,55.1,0,0,0,3.682-9.935c.25-.846.534-1.8.619-2,.968-1.789,1.883-3.477,6.713-1.943,7,2.216,9.975-.323,12.508-5.136C124.983,49.22,121.782,46.159,119.869,44.331Zm-2.785-9.81c-.289.417-.563.81-.825,1.184-.825,1.181-1.5,2.165-2.085,3.087-.574-.519-1.182-1.051-1.821-1.589A7.679,7.679,0,0,1,117.084,34.521ZM35.865,102.06H32.7a63.923,63.923,0,0,0-1.394-7.247,14.593,14.593,0,0,1-.479-7.055,25.653,25.653,0,0,0,.059-5.932,58.9,58.9,0,0,0,6.3,1.31c-1.494,2.337-2.516,3.8-2.529,3.819a1.745,1.745,0,0,0-.318,1A134.429,134.429,0,0,0,35.865,102.06Zm38.39,0H71.089A64.231,64.231,0,0,0,69.7,94.813a14.681,14.681,0,0,1-.481-7.055A18.036,18.036,0,0,0,69.4,84.68c1.285.022,2.571.045,3.841.079.439.012.852,0,1.282,0-.9,1.368-1.468,2.189-1.477,2.2a1.754,1.754,0,0,0-.316,1A134.429,134.429,0,0,0,74.255,102.06ZM119,53.085c-2.054,3.905-3.551,4.949-8.351,3.427-6.686-2.123-9.237.635-10.846,3.609a10.089,10.089,0,0,0-.625,1.75c-1.136-1.507-2.252-3.04-3.317-4.565a1.75,1.75,0,1,0-2.869,2c1.148,1.644,2.351,3.3,3.577,4.918a1.747,1.747,0,0,0,1.4.694,1.774,1.774,0,0,0,.313-.05A43.8,43.8,0,0,1,95.533,72c-.026.043-.053.088-.072.125-.054.1-.108.2-.161.3-.912-.208-2.24-.509-3.855-.866a1.75,1.75,0,1,0-.754,3.418c1.1.243,2.069.46,2.86.64C89.94,82,86.526,86.9,86.486,86.956a1.75,1.75,0,0,0-.316,1,135.153,135.153,0,0,0,1.517,14.1H84.52a63.3,63.3,0,0,0-1.389-7.251,14.585,14.585,0,0,1-.475-7.046,24.5,24.5,0,0,0,.111-5.31,1.751,1.751,0,0,0-2.027-1.62,39.56,39.56,0,0,1-7.4.427c-2.251-.06-4.523-.095-6.779-.125a40.5,40.5,0,0,0,1.45-4.754,1.75,1.75,0,0,0-3.408-.8,36.591,36.591,0,0,1-1.723,5.452c-.007.017-.007.035-.013.051-9.236-.111-18.081-.254-25.63-1.488.419-.725.975-1.621,1.685-2.645a1.75,1.75,0,1,0-2.876-2A38.773,38.773,0,0,0,33.625,78.9a41.72,41.72,0,0,1-4.783-1.372c-.006,0-.013,0-.02,0-.309-.126-1.778-.731-3.741-1.721a1.75,1.75,0,1,0-1.576,3.125c.84.424,1.587.777,2.212,1.062-2.515,4.123-4.479,6.939-4.5,6.971a1.747,1.747,0,0,0-.316,1,133.95,133.95,0,0,0,1.533,14.1H19.269a63.406,63.406,0,0,0-1.4-7.256,14.608,14.608,0,0,1-.485-7.035c.52-3.106-.051-7.661-.764-12.936.485.344.982.685,1.5,1.023a1.75,1.75,0,0,0,1.9-2.936,35.34,35.34,0,0,1-4.064-3.043c-.4-3.147-.741-6.436-.851-9.663.45.024.934.037,1.462.037.83,0,1.764-.03,2.776-.089a1.793,1.793,0,0,0,1.7-1.55,1.742,1.742,0,0,0-1.844-1.948,34.27,34.27,0,0,1-4.158.039C15,50.742,16.6,46.2,19.864,43.221c3.675-3.35,9.276-4.584,16.2-3.57,1.129.166,2.229.317,3.323.465-.02.482-.029.985-.019,1.518a1.75,1.75,0,0,0,1.749,1.717h.034a1.749,1.749,0,0,0,1.716-1.783c-.007-.357,0-.678.012-1.005A160.6,160.6,0,0,0,65,41.916c-.028.574-.044,1.18-.044,1.834,0,.775.019,1.584.052,2.422a1.751,1.751,0,0,0,1.748,1.681h.07a1.751,1.751,0,0,0,1.68-1.818c-.031-.79-.05-1.553-.05-2.284,0-.715.019-1.365.055-1.967a51.558,51.558,0,0,0,14.178-2.524,22.59,22.59,0,0,0,1.179,4.059,1.75,1.75,0,1,0,3.266-1.258,18.538,18.538,0,0,1-1.121-4.007l.611-.224c.6-.22,1.174-.43,1.736-.634a11.417,11.417,0,0,0,.451,2.366,1.75,1.75,0,0,0,3.338-1.052c-.994-3.151.223-8.716,1.157-11.914,2.1.893,5.56,3.42,4.686,10.264a1.751,1.751,0,0,0,3.473.444,19.817,19.817,0,0,0,.159-2.892,7.183,7.183,0,0,1,.712.229c-.152.514-.3,1.048-.417,1.617a1.75,1.75,0,0,0,3.422.736c.847-3.94,2.517-6.026,4.233-6.872-.117.494-.23.961-.337,1.4-.959,3.974-1.538,6.372-1.1,9.423a1.75,1.75,0,0,0,1.73,1.5,1.773,1.773,0,0,0,.25-.018,1.749,1.749,0,0,0,1.445-1.287c1.819,1.625,3.31,3.131,4.412,4.247.453.459.834.845,1.135,1.135l.347.334C119.313,48.642,120.659,49.928,119,53.085Z"></path><path d="M112,50.646a19.546,19.546,0,0,0-5.606-.9,1.75,1.75,0,0,0,0,3.5A16.145,16.145,0,0,1,111,54a1.729,1.729,0,0,0,.5.073,1.75,1.75,0,0,0,.5-3.428Z"></path><path d="M47.172,63.485c0-.013-.336-1.093-.814-2.83a1.75,1.75,0,0,0-3.374.929c.5,1.809.844,2.931.844,2.931a1.722,1.722,0,0,0,.766.963,1.709,1.709,0,0,0-.326.228,56.965,56.965,0,0,0-4.371,4.38,1.75,1.75,0,1,0,2.61,2.331,53.541,53.541,0,0,1,4.1-4.11,1.748,1.748,0,0,0,.13-2.471,1.709,1.709,0,0,0-.383-.311A1.749,1.749,0,0,0,47.172,63.485Z"></path><path d="M67.494,59.832l.084,0A1.751,1.751,0,0,0,69.243,58c-.1-2.146-.255-4.3-.377-6.029a1.75,1.75,0,0,0-3.492.247c.094,1.318.2,2.766.284,4.272-1.623.287-3.216.576-4.727.9a1.751,1.751,0,0,0,.366,3.462,1.806,1.806,0,0,0,.37-.04c1.715-.369,3.555-.7,5.442-1.026A1.756,1.756,0,0,0,67.494,59.832Z"></path><path d="M89.591,47.294a1.75,1.75,0,0,0-3.08,1.662c.409.759.855,1.548,1.328,2.358-1.192.4-2.389.794-3.584,1.149a1.75,1.75,0,0,0,.5,3.428,1.729,1.729,0,0,0,.5-.073c1.491-.444,2.986-.937,4.469-1.452a1.743,1.743,0,0,0,2.855-1.995C91.447,50.58,90.442,48.872,89.591,47.294Z"></path><path d="M80.663,55.284a1.753,1.753,0,0,0-2.107-1.3c-1.815.432-3.708.835-5.788,1.231a1.751,1.751,0,0,0,.326,3.47,1.787,1.787,0,0,0,.33-.031c2.132-.407,4.076-.821,5.942-1.264A1.75,1.75,0,0,0,80.663,55.284Z"></path><path d="M54.934,59.046A28.235,28.235,0,0,0,49.2,61.823a1.75,1.75,0,1,0,1.881,2.951,24.864,24.864,0,0,1,5.031-2.433,1.75,1.75,0,0,0-1.18-3.3Z"></path><path d="M42.619,56.367a1.693,1.693,0,0,0,.432.074,1.723,1.723,0,0,0,.388-.044,1.75,1.75,0,0,0,1.32-2.094c-.521-2.3-.943-4.448-1.252-6.39a1.75,1.75,0,0,0-3.456.55c.253,1.59.58,3.313.969,5.131-1.019.192-2.421.449-4.077.737a1.791,1.791,0,0,0-1.51,1.631,1.753,1.753,0,0,0,1.747,1.854,1.716,1.716,0,0,0,.3-.026c1.577-.274,2.937-.522,3.963-.714A1.981,1.981,0,0,0,42.619,56.367Z"></path><path d="M30.885,55.318c-2.045.31-3.971.574-5.725.786a1.793,1.793,0,0,0-1.606,1.583A1.753,1.753,0,0,0,25.3,59.6a1.656,1.656,0,0,0,.21-.013c1.84-.221,3.861-.5,6.008-.824a1.751,1.751,0,0,0,1.4-2.281A1.827,1.827,0,0,0,30.885,55.318Z"></path><path d="M73.631,68.074c-1.841-.278-3.27-.445-4.389-.51.067-1.113.11-2.259.125-3.464a1.75,1.75,0,0,0-1.728-1.771h-.022a1.75,1.75,0,0,0-1.75,1.728c-.025,2.086-.132,3.992-.323,5.828A1.749,1.749,0,0,0,67.1,71.808c.061.006.123.009.183.009a1.743,1.743,0,0,0,1.444-.776,43.619,43.619,0,0,1,4.377.494,1.823,1.823,0,0,0,.264.019,1.75,1.75,0,0,0,.26-3.48Z"></path><path d="M85.546,70.293c-1.933-.4-3.956-.809-5.927-1.182a1.749,1.749,0,1,0-.65,3.438c1.949.369,3.951.773,5.864,1.171a1.75,1.75,0,0,0,.713-3.427Z"></path></g></svg>