<svg xmlns="http://www.w3.org/2000/svg" height="512" viewBox="0 0 128 128" width="512"><g><path d="m102.311 66.083a11.54 11.54 0 0 0 3.249-8.033 6.815 6.815 0 0 0 -11.3-5.126l-7.925 6.939c-.675-7.148.6-20.525 3.258-32.827 1.513-6.185 2.1-12.143-3.839-13.839a6.882 6.882 0 0 0 -5.766.368c-2.626 1.612-4.425 5.576-5.833 12.852-.734 3.776-1.481 7.383-2.172 10.583-.587-13.828-1.3-23.267-1.534-25.444-.5-4.387-3.427-6.8-8.249-6.8a7.351 7.351 0 0 0 -5.512 2.138c-1.737 1.8-2.557 4.583-2.437 8.289.1 3 .248 14.506.358 23.733-1.838-5.742-3.549-10.646-4.671-13.864-.547-1.569-.974-2.792-1.234-3.589-2.167-6.631-6.225-6.907-8.446-6.487a6.5 6.5 0 0 0 -4.392 2.718c-1.259 1.868-1.553 4.528-.872 7.9.615 3.094 2.678 12.754 4.268 20.169-2.379-3.294-4.652-6-6.062-7.684-.363-.432-.662-.788-.887-1.066a5.107 5.107 0 0 0 -3.813-1.955 5.029 5.029 0 0 0 -3.759 1.5l-.176.183c-1.019 1.05-3.725 3.839-.847 8.491 2.229 3.618 9.2 18.732 9.24 18.815 3.755 9.165 9.34 24.174 9.34 27.962l.046 15.91v13.581a1.751 1.751 0 0 0 1.75 1.75h39.806a1.751 1.751 0 0 0 1.75-1.75l-.044-29c.004-7.558 6.394-15.71 16.705-26.417zm-66.142-3.436c-.29-.629-7.13-15.459-9.471-19.258-1.444-2.334-.557-3.247.381-4.215l.225-.235a1.639 1.639 0 0 1 1.093-.383 1.6 1.6 0 0 1 1.2.667c.229.282.54.653.918 1.1a93.637 93.637 0 0 1 10.97 15.49 1.635 1.635 0 0 0 .368.464c.043.039.087.078.133.112a1.641 1.641 0 0 0 .222.147h.005a1.719 1.719 0 0 0 .827.222 1.751 1.751 0 0 0 1.75-1.75c0-.041-.014-.08-.017-.121a1.825 1.825 0 0 0 -.033-.232c-.01-.044-.007-.089-.019-.132-.094-.443-.417-1.948-.873-4.071-1.507-7.019-4.642-21.626-5.423-25.55-.482-2.393-.363-4.212.343-5.258a3.1 3.1 0 0 1 2.139-1.237c.878-.168 2.936-.56 4.469 4.134.266.813.7 2.058 1.257 3.656 1.959 5.615 5.236 15.012 8.182 25.523a1.75 1.75 0 0 0 3.435-.491c-.014-1.261-.333-30.949-.5-36.168-.087-2.683.416-4.668 1.454-5.741a3.948 3.948 0 0 1 3-1.072c3.825 0 4.553 1.777 4.771 3.691.3 2.782 1.389 17.665 1.989 38.529a1.75 1.75 0 0 0 3.449.37c.027-.108 2.7-10.942 5.179-23.757 1.441-7.447 3.1-9.839 4.228-10.535.684-.421 1.463-.418 2.973.015 1.483.423 3.514 1 1.391 9.688-2.835 13.109-4.684 30.181-2.755 37.451a1.75 1.75 0 0 0 2.844.866l10.287-9.006a3.315 3.315 0 0 1 5.5 2.49 8.169 8.169 0 0 1 -2.27 5.606c-11.2 11.626-17.68 20.073-17.68 28.849l.022 9.267h-36.3l-.032-9.772c0-5.681-8.618-26.884-9.631-29.353zm9.677 57.1v-10.462c0-.014 0-.026 0-.04v-1.339-2.634h36.294l.01 3.981v.038 10.459z"></path><path d="m77.871 98.5a1.75 1.75 0 0 0 1.746-1.754l-.008-4.246a20.023 20.023 0 0 1 .142-2.365 1.75 1.75 0 1 0 -3.476-.414 23.616 23.616 0 0 0 -.166 2.783l.012 4.251a1.749 1.749 0 0 0 1.75 1.745z"></path></g></svg>