<svg xmlns="http://www.w3.org/2000/svg" width="48" height="48" viewBox="0 0 48 48" fill="none"><path d="M47.0245 8.38194C37.3009 7.72703 34.6309 2.38673 34.4798 2.13481C34.127 1.42961 33.4218 0.976196 32.6659 0.976196C31.9099 0.976196 31.1545 1.42957 30.8519 2.13481C30.7011 2.38664 28.0306 7.72694 18.3072 8.38194C17.8036 8.43222 17.4005 8.83531 17.4005 9.33897V17.5006C17.6523 17.4503 17.9041 17.4503 18.1564 17.4503C18.4082 17.4503 18.6601 17.4503 18.8616 17.5006C19.0129 17.5508 19.1637 17.5508 19.315 17.6011L19.3146 10.2461C29.4413 9.2384 32.4646 3.24315 32.6146 2.94103C32.6648 2.94103 32.6648 2.94103 32.6648 2.99131C32.7654 3.24314 35.7886 9.23844 45.9148 10.2461V18.861C45.9148 27.1739 36.8968 32.7152 33.4712 34.4791C33.5718 34.8822 33.6225 35.2853 33.6225 35.6883C33.6225 36.0411 33.5722 36.3432 33.5219 36.6454C36.2929 35.3356 47.8304 29.189 47.8304 18.8603V9.33856C47.9314 8.8349 47.5283 8.43181 47.0247 8.38152L47.0245 8.38194Z" fill="#0D354F"></path><path d="M40.4745 18.9117C40.4745 14.6294 36.9983 11.1026 32.6653 11.1026C28.383 11.1026 24.8562 14.5788 24.8562 18.9117C24.8562 23.2444 28.3323 26.7209 32.6653 26.7209C36.9477 26.7209 40.4745 23.2447 40.4745 18.9117ZM36.2424 17.9547L32.3129 21.8843C32.1113 22.0858 31.8092 22.1864 31.557 22.1864C31.3051 22.1864 31.0026 22.0858 30.8011 21.8843L28.8363 19.9195C28.4332 19.5164 28.4332 18.8112 28.8363 18.4081C29.2394 18.005 29.9446 18.005 30.3477 18.4081L31.5569 19.6174L34.731 16.4433C35.1341 16.0402 35.8393 16.0402 36.2423 16.4433C36.6454 16.8464 36.6454 17.5516 36.2423 17.9547H36.2424Z" fill="#0D354F"></path><path d="M31.6574 35.7394C31.6574 34.8327 31.2543 34.0264 30.5491 33.4722C30.8513 33.0188 31.0025 32.4644 31.0025 31.8598C31.0025 30.2475 29.6927 28.9376 28.0803 28.9376L21.027 28.938C21.2788 28.0816 21.6316 26.8723 21.7322 25.5625C21.8328 24.6557 21.7825 23.648 21.5809 22.59C21.3291 20.9777 20.0695 19.7688 18.5078 19.517C17.2483 19.3154 15.9887 20.1216 15.7369 21.4314L15.1322 24.2527C14.8301 25.7138 14.0742 27.0237 13.0162 28.0314L9.69086 31.1552C9.38875 31.4573 8.98566 31.6085 8.58256 31.6085H7.72609C7.57483 31.0542 7.07118 30.6515 6.46652 30.6515H1.42833C0.672423 30.6515 0.068222 31.2561 0.068222 32.0116V43.1967C0.068222 43.9526 0.672859 44.5568 1.42833 44.5568H6.46652C7.07116 44.5568 7.57482 44.1537 7.72609 43.5998H9.23748L9.43902 43.9526C10.6483 45.8671 12.7136 47.0763 14.9809 47.0763H15.5353C17.6514 47.0763 20.7751 46.925 23.5962 46.2701C23.8984 46.3707 24.2009 46.4214 24.4527 46.4214H27.4755C29.0878 46.4214 30.3977 45.1116 30.3977 43.4992C30.3977 42.9448 30.1962 42.3405 29.8941 41.8868C30.5993 41.3325 30.9521 40.5267 30.9521 39.6702C30.9521 39.1159 30.8008 38.5619 30.4987 38.0579C31.2542 37.4528 31.6573 36.6466 31.6573 35.7399L31.6574 35.7394ZM3.94787 42.2886C3.29295 42.2886 2.73862 41.7342 2.73862 41.0793C2.73862 40.4244 3.29297 39.8701 3.94787 39.8701C4.60277 39.8701 5.15713 40.4244 5.15713 41.0793C5.15713 41.7849 4.60277 42.2886 3.94787 42.2886ZM23.9989 30.9024H28.0797C28.634 30.9024 29.0367 31.3055 29.0367 31.8594C29.0367 32.4138 28.6336 32.8165 28.0797 32.8165L23.9989 32.8169C23.4953 32.8169 23.0419 32.4138 23.0419 31.8598C23.0419 31.3558 23.4953 30.9024 23.9989 30.9024V30.9024ZM21.8829 44.6056C20.0187 44.9077 17.8523 45.059 15.4343 45.059H15.0814C13.4691 45.059 12.0084 44.2025 11.1519 42.8424L10.6482 42.0362C10.4467 41.7341 10.1446 41.5828 9.79174 41.5828H7.77674L7.77633 33.5721H8.58251C9.48925 33.5721 10.3964 33.2193 11.0513 32.5643L14.3767 29.3903C15.7368 28.0805 16.6942 26.4178 17.0471 24.6043L17.6517 21.7831C17.702 21.5312 17.9538 21.38 18.2061 21.4302C18.962 21.5308 19.5662 22.1354 19.6671 22.8913C19.8184 23.7981 19.8687 24.6043 19.7677 25.3094C19.5662 27.3751 18.7097 29.3901 18.7097 29.4912C18.5584 29.7933 18.6091 30.1461 18.8103 30.3979C19.0118 30.6498 19.3139 30.8513 19.6164 30.8513H21.2288L21.1785 31.0529C19.9692 36.1917 15.8382 35.7886 15.6869 35.7886C15.4351 35.7383 15.1832 35.8389 14.9817 35.9902C14.7802 36.1414 14.6289 36.3932 14.6289 36.6451C14.6289 36.8969 14.6792 37.1487 14.8304 37.3503C14.9817 37.5518 15.2335 37.7031 15.4853 37.7031H15.9387C16.7449 37.7031 18.8102 37.5518 20.5738 36.0404C20.6744 36.7456 21.0775 37.4513 21.6318 37.8544C21.3297 38.358 21.1785 38.8621 21.1785 39.4667C21.1785 40.3232 21.5816 41.1294 22.2365 41.6833C21.8837 42.187 21.7328 42.7413 21.7328 43.2956C21.631 43.85 21.732 44.2024 21.8828 44.6054L21.8829 44.6056ZM27.5761 44.404H24.5533C24.0496 44.404 23.5963 43.9507 23.5963 43.447C23.5963 42.9434 23.9994 42.49 24.5533 42.49H27.5761C28.0797 42.49 28.5331 42.8931 28.5331 43.447C28.4828 44.0009 28.0801 44.404 27.5761 44.404ZM28.0801 40.5248H23.999C23.4953 40.5248 23.0419 40.1217 23.0419 39.5678C23.0419 39.0641 23.4953 38.6107 23.999 38.6107H28.0797C28.6341 38.6107 29.0367 39.0138 29.0367 39.5678C29.0372 40.1217 28.6341 40.5248 28.0801 40.5248H28.0801ZM28.7351 36.6959H23.344C22.8403 36.6959 22.387 36.2928 22.387 35.7388C22.387 35.2352 22.7901 34.7818 23.344 34.7818H28.7346C29.2383 34.7818 29.6917 35.1849 29.6917 35.7388C29.6921 36.2425 29.289 36.6959 28.735 36.6959H28.7351Z" fill="#0D354F"></path></svg>