<svg xmlns="http://www.w3.org/2000/svg" width="133" height="976" viewBox="0 0 133 976" fill="none"><g><path d="M28 179L20 192.5M20 192.5L28 206.5M20 192.5H3.5" stroke="#0D354F"></path><path d="M98 179L90 192.5M90 192.5L98 206.5M90 192.5H73.5" stroke="#0D354F"></path><path d="M62.5 198L54.5 211.5M54.5 211.5L62.5 225.5M54.5 211.5H38" stroke="#0D354F"></path><path d="M132.5 198L124.5 211.5M124.5 211.5L132.5 225.5M124.5 211.5H108" stroke="#0D354F"></path><path d="M27.5 139L19.5 152.5M19.5 152.5L27.5 166.5M19.5 152.5H3" stroke="#0D354F"></path><path d="M97.5 139L89.5 152.5M89.5 152.5L97.5 166.5M89.5 152.5H73" stroke="#0D354F"></path><path d="M35 179L43 192.5M43 192.5L35 206.5M43 192.5H59.5" stroke="#0D354F"></path><path d="M71 198L79 211.5M79 211.5L71 225.5M79 211.5H95.5" stroke="#0D354F"></path><path d="M0 199L8 212.5M8 212.5L0 226.5M8 212.5H24.5" stroke="#0D354F"></path><path d="M105 179L113 192.5M113 192.5L105 206.5M113 192.5H129.5" stroke="#0D354F"></path><path d="M35 139L43 152.5M43 152.5L35 166.5M43 152.5H59.5" stroke="#0D354F"></path><path d="M105 139L113 152.5M113 152.5L105 166.5M113 152.5H129.5" stroke="#0D354F"></path><path d="M62.5 186.5L54.5 173M54.5 173L62.5 159M54.5 173H38" stroke="#0D354F"></path><path d="M132.5 186.5L124.5 173M124.5 173L132.5 159M124.5 173H108" stroke="#0D354F"></path><path d="M0 186.5L8 173M8 173L0 159M8 173H24.5" stroke="#0D354F"></path><path d="M70 186.5L78 173M78 173L70 159M78 173H94.5" stroke="#0D354F"></path><path d="M28 100L20 113.5M20 113.5L28 127.5M20 113.5H3.5" stroke="#0D354F"></path><path d="M98 100L90 113.5M90 113.5L98 127.5M90 113.5H73.5" stroke="#0D354F"></path><path d="M62.5 119L54.5 132.5M54.5 132.5L62.5 146.5M54.5 132.5H38" stroke="#0D354F"></path><path d="M132.5 119L124.5 132.5M124.5 132.5L132.5 146.5M124.5 132.5H108" stroke="#0D354F"></path><path d="M27.5 60L19.5 73.5M19.5 73.5L27.5 87.5M19.5 73.5H3" stroke="#0D354F"></path><path d="M97.5 60L89.5 73.5M89.5 73.5L97.5 87.5M89.5 73.5H73" stroke="#0D354F"></path><path d="M35 100L43 113.5M43 113.5L35 127.5M43 113.5H59.5" stroke="#0D354F"></path><path d="M71 119L79 132.5M79 132.5L71 146.5M79 132.5H95.5" stroke="#0D354F"></path><path d="M0 120L8 133.5M8 133.5L0 147.5M8 133.5H24.5" stroke="#0D354F"></path><path d="M105 100L113 113.5M113 113.5L105 127.5M113 113.5H129.5" stroke="#0D354F"></path><path d="M35 60L43 73.5M43 73.5L35 87.5M43 73.5H59.5" stroke="#0D354F"></path><path d="M105 60L113 73.5M113 73.5L105 87.5M113 73.5H129.5" stroke="#0D354F"></path><path d="M62.5 107.5L54.5 94M54.5 94L62.5 80M54.5 94H38" stroke="#0D354F"></path><path d="M132.5 107.5L124.5 94M124.5 94L132.5 80M124.5 94H108" stroke="#0D354F"></path><path d="M0 107.5L8 94M8 94L0 80M8 94H24.5" stroke="#0D354F"></path><path d="M70 107.5L78 94M78 94L70 80M78 94H94.5" stroke="#0D354F"></path><path d="M28 20L20 33.5M20 33.5L28 47.5M20 33.5H3.5" stroke="#0D354F"></path><path d="M98 20L90 33.5M90 33.5L98 47.5M90 33.5H73.5" stroke="#0D354F"></path><path d="M62.5 39L54.5 52.5M54.5 52.5L62.5 66.5M54.5 52.5H38" stroke="#0D354F"></path><path d="M132.5 39L124.5 52.5M124.5 52.5L132.5 66.5M124.5 52.5H108" stroke="#0D354F"></path><path d="M27.5 -20L19.5 -6.5M19.5 -6.5L27.5 7.5M19.5 -6.5H3" stroke="#0D354F"></path><path d="M97.5 -20L89.5 -6.5M89.5 -6.5L97.5 7.5M89.5 -6.5H73" stroke="#0D354F"></path><path d="M35 20L43 33.5M43 33.5L35 47.5M43 33.5H59.5" stroke="#0D354F"></path><path d="M71 39L79 52.5M79 52.5L71 66.5M79 52.5H95.5" stroke="#0D354F"></path><path d="M0 40L8 53.5M8 53.5L0 67.5M8 53.5H24.5" stroke="#0D354F"></path><path d="M105 20L113 33.5M113 33.5L105 47.5M113 33.5H129.5" stroke="#0D354F"></path><path d="M35 -20L43 -6.5M43 -6.5L35 7.5M43 -6.5H59.5" stroke="#0D354F"></path><path d="M105 -20L113 -6.5M113 -6.5L105 7.5M113 -6.5H129.5" stroke="#0D354F"></path><path d="M62.5 27.5L54.5 14M54.5 14L62.5 0M54.5 14H38" stroke="#0D354F"></path><path d="M132.5 27.5L124.5 14M124.5 14L132.5 0M124.5 14H108" stroke="#0D354F"></path><path d="M0 27.5L8 14M8 14L0 0M8 14H24.5" stroke="#0D354F"></path><path d="M70 27.5L78 14M78 14L70 0M78 14H94.5" stroke="#0D354F"></path><path d="M28 259L20 272.5M20 272.5L28 286.5M20 272.5H3.5" stroke="#0D354F"></path><path d="M98 259L90 272.5M90 272.5L98 286.5M90 272.5H73.5" stroke="#0D354F"></path><path d="M62.5 278L54.5 291.5M54.5 291.5L62.5 305.5M54.5 291.5H38" stroke="#0D354F"></path><path d="M132.5 278L124.5 291.5M124.5 291.5L132.5 305.5M124.5 291.5H108" stroke="#0D354F"></path><path d="M27.5 219L19.5 232.5M19.5 232.5L27.5 246.5M19.5 232.5H3" stroke="#0D354F"></path><path d="M97.5 219L89.5 232.5M89.5 232.5L97.5 246.5M89.5 232.5H73" stroke="#0D354F"></path><path d="M35 259L43 272.5M43 272.5L35 286.5M43 272.5H59.5" stroke="#0D354F"></path><path d="M71 278L79 291.5M79 291.5L71 305.5M79 291.5H95.5" stroke="#0D354F"></path><path d="M0 279L8 292.5M8 292.5L0 306.5M8 292.5H24.5" stroke="#0D354F"></path><path d="M105 259L113 272.5M113 272.5L105 286.5M113 272.5H129.5" stroke="#0D354F"></path><path d="M35 219L43 232.5M43 232.5L35 246.5M43 232.5H59.5" stroke="#0D354F"></path><path d="M105 219L113 232.5M113 232.5L105 246.5M113 232.5H129.5" stroke="#0D354F"></path><path d="M62.5 266.5L54.5 253M54.5 253L62.5 239M54.5 253H38" stroke="#0D354F"></path><path d="M132.5 266.5L124.5 253M124.5 253L132.5 239M124.5 253H108" stroke="#0D354F"></path><path d="M0 266.5L8 253M8 253L0 239M8 253H24.5" stroke="#0D354F"></path><path d="M70 266.5L78 253M78 253L70 239M78 253H94.5" stroke="#0D354F"></path><path d="M28 338L20 351.5M20 351.5L28 365.5M20 351.5H3.5" stroke="#0D354F"></path><path d="M98 338L90 351.5M90 351.5L98 365.5M90 351.5H73.5" stroke="#0D354F"></path><path d="M62.5 357L54.5 370.5M54.5 370.5L62.5 384.5M54.5 370.5H38" stroke="#0D354F"></path><path d="M132.5 357L124.5 370.5M124.5 370.5L132.5 384.5M124.5 370.5H108" stroke="#0D354F"></path><path d="M27.5 298L19.5 311.5M19.5 311.5L27.5 325.5M19.5 311.5H3" stroke="#0D354F"></path><path d="M97.5 298L89.5 311.5M89.5 311.5L97.5 325.5M89.5 311.5H73" stroke="#0D354F"></path><path d="M35 338L43 351.5M43 351.5L35 365.5M43 351.5H59.5" stroke="#0D354F"></path><path d="M71 357L79 370.5M79 370.5L71 384.5M79 370.5H95.5" stroke="#0D354F"></path><path d="M0 358L8 371.5M8 371.5L0 385.5M8 371.5H24.5" stroke="#0D354F"></path><path d="M105 338L113 351.5M113 351.5L105 365.5M113 351.5H129.5" stroke="#0D354F"></path><path d="M35 298L43 311.5M43 311.5L35 325.5M43 311.5H59.5" stroke="#0D354F"></path><path d="M105 298L113 311.5M113 311.5L105 325.5M113 311.5H129.5" stroke="#0D354F"></path><path d="M62.5 345.5L54.5 332M54.5 332L62.5 318M54.5 332H38" stroke="#0D354F"></path><path d="M132.5 345.5L124.5 332M124.5 332L132.5 318M124.5 332H108" stroke="#0D354F"></path><path d="M0 345.5L8 332M8 332L0 318M8 332H24.5" stroke="#0D354F"></path><path d="M70 345.5L78 332M78 332L70 318M78 332H94.5" stroke="#0D354F"></path><path d="M28 418L20 431.5M20 431.5L28 445.5M20 431.5H3.5" stroke="#0D354F"></path><path d="M98 418L90 431.5M90 431.5L98 445.5M90 431.5H73.5" stroke="#0D354F"></path><path d="M62.5 437L54.5 450.5M54.5 450.5L62.5 464.5M54.5 450.5H38" stroke="#0D354F"></path><path d="M132.5 437L124.5 450.5M124.5 450.5L132.5 464.5M124.5 450.5H108" stroke="#0D354F"></path><path d="M27.5 378L19.5 391.5M19.5 391.5L27.5 405.5M19.5 391.5H3" stroke="#0D354F"></path><path d="M97.5 378L89.5 391.5M89.5 391.5L97.5 405.5M89.5 391.5H73" stroke="#0D354F"></path><path d="M35 418L43 431.5M43 431.5L35 445.5M43 431.5H59.5" stroke="#0D354F"></path><path d="M71 437L79 450.5M79 450.5L71 464.5M79 450.5H95.5" stroke="#0D354F"></path><path d="M0 438L8 451.5M8 451.5L0 465.5M8 451.5H24.5" stroke="#0D354F"></path><path d="M105 418L113 431.5M113 431.5L105 445.5M113 431.5H129.5" stroke="#0D354F"></path><path d="M35 378L43 391.5M43 391.5L35 405.5M43 391.5H59.5" stroke="#0D354F"></path><path d="M105 378L113 391.5M113 391.5L105 405.5M113 391.5H129.5" stroke="#0D354F"></path><path d="M62.5 425.5L54.5 412M54.5 412L62.5 398M54.5 412H38" stroke="#0D354F"></path><path d="M132.5 425.5L124.5 412M124.5 412L132.5 398M124.5 412H108" stroke="#0D354F"></path><path d="M0 425.5L8 412M8 412L0 398M8 412H24.5" stroke="#0D354F"></path><path d="M70 425.5L78 412M78 412L70 398M78 412H94.5" stroke="#0D354F"></path><path d="M28 498L20 511.5M20 511.5L28 525.5M20 511.5H3.5" stroke="#0D354F"></path><path d="M98 498L90 511.5M90 511.5L98 525.5M90 511.5H73.5" stroke="#0D354F"></path><path d="M62.5 517L54.5 530.5M54.5 530.5L62.5 544.5M54.5 530.5H38" stroke="#0D354F"></path><path d="M132.5 517L124.5 530.5M124.5 530.5L132.5 544.5M124.5 530.5H108" stroke="#0D354F"></path><path d="M27.5 458L19.5 471.5M19.5 471.5L27.5 485.5M19.5 471.5H3" stroke="#0D354F"></path><path d="M97.5 458L89.5 471.5M89.5 471.5L97.5 485.5M89.5 471.5H73" stroke="#0D354F"></path><path d="M35 498L43 511.5M43 511.5L35 525.5M43 511.5H59.5" stroke="#0D354F"></path><path d="M71 517L79 530.5M79 530.5L71 544.5M79 530.5H95.5" stroke="#0D354F"></path><path d="M0 518L8 531.5M8 531.5L0 545.5M8 531.5H24.5" stroke="#0D354F"></path><path d="M105 498L113 511.5M113 511.5L105 525.5M113 511.5H129.5" stroke="#0D354F"></path><path d="M35 458L43 471.5M43 471.5L35 485.5M43 471.5H59.5" stroke="#0D354F"></path><path d="M105 458L113 471.5M113 471.5L105 485.5M113 471.5H129.5" stroke="#0D354F"></path><path d="M62.5 505.5L54.5 492M54.5 492L62.5 478M54.5 492H38" stroke="#0D354F"></path><path d="M132.5 505.5L124.5 492M124.5 492L132.5 478M124.5 492H108" stroke="#0D354F"></path><path d="M0 505.5L8 492M8 492L0 478M8 492H24.5" stroke="#0D354F"></path><path d="M70 505.5L78 492M78 492L70 478M78 492H94.5" stroke="#0D354F"></path><path d="M28 578L20 591.5M20 591.5L28 605.5M20 591.5H3.5" stroke="#0D354F"></path><path d="M98 578L90 591.5M90 591.5L98 605.5M90 591.5H73.5" stroke="#0D354F"></path><path d="M62.5 597L54.5 610.5M54.5 610.5L62.5 624.5M54.5 610.5H38" stroke="#0D354F"></path><path d="M132.5 597L124.5 610.5M124.5 610.5L132.5 624.5M124.5 610.5H108" stroke="#0D354F"></path><path d="M27.5 538L19.5 551.5M19.5 551.5L27.5 565.5M19.5 551.5H3" stroke="#0D354F"></path><path d="M97.5 538L89.5 551.5M89.5 551.5L97.5 565.5M89.5 551.5H73" stroke="#0D354F"></path><path d="M35 578L43 591.5M43 591.5L35 605.5M43 591.5H59.5" stroke="#0D354F"></path><path d="M71 597L79 610.5M79 610.5L71 624.5M79 610.5H95.5" stroke="#0D354F"></path><path d="M0 598L8 611.5M8 611.5L0 625.5M8 611.5H24.5" stroke="#0D354F"></path><path d="M105 578L113 591.5M113 591.5L105 605.5M113 591.5H129.5" stroke="#0D354F"></path><path d="M35 538L43 551.5M43 551.5L35 565.5M43 551.5H59.5" stroke="#0D354F"></path><path d="M105 538L113 551.5M113 551.5L105 565.5M113 551.5H129.5" stroke="#0D354F"></path><path d="M62.5 585.5L54.5 572M54.5 572L62.5 558M54.5 572H38" stroke="#0D354F"></path><path d="M132.5 585.5L124.5 572M124.5 572L132.5 558M124.5 572H108" stroke="#0D354F"></path><path d="M0 585.5L8 572M8 572L0 558M8 572H24.5" stroke="#0D354F"></path><path d="M70 585.5L78 572M78 572L70 558M78 572H94.5" stroke="#0D354F"></path><path d="M28 658L20 671.5M20 671.5L28 685.5M20 671.5H3.5" stroke="#0D354F"></path><path d="M98 658L90 671.5M90 671.5L98 685.5M90 671.5H73.5" stroke="#0D354F"></path><path d="M62.5 677L54.5 690.5M54.5 690.5L62.5 704.5M54.5 690.5H38" stroke="#0D354F"></path><path d="M132.5 677L124.5 690.5M124.5 690.5L132.5 704.5M124.5 690.5H108" stroke="#0D354F"></path><path d="M27.5 618L19.5 631.5M19.5 631.5L27.5 645.5M19.5 631.5H3" stroke="#0D354F"></path><path d="M97.5 618L89.5 631.5M89.5 631.5L97.5 645.5M89.5 631.5H73" stroke="#0D354F"></path><path d="M35 658L43 671.5M43 671.5L35 685.5M43 671.5H59.5" stroke="#0D354F"></path><path d="M71 677L79 690.5M79 690.5L71 704.5M79 690.5H95.5" stroke="#0D354F"></path><path d="M0 678L8 691.5M8 691.5L0 705.5M8 691.5H24.5" stroke="#0D354F"></path><path d="M105 658L113 671.5M113 671.5L105 685.5M113 671.5H129.5" stroke="#0D354F"></path><path d="M35 618L43 631.5M43 631.5L35 645.5M43 631.5H59.5" stroke="#0D354F"></path><path d="M105 618L113 631.5M113 631.5L105 645.5M113 631.5H129.5" stroke="#0D354F"></path><path d="M62.5 665.5L54.5 652M54.5 652L62.5 638M54.5 652H38" stroke="#0D354F"></path><path d="M132.5 665.5L124.5 652M124.5 652L132.5 638M124.5 652H108" stroke="#0D354F"></path><path d="M0 665.5L8 652M8 652L0 638M8 652H24.5" stroke="#0D354F"></path><path d="M70 665.5L78 652M78 652L70 638M78 652H94.5" stroke="#0D354F"></path><path d="M28 738L20 751.5M20 751.5L28 765.5M20 751.5H3.5" stroke="#0D354F"></path><path d="M98 738L90 751.5M90 751.5L98 765.5M90 751.5H73.5" stroke="#0D354F"></path><path d="M62.5 757L54.5 770.5M54.5 770.5L62.5 784.5M54.5 770.5H38" stroke="#0D354F"></path><path d="M132.5 757L124.5 770.5M124.5 770.5L132.5 784.5M124.5 770.5H108" stroke="#0D354F"></path><path d="M27.5 698L19.5 711.5M19.5 711.5L27.5 725.5M19.5 711.5H3" stroke="#0D354F"></path><path d="M97.5 698L89.5 711.5M89.5 711.5L97.5 725.5M89.5 711.5H73" stroke="#0D354F"></path><path d="M35 738L43 751.5M43 751.5L35 765.5M43 751.5H59.5" stroke="#0D354F"></path><path d="M71 757L79 770.5M79 770.5L71 784.5M79 770.5H95.5" stroke="#0D354F"></path><path d="M0 758L8 771.5M8 771.5L0 785.5M8 771.5H24.5" stroke="#0D354F"></path><path d="M105 738L113 751.5M113 751.5L105 765.5M113 751.5H129.5" stroke="#0D354F"></path><path d="M35 698L43 711.5M43 711.5L35 725.5M43 711.5H59.5" stroke="#0D354F"></path><path d="M105 698L113 711.5M113 711.5L105 725.5M113 711.5H129.5" stroke="#0D354F"></path><path d="M62.5 745.5L54.5 732M54.5 732L62.5 718M54.5 732H38" stroke="#0D354F"></path><path d="M132.5 745.5L124.5 732M124.5 732L132.5 718M124.5 732H108" stroke="#0D354F"></path><path d="M0 745.5L8 732M8 732L0 718M8 732H24.5" stroke="#0D354F"></path><path d="M70 745.5L78 732M78 732L70 718M78 732H94.5" stroke="#0D354F"></path><path d="M28 818L20 831.5M20 831.5L28 845.5M20 831.5H3.5" stroke="#0D354F"></path><path d="M98 818L90 831.5M90 831.5L98 845.5M90 831.5H73.5" stroke="#0D354F"></path><path d="M62.5 837L54.5 850.5M54.5 850.5L62.5 864.5M54.5 850.5H38" stroke="#0D354F"></path><path d="M132.5 837L124.5 850.5M124.5 850.5L132.5 864.5M124.5 850.5H108" stroke="#0D354F"></path><path d="M27.5 778L19.5 791.5M19.5 791.5L27.5 805.5M19.5 791.5H3" stroke="#0D354F"></path><path d="M97.5 778L89.5 791.5M89.5 791.5L97.5 805.5M89.5 791.5H73" stroke="#0D354F"></path><path d="M35 818L43 831.5M43 831.5L35 845.5M43 831.5H59.5" stroke="#0D354F"></path><path d="M71 837L79 850.5M79 850.5L71 864.5M79 850.5H95.5" stroke="#0D354F"></path><path d="M0 838L8 851.5M8 851.5L0 865.5M8 851.5H24.5" stroke="#0D354F"></path><path d="M105 818L113 831.5M113 831.5L105 845.5M113 831.5H129.5" stroke="#0D354F"></path><path d="M35 778L43 791.5M43 791.5L35 805.5M43 791.5H59.5" stroke="#0D354F"></path><path d="M105 778L113 791.5M113 791.5L105 805.5M113 791.5H129.5" stroke="#0D354F"></path><path d="M62.5 825.5L54.5 812M54.5 812L62.5 798M54.5 812H38" stroke="#0D354F"></path><path d="M132.5 825.5L124.5 812M124.5 812L132.5 798M124.5 812H108" stroke="#0D354F"></path><path d="M0 825.5L8 812M8 812L0 798M8 812H24.5" stroke="#0D354F"></path><path d="M70 825.5L78 812M78 812L70 798M78 812H94.5" stroke="#0D354F"></path><path d="M28 902L20 915.5M20 915.5L28 929.5M20 915.5H3.5" stroke="#0D354F"></path><path d="M98 902L90 915.5M90 915.5L98 929.5M90 915.5H73.5" stroke="#0D354F"></path><path d="M62.5 921L54.5 934.5M54.5 934.5L62.5 948.5M54.5 934.5H38" stroke="#0D354F"></path><path d="M132.5 921L124.5 934.5M124.5 934.5L132.5 948.5M124.5 934.5H108" stroke="#0D354F"></path><path d="M27.5 862L19.5 875.5M19.5 875.5L27.5 889.5M19.5 875.5H3" stroke="#0D354F"></path><path d="M97.5 862L89.5 875.5M89.5 875.5L97.5 889.5M89.5 875.5H73" stroke="#0D354F"></path><path d="M35 902L43 915.5M43 915.5L35 929.5M43 915.5H59.5" stroke="#0D354F"></path><path d="M71 921L79 934.5M79 934.5L71 948.5M79 934.5H95.5" stroke="#0D354F"></path><path d="M0 922L8 935.5M8 935.5L0 949.5M8 935.5H24.5" stroke="#0D354F"></path><path d="M105 902L113 915.5M113 915.5L105 929.5M113 915.5H129.5" stroke="#0D354F"></path><path d="M35 862L43 875.5M43 875.5L35 889.5M43 875.5H59.5" stroke="#0D354F"></path><path d="M105 862L113 875.5M113 875.5L105 889.5M113 875.5H129.5" stroke="#0D354F"></path><path d="M62.5 909.5L54.5 896M54.5 896L62.5 882M54.5 896H38" stroke="#0D354F"></path><path d="M132.5 909.5L124.5 896M124.5 896L132.5 882M124.5 896H108" stroke="#0D354F"></path><path d="M0 909.5L8 896M8 896L0 882M8 896H24.5" stroke="#0D354F"></path><path d="M70 909.5L78 896M78 896L70 882M78 896H94.5" stroke="#0D354F"></path><path d="M28.5 942L20.5 955.5M20.5 955.5L28.5 969.5M20.5 955.5H4" stroke="#0D354F"></path><path d="M98.5 942L90.5 955.5M90.5 955.5L98.5 969.5M90.5 955.5H74" stroke="#0D354F"></path><path d="M36 942L44 955.5M44 955.5L36 969.5M44 955.5H60.5" stroke="#0D354F"></path><path d="M106 942L114 955.5M114 955.5L106 969.5M114 955.5H130.5" stroke="#0D354F"></path><path d="M63.5 989.5L55.5 976M55.5 976L63.5 962M55.5 976H39" stroke="#0D354F"></path><path d="M133.5 989.5L125.5 976M125.5 976L133.5 962M125.5 976H109" stroke="#0D354F"></path><path d="M1 989.5L9 976M9 976L1 962M9 976H25.5" stroke="#0D354F"></path><path d="M71 989.5L79 976M79 976L71 962M79 976H95.5" stroke="#0D354F"></path></g><defs></defs></svg>