<svg xmlns="http://www.w3.org/2000/svg" width="174" height="700" viewBox="0 0 174 700" fill="none"><g clip-path="url(#clip0_6_566)"><path d="M34 33L26 46.5M26 46.5L34 60.5M26 46.5H9.5" stroke="#C89263"></path><path d="M104 33L96 46.5M96 46.5L104 60.5M96 46.5H79.5" stroke="#C89263"></path><path d="M173 33L165 46.5M165 46.5L173 60.5M165 46.5H148.5" stroke="#C89263"></path><path d="M68.5 52L60.5 65.5M60.5 65.5L68.5 79.5M60.5 65.5H44" stroke="#C89263"></path><path d="M138.5 52L130.5 65.5M130.5 65.5L138.5 79.5M130.5 65.5H114" stroke="#C89263"></path><path d="M33.5 -7L25.5 6.5M25.5 6.5L33.5 20.5M25.5 6.5H9" stroke="#C89263"></path><path d="M103.5 -7L95.5 6.5M95.5 6.5L103.5 20.5M95.5 6.5H79M85 -11.5L77 2" stroke="#C89263"></path><path d="M172.5 -7L164.5 6.5M164.5 6.5L172.5 20.5M164.5 6.5H148M153.5 -11.5L145.5 2" stroke="#C89263"></path><path d="M41 33L49 46.5M49 46.5L41 60.5M49 46.5H65.5" stroke="#C89263"></path><path d="M77 52L85 65.5M85 65.5L77 79.5M85 65.5H101.5" stroke="#C89263"></path><path d="M6 53L14 66.5M14 66.5L6 80.5M14 66.5H30.5" stroke="#C89263"></path><path d="M111 33L119 46.5M119 46.5L111 60.5M119 46.5H135.5" stroke="#C89263"></path><path d="M41 -7L49 6.5M49 6.5L41 20.5M49 6.5H65.5M61 -12.5L69 1" stroke="#C89263"></path><path d="M111 -7L119 6.5M119 6.5L111 20.5M119 6.5H135.5M131.5 -12L139.5 1.5" stroke="#C89263"></path><path d="M68.5 40.5L60.5 27M60.5 27L68.5 13M60.5 27H44" stroke="#C89263"></path><path d="M138.5 40.5L130.5 27M130.5 27L138.5 13M130.5 27H114" stroke="#C89263"></path><path d="M6 40.5L14 27M14 27L6 13M14 27H30.5" stroke="#C89263"></path><path d="M5 0.5L13 -13" stroke="#C89263"></path><path d="M76 40.5L84 27M84 27L76 13M84 27H100.5" stroke="#C89263"></path><path d="M145 40.5L153 27M153 27L145 13M153 27H169.5" stroke="#C89263"></path><path d="M145 79.5L153 66M153 66L145 52M153 66H169.5M148.5 86H172.5" stroke="#C89263"></path><path d="M145 120.5L153 107M153 107L145 93M153 107H169.5M153 127H169.5" stroke="#C89263"></path><path d="M145 159.5L153 146M153 146L145 132M153 146H169.5M150 165H166.5" stroke="#C89263"></path><path d="M145 199.5L153 186M153 186L145 172M153 186H169.5M149 206.5H165.5" stroke="#C89263"></path><path d="M145 238.5L153 225M153 225L145 211M153 225H169.5M150 245.5H166.5" stroke="#C89263"></path><path d="M146 279.5L154 266M154 266L146 252M154 266H170.5M149 285H165.5" stroke="#C89263"></path><path d="M146 318.5L154 305M154 305L146 291M154 305H170.5M151 324.5H167.5" stroke="#C89263"></path><path d="M146 398.5L154 385M154 385L146 371M154 385H170.5M151 404.5H167.5" stroke="#C89263"></path><path d="M146 439.5L154 426M154 426L146 412M154 426H170.5M151 445.5H167.5" stroke="#C89263"></path><path d="M146 478.5L154 465M154 465L146 451M154 465H170.5M151 484.5H167.5" stroke="#C89263"></path><path d="M146 520L154 506.5M154 506.5L146 492.5M154 506.5H170.5M151 526H167.5" stroke="#C89263"></path><path d="M146 559.5L154 546M154 546L146 532M154 546H170.5M151 565.5H167.5" stroke="#C89263"></path><path d="M146 599L154 585.5M154 585.5L146 571.5M154 585.5H170.5M151 605H167.5" stroke="#C89263"></path><path d="M146 638.5L154 625M154 625L146 611M154 625H170.5M151 644.5H167.5" stroke="#C89263"></path><path d="M146 678L154 664.5M154 664.5L146 650.5M154 664.5H170.5M151 684H167.5" stroke="#C89263"></path><path d="M146 717.5L154 704M154 704L146 690M154 704H170.5M151 723.5H167.5" stroke="#C89263"></path><path d="M146 359.5L154 346M154 346L146 332M154 346H170.5M149.5 365H166" stroke="#C89263"></path><path d="M34 113L26 126.5M26 126.5L34 140.5M26 126.5H9.5" stroke="#C89263"></path><path d="M104 113L96 126.5M96 126.5L104 140.5M96 126.5H79.5" stroke="#C89263"></path><path d="M68.5 132L60.5 145.5M60.5 145.5L68.5 159.5M60.5 145.5H44" stroke="#C89263"></path><path d="M138.5 132L130.5 145.5M130.5 145.5L138.5 159.5M130.5 145.5H114" stroke="#C89263"></path><path d="M33.5 73L25.5 86.5M25.5 86.5L33.5 100.5M25.5 86.5H9" stroke="#C89263"></path><path d="M103.5 73L95.5 86.5M95.5 86.5L103.5 100.5M95.5 86.5H79" stroke="#C89263"></path><path d="M41 113L49 126.5M49 126.5L41 140.5M49 126.5H65.5" stroke="#C89263"></path><path d="M77 132L85 145.5M85 145.5L77 159.5M85 145.5H101.5" stroke="#C89263"></path><path d="M6 133L14 146.5M14 146.5L6 160.5M14 146.5H30.5" stroke="#C89263"></path><path d="M111 113L119 126.5M119 126.5L111 140.5M119 126.5H135.5" stroke="#C89263"></path><path d="M41 73L49 86.5M49 86.5L41 100.5M49 86.5H65.5" stroke="#C89263"></path><path d="M111 73L119 86.5M119 86.5L111 100.5M119 86.5H135.5" stroke="#C89263"></path><path d="M68.5 120.5L60.5 107M60.5 107L68.5 93M60.5 107H44" stroke="#C89263"></path><path d="M138.5 120.5L130.5 107M130.5 107L138.5 93M130.5 107H114" stroke="#C89263"></path><path d="M6 120.5L14 107M14 107L6 93M14 107H30.5" stroke="#C89263"></path><path d="M76 120.5L84 107M84 107L76 93M84 107H100.5" stroke="#C89263"></path><path d="M34 192L26 205.5M26 205.5L34 219.5M26 205.5H9.5" stroke="#C89263"></path><path d="M104 192L96 205.5M96 205.5L104 219.5M96 205.5H79.5" stroke="#C89263"></path><path d="M68.5 211L60.5 224.5M60.5 224.5L68.5 238.5M60.5 224.5H44" stroke="#C89263"></path><path d="M138.5 211L130.5 224.5M130.5 224.5L138.5 238.5M130.5 224.5H114" stroke="#C89263"></path><path d="M33.5 152L25.5 165.5M25.5 165.5L33.5 179.5M25.5 165.5H9" stroke="#C89263"></path><path d="M103.5 152L95.5 165.5M95.5 165.5L103.5 179.5M95.5 165.5H79" stroke="#C89263"></path><path d="M41 192L49 205.5M49 205.5L41 219.5M49 205.5H65.5" stroke="#C89263"></path><path d="M77 211L85 224.5M85 224.5L77 238.5M85 224.5H101.5" stroke="#C89263"></path><path d="M6 212L14 225.5M14 225.5L6 239.5M14 225.5H30.5" stroke="#C89263"></path><path d="M111 192L119 205.5M119 205.5L111 219.5M119 205.5H135.5" stroke="#C89263"></path><path d="M41 152L49 165.5M49 165.5L41 179.5M49 165.5H65.5" stroke="#C89263"></path><path d="M111 152L119 165.5M119 165.5L111 179.5M119 165.5H135.5" stroke="#C89263"></path><path d="M68.5 199.5L60.5 186M60.5 186L68.5 172M60.5 186H44" stroke="#C89263"></path><path d="M138.5 199.5L130.5 186M130.5 186L138.5 172M130.5 186H114" stroke="#C89263"></path><path d="M6 199.5L14 186M14 186L6 172M14 186H30.5" stroke="#C89263"></path><path d="M76 199.5L84 186M84 186L76 172M84 186H100.5" stroke="#C89263"></path><path d="M34 272L26 285.5M26 285.5L34 299.5M26 285.5H9.5" stroke="#C89263"></path><path d="M104 272L96 285.5M96 285.5L104 299.5M96 285.5H79.5" stroke="#C89263"></path><path d="M68.5 291L60.5 304.5M60.5 304.5L68.5 318.5M60.5 304.5H44" stroke="#C89263"></path><path d="M138.5 291L130.5 304.5M130.5 304.5L138.5 318.5M130.5 304.5H114" stroke="#C89263"></path><path d="M33.5 232L25.5 245.5M25.5 245.5L33.5 259.5M25.5 245.5H9" stroke="#C89263"></path><path d="M103.5 232L95.5 245.5M95.5 245.5L103.5 259.5M95.5 245.5H79" stroke="#C89263"></path><path d="M41 272L49 285.5M49 285.5L41 299.5M49 285.5H65.5" stroke="#C89263"></path><path d="M77 291L85 304.5M85 304.5L77 318.5M85 304.5H101.5" stroke="#C89263"></path><path d="M6 292L14 305.5M14 305.5L6 319.5M14 305.5H30.5" stroke="#C89263"></path><path d="M111 272L119 285.5M119 285.5L111 299.5M119 285.5H135.5" stroke="#C89263"></path><path d="M41 232L49 245.5M49 245.5L41 259.5M49 245.5H65.5" stroke="#C89263"></path><path d="M111 232L119 245.5M119 245.5L111 259.5M119 245.5H135.5" stroke="#C89263"></path><path d="M68.5 279.5L60.5 266M60.5 266L68.5 252M60.5 266H44" stroke="#C89263"></path><path d="M138.5 279.5L130.5 266M130.5 266L138.5 252M130.5 266H114" stroke="#C89263"></path><path d="M6 279.5L14 266M14 266L6 252M14 266H30.5" stroke="#C89263"></path><path d="M76 279.5L84 266M84 266L76 252M84 266H100.5" stroke="#C89263"></path><path d="M34 352L26 365.5M26 365.5L34 379.5M26 365.5H9.5" stroke="#C89263"></path><path d="M104 352L96 365.5M96 365.5L104 379.5M96 365.5H79.5" stroke="#C89263"></path><path d="M68.5 371L60.5 384.5M60.5 384.5L68.5 398.5M60.5 384.5H44" stroke="#C89263"></path><path d="M138.5 371L130.5 384.5M130.5 384.5L138.5 398.5M130.5 384.5H114" stroke="#C89263"></path><path d="M33.5 312L25.5 325.5M25.5 325.5L33.5 339.5M25.5 325.5H9" stroke="#C89263"></path><path d="M103.5 312L95.5 325.5M95.5 325.5L103.5 339.5M95.5 325.5H79" stroke="#C89263"></path><path d="M41 352L49 365.5M49 365.5L41 379.5M49 365.5H65.5" stroke="#C89263"></path><path d="M77 371L85 384.5M85 384.5L77 398.5M85 384.5H101.5" stroke="#C89263"></path><path d="M6 372L14 385.5M14 385.5L6 399.5M14 385.5H30.5" stroke="#C89263"></path><path d="M111 352L119 365.5M119 365.5L111 379.5M119 365.5H135.5" stroke="#C89263"></path><path d="M41 312L49 325.5M49 325.5L41 339.5M49 325.5H65.5" stroke="#C89263"></path><path d="M111 312L119 325.5M119 325.5L111 339.5M119 325.5H135.5" stroke="#C89263"></path><path d="M68.5 359.5L60.5 346M60.5 346L68.5 332M60.5 346H44" stroke="#C89263"></path><path d="M138.5 359.5L130.5 346M130.5 346L138.5 332M130.5 346H114" stroke="#C89263"></path><path d="M6 359.5L14 346M14 346L6 332M14 346H30.5" stroke="#C89263"></path><path d="M76 359.5L84 346M84 346L76 332M84 346H100.5" stroke="#C89263"></path><path d="M34 432L26 445.5M26 445.5L34 459.5M26 445.5H9.5" stroke="#C89263"></path><path d="M104 432L96 445.5M96 445.5L104 459.5M96 445.5H79.5" stroke="#C89263"></path><path d="M68.5 451L60.5 464.5M60.5 464.5L68.5 478.5M60.5 464.5H44" stroke="#C89263"></path><path d="M138.5 451L130.5 464.5M130.5 464.5L138.5 478.5M130.5 464.5H114" stroke="#C89263"></path><path d="M33.5 392L25.5 405.5M25.5 405.5L33.5 419.5M25.5 405.5H9" stroke="#C89263"></path><path d="M103.5 392L95.5 405.5M95.5 405.5L103.5 419.5M95.5 405.5H79" stroke="#C89263"></path><path d="M41 432L49 445.5M49 445.5L41 459.5M49 445.5H65.5" stroke="#C89263"></path><path d="M77 451L85 464.5M85 464.5L77 478.5M85 464.5H101.5" stroke="#C89263"></path><path d="M6 452L14 465.5M14 465.5L6 479.5M14 465.5H30.5" stroke="#C89263"></path><path d="M111 432L119 445.5M119 445.5L111 459.5M119 445.5H135.5" stroke="#C89263"></path><path d="M41 392L49 405.5M49 405.5L41 419.5M49 405.5H65.5" stroke="#C89263"></path><path d="M111 392L119 405.5M119 405.5L111 419.5M119 405.5H135.5" stroke="#C89263"></path><path d="M68.5 439.5L60.5 426M60.5 426L68.5 412M60.5 426H44" stroke="#C89263"></path><path d="M138.5 439.5L130.5 426M130.5 426L138.5 412M130.5 426H114" stroke="#C89263"></path><path d="M6 439.5L14 426M14 426L6 412M14 426H30.5" stroke="#C89263"></path><path d="M76 439.5L84 426M84 426L76 412M84 426H100.5" stroke="#C89263"></path><path d="M34 512L26 525.5M26 525.5L34 539.5M26 525.5H9.5" stroke="#C89263"></path><path d="M104 512L96 525.5M96 525.5L104 539.5M96 525.5H79.5" stroke="#C89263"></path><path d="M68.5 531L60.5 544.5M60.5 544.5L68.5 558.5M60.5 544.5H44" stroke="#C89263"></path><path d="M138.5 531L130.5 544.5M130.5 544.5L138.5 558.5M130.5 544.5H114" stroke="#C89263"></path><path d="M33.5 472L25.5 485.5M25.5 485.5L33.5 499.5M25.5 485.5H9" stroke="#C89263"></path><path d="M103.5 472L95.5 485.5M95.5 485.5L103.5 499.5M95.5 485.5H79" stroke="#C89263"></path><path d="M41 512L49 525.5M49 525.5L41 539.5M49 525.5H65.5" stroke="#C89263"></path><path d="M77 531L85 544.5M85 544.5L77 558.5M85 544.5H101.5" stroke="#C89263"></path><path d="M6 532L14 545.5M14 545.5L6 559.5M14 545.5H30.5" stroke="#C89263"></path><path d="M111 512L119 525.5M119 525.5L111 539.5M119 525.5H135.5" stroke="#C89263"></path><path d="M41 472L49 485.5M49 485.5L41 499.5M49 485.5H65.5" stroke="#C89263"></path><path d="M111 472L119 485.5M119 485.5L111 499.5M119 485.5H135.5" stroke="#C89263"></path><path d="M68.5 519.5L60.5 506M60.5 506L68.5 492M60.5 506H44" stroke="#C89263"></path><path d="M138.5 519.5L130.5 506M130.5 506L138.5 492M130.5 506H114" stroke="#C89263"></path><path d="M6 519.5L14 506M14 506L6 492M14 506H30.5" stroke="#C89263"></path><path d="M76 519.5L84 506M84 506L76 492M84 506H100.5" stroke="#C89263"></path><path d="M34 592L26 605.5M26 605.5L34 619.5M26 605.5H9.5" stroke="#C89263"></path><path d="M104 592L96 605.5M96 605.5L104 619.5M96 605.5H79.5" stroke="#C89263"></path><path d="M68.5 611L60.5 624.5M60.5 624.5L68.5 638.5M60.5 624.5H44" stroke="#C89263"></path><path d="M138.5 611L130.5 624.5M130.5 624.5L138.5 638.5M130.5 624.5H114" stroke="#C89263"></path><path d="M33.5 552L25.5 565.5M25.5 565.5L33.5 579.5M25.5 565.5H9" stroke="#C89263"></path><path d="M103.5 552L95.5 565.5M95.5 565.5L103.5 579.5M95.5 565.5H79" stroke="#C89263"></path><path d="M41 592L49 605.5M49 605.5L41 619.5M49 605.5H65.5" stroke="#C89263"></path><path d="M77 611L85 624.5M85 624.5L77 638.5M85 624.5H101.5" stroke="#C89263"></path><path d="M6 612L14 625.5M14 625.5L6 639.5M14 625.5H30.5" stroke="#C89263"></path><path d="M111 592L119 605.5M119 605.5L111 619.5M119 605.5H135.5" stroke="#C89263"></path><path d="M41 552L49 565.5M49 565.5L41 579.5M49 565.5H65.5" stroke="#C89263"></path><path d="M111 552L119 565.5M119 565.5L111 579.5M119 565.5H135.5" stroke="#C89263"></path><path d="M68.5 599.5L60.5 586M60.5 586L68.5 572M60.5 586H44" stroke="#C89263"></path><path d="M138.5 599.5L130.5 586M130.5 586L138.5 572M130.5 586H114" stroke="#C89263"></path><path d="M6 599.5L14 586M14 586L6 572M14 586H30.5" stroke="#C89263"></path><path d="M76 599.5L84 586M84 586L76 572M84 586H100.5" stroke="#C89263"></path><path d="M34 672L26 685.5M26 685.5L34 699.5M26 685.5H9.5" stroke="#C89263"></path><path d="M104 672L96 685.5M96 685.5L104 699.5M96 685.5H79.5" stroke="#C89263"></path><path d="M68.5 691L60.5 704.5M60.5 704.5L68.5 718.5M60.5 704.5H44" stroke="#C89263"></path><path d="M138.5 691L130.5 704.5M130.5 704.5L138.5 718.5M130.5 704.5H114" stroke="#C89263"></path><path d="M33.5 632L25.5 645.5M25.5 645.5L33.5 659.5M25.5 645.5H9" stroke="#C89263"></path><path d="M103.5 632L95.5 645.5M95.5 645.5L103.5 659.5M95.5 645.5H79" stroke="#C89263"></path><path d="M41 672L49 685.5M49 685.5L41 699.5M49 685.5H65.5" stroke="#C89263"></path><path d="M77 691L85 704.5M85 704.5L77 718.5M85 704.5H101.5" stroke="#C89263"></path><path d="M6 692L14 705.5M14 705.5L6 719.5M14 705.5H30.5" stroke="#C89263"></path><path d="M111 672L119 685.5M119 685.5L111 699.5M119 685.5H135.5" stroke="#C89263"></path><path d="M41 632L49 645.5M49 645.5L41 659.5M49 645.5H65.5" stroke="#C89263"></path><path d="M111 632L119 645.5M119 645.5L111 659.5M119 645.5H135.5" stroke="#C89263"></path><path d="M68.5 679.5L60.5 666M60.5 666L68.5 652M60.5 666H44" stroke="#C89263"></path><path d="M138.5 679.5L130.5 666M130.5 666L138.5 652M130.5 666H114" stroke="#C89263"></path><path d="M6 679.5L14 666M14 666L6 652M14 666H30.5" stroke="#C89263"></path><path d="M76 679.5L84 666M84 666L76 652M84 666H100.5" stroke="#C89263"></path><path d="M169 -8V723" class="path_line" stroke="#C89263" stroke-width="10"></path><path d="M5 -8V723" class="path_line" stroke="#C89263" stroke-width="10"></path></g><defs><clipPath id="clip0_6_566"><rect width="174" height="700" fill="white"></rect></clipPath></defs></svg>