<svg id="Layer_1" data-name="Layer 1" xmlns="http://www.w3.org/2000/svg" viewBox="0 0 200 187"><defs><style>.cls-1{fill:#0d354f;}.cls-2,.cls-3{fill:#fff;}.cls-3{fill-rule:evenodd;}.cls-4,.cls-5{fill:none;stroke:#fff;stroke-miterlimit:10;}.cls-5{stroke-dasharray:4.03 2.01;}</style></defs><path class="cls-1" d="M1157,727s-56,35-100,35c-50,0-100-35-100-35V575h200Z" transform="translate(-957 -575)"/><path class="cls-2" d="M1013.94,617.82l.08.08.07.08.07.09.1.15.06.09,0,.14,0,.1,0,.15v.11l0,.16v.24l0,.11,0,.11,0,.11-.06.16-.05.11,0,.11,0,.1-.08.14-.07.08-.06.08-.08.08-.12.14-.43.4-.09.07-.08.09-.08.09-.05.07,0,0,0,.07.3.36.08.08.15.15.06.08.1.12,0,.06v0l0,0,0,.06-.16.16-.2.18-.09.08-.15.16-.09.07-.12.1-.08,0h-.06l-.07,0-.08-.06-.08-.08-.51-.54-.23-.29-.08-.08-.27-.25-.08-.09-.59-.61-.07-.08-.24-.29-.08-.08-.27-.26-.07-.08-.23-.29-.07-.07-.16-.15-.06-.08,0,0,0-.07v-.09l.05-.06.14-.15.12-.1.08-.07.33-.33.34-.32.36-.29.34-.32.18-.19.08-.06,0,0,.09-.06.14-.08.11-.05.11,0,.11,0,.12,0h.62l.11,0h0l.1,0h.05l.09,0,.09.05.09,0,0,0,.09.06,0,0,.08,0,.17.11Zm-1.05,1.93.08-.1.07-.1,0,0,0-.11v-.2l0-.1,0-.05,0-.1,0,0-.12-.13-.09-.06,0,0-.09,0h-.23l-.11,0-.17.09-.09.07-.12.11-.14.15-.24.19-.07.07,0,0,0,.06v0l0,0,0,.07.11.12.19.18.08.07.29.29.06.06.05,0,.07,0,.29-.23Z" transform="translate(-957 -575)"/><path class="cls-2" d="M1021.64,615.85l-.06.08-.39.29-.31.23-.09.07-.24.2-.07,0-.07,0h-.08l-.37-.12-.1,0-.36-.11-.1,0-.34-.14-.1,0-.36-.11h-.12l-.07,0-.19.12-.07.06,0,.07,0,.09.22.31.07.09.26.29.07.09.11.12.07.09.06.1,0,.07v0l0,.06-.09.07-.28.19-.24.21-.09.06-.27.18-.07,0h-.05l-.06,0-.06-.07-.07-.08-.1-.15-.06-.1-.2-.31-.07-.09-.25-.29-.07-.09-.23-.29-.06-.09-.21-.31-.07-.09-.24-.29-.07-.08-.21-.32-.07-.09-.21-.3-.07-.09-.23-.3-.06-.09-.15-.17-.06-.09,0,0,0-.08v-.07l.06-.07,0,0,.07-.07.26-.17.68-.48.37-.31.08-.07.39-.25.21-.16.1-.07.1,0,.14-.06.1,0,.11,0,.11,0,.12,0h.46l.11,0,.16,0,.1,0,.15.06.1,0,.1.05.1.07.08.08.07.08.11.12.06.08.06.1.06.1.06.11,0,.1,0,.11,0,.12v.43l0,.16,0,.09-.06.15,0,.09,0,.09-.06.07,0,0,.05,0,.42.13.1,0,.4.12.11,0,.41.13.11,0,.32.07.1,0,.07,0Zm-3.2-1,0-.09,0-.09v-.11l0-.11,0-.1-.06-.1-.07-.09-.09-.08-.08-.07-.1,0-.1,0h-.1l-.11,0-.14.06-.1.06-.28.2-.09.07-.27.23-.06.06,0,0v.06l0,.07.1.12.08.08.09.09.07.09.22.31,0,.06,0,0h0l.08,0,.3-.19.09-.07.35-.3Z" transform="translate(-957 -575)"/><path class="cls-2" d="M1026.66,612l0,.1.17.33,0,.07v.1l-.77.49-.1.06-.33.16-.09.07-.3.21-.09.06-.41.25-.33.16-.09.06-.5.34-.21.1-.08,0h-.06l0,0,0-.06-.1-.13-.06-.09,0-.09,0-.09-.17-.33-.06-.1-.18-.32-.06-.09-.21-.31-.07-.09-.18-.33-.3-.51-.17-.33-.06-.09-.21-.31-.06-.09-.09-.15-.09-.18-.06-.09-.17-.32,0-.09v-.1l0,0,.07-.05.4-.21.36-.23.1-.06.37-.19.1-.05.34-.24.1-.06.82-.48.1-.06.19-.14.15-.09.09,0h.06l0,0,.06.07.1.16.08.16.06.1.09.14.06.09,0,.09,0,.08v.1l-.07.06,0,0-.1.07-.57.32-.09.06-.3.19-.1.06-.31.18-.28.14-.09,0,0,0-.05.05v.08l0,.08.08.15.05.09.07.1,0,.06,0,0h0l.08,0,.2-.1.18-.13.57-.34.65-.44.19-.09.08,0h.05l0,0,0,.06.08.1.06.1.12.19.1.13.09.19,0,.08V611l0,0,0,.05-.12.07-.29.13-.1.05-.46.32-.39.22-.09,0-.25.13-.1.07-.07,0,0,0v0l.05.1.07.16.05.1.08.13,0,0,0,0h0l.07,0,.34-.18.09-.06.31-.22.44-.23.1-.06.41-.27.09-.06.09-.05.23-.1h0l0,0,0,.06Z" transform="translate(-957 -575)"/><path class="cls-2" d="M1034,608.47l.06.1.11.19.05.09,0,0,0,.07V609l0,.05-.07,0-.09,0-.1.05-.26.09-.11,0-.16.07-.12,0-.25.08h0l0,0,0-.06-.05-.08,0-.09-.08-.23-.27-.59-.2-.39,0-.1-.15-.41-.22-.5,0-.07h-.09l0,.08,0,.12-.13.42-.18.64-.11.43,0,.08,0,0-.05,0-.07,0-.09,0-.09,0-.49-.24-.38-.2-.1-.05-.49-.22-.12,0,0,0v.08l.17.41,0,.1.21.39,0,.1.2.39,0,.1.17.4,0,.1.09.18,0,.11,0,.11,0,.09v0l0,0-.16.09-.09.06-.26.09-.1.05-.29.16-.15.07-.08,0-.06,0,0,0,0-.06-.07-.14-.07-.2-.44-1-.17-.33,0-.1-.15-.34-.05-.1-.18-.34,0-.1-.14-.34,0-.11-.17-.32,0-.11-.13-.34,0-.11-.13-.22,0-.1,0-.09v-.05l0,0,.05,0,.08,0,.11,0,.15,0,.11-.05.18-.1.11-.07.09,0,.24-.1.09,0h.08l.09.05.34.14.1.06.3.17.1.06.32.15.11.06.31.16.09,0h.07l.07,0,0-.06,0-.09.07-.34,0-.12.09-.34,0-.11.11-.35,0-.11.07-.27,0-.1,0-.07.05-.06.08,0,.35-.13.3-.13.1,0,.19-.1.11,0,.08,0h.05l0,0,0,0,0,.08.1.3,0,.1.16.33.05.1.15.34,0,.1.16.34,0,.1.18.33,0,.1.13.35,0,.1.18.33,0,.1.13.35,0,.1Z" transform="translate(-957 -575)"/><path class="cls-2" d="M1037.74,606.64l0,.11.09.36,0,.11.12.36,0,.08v0l0,0-.1,0-.33.11-.41.14-.34.09h0l0,0,0-.06-.07-.16,0-.11,0-.1,0-.1-.14-.35,0-.1-.1-.37,0-.11-.14-.35,0-.11-.12-.35-.2-.57-.13-.36,0-.11-.12-.36-.19-.56-.14-.36v-.08l0,0,.06,0,.06,0,.09,0,.16,0,.11,0,.3-.12.41-.14h.08l0,0,0,.07.08.17,0,.11.22.64.13.36,0,.1.12.37,0,.11.13.35,0,.11.11.36.19.57Z" transform="translate(-957 -575)"/><path class="cls-2" d="M1044.52,603.39l.06.21,0,.1,0,.16v.66l0,.15v.11l0,.15,0,.11-.06.16,0,.1-.06.11-.07.09-.11.15-.08.08-.11.11-.08.07-.12.1-.1.06-.13.09-.1.05-.15.07-.09.05-.21.06-.31.08-.16,0-.1,0-.39,0h-.35l-.12,0-.16,0-.12,0-.12,0-.21-.11-.09-.06-.12-.09-.08-.07-.15-.15-.09-.08-.07-.09-.08-.09-.06-.09,0-.09-.06-.1-.06-.14-.05-.11,0-.11-.07-.23,0-.11-.08-.41,0-.11-.11-.41,0-.11-.08-.42-.15-.63-.07-.21,0-.12,0-.11v-.12l0-.07.08,0,.22-.07.26,0,.11,0,.22-.06.11,0,.16,0h.09l.07,0,0,.08,0,.1,0,.1,0,.27,0,.1.12.41,0,.11.09.42,0,.1.08.42,0,.11.1.42,0,.1.05.17,0,.1.08.14.06.09.11.14.09.07.13.09.1,0,.17,0h.1l.18,0,.11,0,.17-.07.1-.05.11-.1.07-.07.09-.12,0-.1,0-.16,0-.11v-.24l0-.21,0-.1-.13-.41,0-.11L1043,603l0-.11-.09-.42,0-.11-.11-.41,0-.11-.09-.28,0-.17v-.1l0-.07.08,0,.14,0,.35,0,.11,0,.27-.09.11,0,.1,0h.09l.07,0,0,.08,0,.2,0,.1,0,.16,0,.11.13.42,0,.1.09.42,0,.11.07.43Z" transform="translate(-957 -575)"/><path class="cls-2" d="M1053.05,604l0,.11,0,.21,0,.11v.13l0,.06,0,0-.08,0-.1,0h-.51l-.17,0h-.44l0,0v-.06l0-.1,0-.1v-.24l-.08-.65-.07-.44,0-.11,0-.43-.06-.54,0-.08-.05,0h0l0,.07-.06.1-.25.37-.37.56-.23.38-.06.06,0,0h-.14l-.08,0-.09,0-.39-.38-.3-.31-.08-.07-.4-.36-.1-.08,0,0v.08l0,.43,0,.12.07.43,0,.11.06.43V604l.05.43v.1l0,.21v.32l0,0,0,0-.18,0-.11,0h-.27l-.11,0-.33.06-.16,0h-.08l-.05,0,0,0,0-.07,0-.16v-.21l-.13-1.07-.05-.36,0-.11,0-.37,0-.11-.07-.37v-.12l0-.36v-.12l-.07-.36v-.11l0-.37v-.11l-.06-.26v-.2l0-.05,0,0,.06,0,.08,0h.12l.16,0h.11l.21,0,.12,0,.1,0,.27,0h.09l.08,0,.08.06.27.25.08.08.23.26.08.08.26.24.08.09.25.25.08.07.06,0h.07l.06,0,.06-.07.17-.3.06-.11.19-.3.06-.09.21-.3.06-.1.15-.24,0-.09,0-.06.06,0h.09l.37,0,.33,0h.11l.21,0h.25l0,0,0,0v.51l.06.37v.11l0,.36v.12l0,.36v.11l.08.37v.49l0,.11.06.36v.11l0,.37v.11Z" transform="translate(-957 -575)"/><path class="cls-2" d="M1064.88,603.28v.11l0,.18,0,.11-.06.14,0,.09-.08.13-.06.09-.12.12-.09.07-.18.12-.09,0-.1,0-.11,0-.12,0-.1,0-.32,0h-.55l-.39,0-.6,0-.39-.05h-.6l-.26,0-.11,0-.1,0,0,0,0,0v-.17l0-.11v-.28l0-.37v-.59l0-.17,0-.31,0-.37v-.59l0-.37V601l0-.37v-1l0-.09.07,0h.22l.75,0,.61.08h.49l.38,0h.11l.4.06.12,0,.11,0,.26.1.1.06.13.07.09.07.11.11.06.08.09.13,0,.09.07.14,0,.1,0,.1,0,.12v.41l0,.12-.06.15,0,.1-.09.12-.08.08-.11.09-.06.05,0,0,0,.06.06.07.08.09.07.09.1.15,0,.11,0,.12,0,.06,0,.11,0,.12v.18Zm-1.59.23.06,0,0,0,.06-.1,0-.11v-.14l0-.1,0-.1,0,0-.09-.1-.11-.07-.1,0,0,0h-.53l-.41,0h-.23l-.06,0,0,0,0,.08v.39l0,.11v.22l0,0,0,0,.09,0,1,0h.24l.11,0Zm-1.44-2.35v.25l0,0,.06,0,.08,0h.52l.16,0,.23,0h.25l.08,0,.08,0,.05-.06,0-.06,0-.1v-.21l-.06-.09-.09-.08,0,0-.11,0h0l-.12,0h-.06l-.27,0H1062l0,0,0,.08,0,.17Z" transform="translate(-957 -575)"/><path class="cls-2" d="M1072.08,603.52l0,.22,0,.1,0,.16,0,.1-.06.16,0,.1-.06.15,0,.1-.08.14-.06.09-.08.13-.07.09-.11.12-.09.07-.1.08-.1.06-.16.08-.1,0-.15.05-.1,0-.15,0h-.11l-.16,0h-.38l-.21,0-.32,0-.15,0-.11,0-.36-.11-.11,0-.06,0-.1,0,0,0-.11-.06-.14-.1-.09-.08-.09-.09-.15-.18-.06-.09-.07-.13,0-.1-.08-.19,0-.11,0-.11,0-.12,0-.11v-.61l0-.23v-.11l.1-.42,0-.11.06-.42,0-.11.1-.41.11-.64,0-.22,0-.12,0-.11,0-.11.06-.05h.09l.23,0,.26.07.11,0,.23,0,.1,0,.15,0,.09,0,0,.07v.19l0,.1-.06.27,0,.11-.05.42,0,.11-.08.41,0,.11-.1.42,0,.11-.08.41,0,.12v.44l0,.11,0,.17.06.1.08.13.08.07.14.09.1,0,.18.05.11,0h.29l.14,0,.1,0,.13-.08.08-.06.1-.13.07-.1,0-.1,0-.11.07-.2,0-.11,0-.42,0-.11.1-.42,0-.11.09-.42,0-.11.07-.42v-.11l0-.29,0-.18.05-.09.07,0h.09l.15,0,.34.09.11,0,.28,0,.11,0,.1,0,.08,0,0,.06v.09l0,.2,0,.11,0,.15,0,.11-.06.43,0,.11-.09.41,0,.12-.11.41Z" transform="translate(-957 -575)"/><path class="cls-2" d="M1079.32,603.39l0,.1,0,.21,0,.1,0,.05,0,.08,0,0,0,0H1079l-.11,0-.19-.08-.11,0-.31-.07-.11,0-.16-.07-.1,0h-.12l0,0,0,.09-.14.38,0,.11-.09.41,0,.1-.14.39,0,.11-.11.4-.18.61-.13.39,0,.11-.06.31,0,.1-.05.08,0,0h-.09l-.12,0-.17-.07-.11,0-.3-.07-.11,0-.3-.1-.07,0,0,0v-.07l0-.12.11-.27,0-.11.14-.5.13-.4,0-.1.12-.4,0-.1.09-.41,0-.11.16-.51.1-.4,0-.09v-.06l-.06,0-.1,0-.22,0-.12,0-.18-.07-.11,0-.11,0-.16,0-.1,0-.05,0-.07,0,0,0,0-.05v-.11l0-.11.07-.2,0-.1.06-.26,0-.11,0-.08,0,0h.12l.15.05.24.09.11,0,.4.09.1,0,.39.15.1,0,.51.11.38.12.11,0,.5.15.5.14.22,0,.12,0,0,0,.07,0,0,0,0,.06v.13l0,.1Z" transform="translate(-957 -575)"/><path class="cls-2" d="M1084.58,609.58l-.07,0-.16,0-.1,0-.16,0-.1,0-.16,0h-.38l-.13,0-.11,0-.18,0-.24-.06-.11,0-.17-.05-.34-.14-.1,0-.11-.06-.1-.06-.1-.07-.08-.08-.26-.19-.12-.11-.07-.08-.09-.12-.05-.09-.06-.09-.07-.1-.11-.21,0-.11,0-.11,0-.13,0-.11v-.38l0-.31v-.15l0-.22,0-.1,0-.15,0-.1.05-.1,0-.11.11-.21,0-.1.06-.09.08-.13.07-.09.07-.08.07-.08.1-.11.08-.07.08-.08.1-.07.09-.07.1-.07.1-.06.11-.06.11,0,.11,0,.11,0,.1,0,.27-.05.1,0h.59l.24,0,.11,0,.12,0,.2.07.15,0,.09,0,.14.07.23.13.08.06.14.08.2.16.07.08.11.14.07.09.12.18.14.23,0,.08,0,0,0,.06v.06l0,0-.06,0-.09,0-.1,0-.09,0-.1,0-.1,0-.16.08-.1,0,0,0-.08,0h-.1l0,0-.06-.07-.08-.14-.06-.08-.12-.12-.08-.07-.12-.1-.09-.06-.16-.08-.1,0-.15,0h-.11l-.16,0h-.37l-.11,0-.06,0-.12,0-.09.07-.08.06-.08.07-.08.08-.08.09-.06.1-.05.09-.1.19,0,.11-.06.16,0,.1,0,.16v.36l0,.18,0,.1.08.16.06.09.1.12.08.08.12.09.1.07.15.07.15.06.1,0h.69l.15,0,.11,0,.09,0h0l0,0,.06.07,0,.1v0l0,.09.05.18,0,.1.09.27,0,.1,0,.05v.07Z" transform="translate(-957 -575)"/><path class="cls-2" d="M1090.72,612.78l0,.1-.07.16,0,.09-.06.09-.07.06-.07,0-.07,0-.1,0-.32-.2-.1-.06-.34-.15-.09-.05-.08-.07v-.07l0-.09.19-.41,0-.1.23-.39,0-.1.2-.4,0-.08V611l0-.07-.15-.08-.25-.11-.1,0-.48-.28-.32-.2-.09,0h-.06l-.06,0-.06.08-.2.39-.06.1-.23.39,0,.1-.12.28-.07.14-.07.07-.09,0-.09,0-.09,0-.09-.06-.24-.16-.1-.06-.29-.14-.1-.06,0,0-.06-.05,0,0v0l0-.08,0-.05,0-.1.12-.18.28-.51.19-.32.05-.1.19-.32.05-.09.16-.34,0-.09.17-.33.24-.42.06-.1.19-.31.06-.09.17-.33,0-.1.09-.23.07-.13.06-.05.08,0,.09,0,.09,0,.09,0,.25.16.1.05.26.12.09,0,.09.06.07,0,0,.08,0,.09,0,.05,0,.09-.17.26-.06.1-.22.39-.28.5,0,.08v.1l.06,0,.09.05.08,0,.25.09.1,0,.38.23.35.22.09,0,0,0h.08l0,0,0-.06.24-.38,0-.1.21-.4,0-.1.22-.4.07-.09.08,0,.08,0,.09,0,.32.2.1.06.29.13.09.06,0,0,.08.06,0,.07,0,.1,0,.09-.16.24-.06.09-.15.33-.06.1-.19.32,0,.1-.16.33-.05.1-.2.31-.06.1-.19.32-.05.09-.17.33-.06.1-.18.32Z" transform="translate(-957 -575)"/><path class="cls-2" d="M1096.35,616.52l-.07.09-.24.29,0,.06,0,0h0l-.77-.5-.09-.06-.29-.24-.09-.06-.31-.18-.1-.06-.39-.27-.28-.23-.09-.07L1093,615l-.18-.15-.06-.06,0-.06v-.05l0-.07.08-.14.06-.09.07-.09.06-.08.23-.29.06-.09.22-.3.06-.09.2-.32,0-.09.23-.3.34-.49.23-.28.06-.1.2-.31.06-.1.09-.14.13-.16.06-.09.23-.28.06-.08,0,0h0l.05,0,.09,0,.35.29.35.23.09.07.33.26.09.07.36.21.09.07.77.55.1.06.21.12.14.1.07.08v.1l0,.08-.1.15-.11.14-.07.09-.1.15,0,.09-.07.08-.06.06,0,0h0l-.08,0,0,0-.1-.06-.53-.39-.09-.06-.3-.19-.09-.07-.29-.21-.24-.2-.09-.06-.05,0-.06,0h0l0,0-.06.06-.1.13-.07.09-.06.1,0,.07,0,0v0l0,.06.17.14.19.11.55.38.66.42.17.13,0,.06,0,0v0l0,.06-.06.11-.06.1-.13.19-.08.14-.13.16-.06.06-.05,0h-.06l-.07,0-.11-.08-.24-.21-.08-.07-.48-.29-.36-.27-.09-.06-.22-.18-.1-.06-.07,0h0l0,0-.07.08-.12.13-.07.09-.09.13,0,.06v.09l.06,0,.3.23.09.06.33.2.39.3.09.07.42.26.08.06.09.06.18.17,0,0v0l0,.07Z" transform="translate(-957 -575)"/><path class="cls-2" d="M1101.42,621.57l-.09,0-.37-.32-.28-.26-.09-.07-.24-.2-.07-.06,0-.06v-.08l0-.38V620l0-.37v-.1l.06-.37V619l0-.37v-.08l0,0-.06-.06-.16-.16-.07-.05h-.07l-.08.06-.26.28-.07.09-.23.31-.07.09-.11.13-.07.09-.08.08-.06.05h0l-.07,0-.09-.08-.24-.23-.25-.19-.09-.08-.23-.22,0-.07v0l0-.06.06-.08.06-.08.13-.13.08-.08.27-.27.07-.08.24-.3.06-.09.24-.28.07-.09.27-.27.07-.08.23-.3.07-.08.27-.27.07-.09.25-.27.08-.08.24-.29.07-.08.14-.19.08-.07,0,0,.08-.05.06,0,.08,0,.05,0,.08.07.23.21.61.57.37.29.09.07.33.33.2.17.08.08.07.09.08.13,0,.09.06.1,0,.11,0,.1,0,.1,0,.16,0,.09V618l0,.11,0,.16,0,.1,0,.11,0,.11-.05.1-.07.09-.09.12-.08.09-.07.08-.09.08-.1.07-.09.07-.1.05-.11,0-.11,0-.11,0-.1,0-.1,0h-.26l-.15,0h-.1l-.1,0-.08,0,0,0,0,.06,0,.43V620l0,.42v.11l0,.43v.54l0,.08Zm.3-3.34.09,0h.2l.11,0,.09-.07.08-.08.08-.09.06-.1,0-.1,0-.11v-.1l0-.1,0-.09-.1-.13-.07-.09-.26-.23-.08-.07-.29-.22-.06,0-.06,0h0l-.06,0-.1.13-.06.09-.07.1-.07.09-.26.28,0,.06,0,0,0,0,.05.07.26.26.08.07.37.28Z" transform="translate(-957 -575)"/><path class="cls-2" d="M1001.07,667.71h-.6l-.57-.09-.18-.05-.05-.16-.09-.56v-.57l0-.56.07-.57,0-.14,0-.07.11-.07.1,0,.47,0h.47l.14,0,.09,0,.07-.1v-.75l-.06-.68v-.68l0-1.36,0-.68,0-.12-.08-.07h-.14l-.11,0-.47.54-.49.54-.45.58-.45.55-.42.58-.47.56-.14.08h-.17l-.12-.07-.09-.07-.4-.38-.4-.42-.32-.47L996,662l-.38-.4-.38-.42-.3-.48-.19-.33-.1-.16-.09,0-.11,0-.1.05,0,.07,0,.73,0,.72v1.44l0,.71,0,.74,0,.1,0,.09.08.05.11,0h.49l.22,0,.26,0,.09,0,.09.07,0,.2.07.55,0,.56.06.57,0,.58,0,.14,0,.07-.09.08-.1,0-.59,0-.61,0-.59-.09-.59-.07-.6.09-.59.07-1.2-.14-.57,0-.6,0-.22-.05-.07,0,0-.1,0-.3,0-.28.09-.57-.09-.57,0-.34,0-.22.11-.18.21-.07,1.09,0,.11-.12v-.19l0-.65,0-.64V662l0-.63.05-.64,0-.65-.06-.64,0-.63,0-.64V658l0-.09-.09,0-.21,0-.29,0L990,658h-.27l-.07,0-.11-.07,0-.09,0-.1,0-.31,0-.27.07-.55-.07-.58,0-.24,0-.33.08-.18.11,0,.1,0,.4,0,.18,0,.61,0,.59,0h1.78l.61,0h.59l.1.06.09.12.38.43.35.46.66,1,.4.44.4.41.19.3.13.21.38.42.07.05.1,0,.11,0,.08-.07.44-.38.36-.46.7-.94.77-.9.31-.51.18-.27.15-.2.11-.1.14,0,.59,0,.59,0,.59,0,.59,0,1.2,0,.6-.08.29,0,.32,0,.08,0,.14.07.07.11,0,.1,0,.58-.05.59,0,.55-.1.56v.05l-.06.11-.08,0-.09,0-.45.07-.45.05-.21,0-.07.07,0,.11,0,.62.06.65.07,1.29,0,.64,0,.63,0,.64,0,.65V664l.09.63.05.15.11,0,.08,0,.91.1.12,0,.09,0,.07.07,0,.11,0,.56v1.47l0,.25,0,.12-.06.09-.07,0-.13.07-.3,0h-.3l-.61-.06-1.18,0-.59,0-.59-.07-.6,0Zm-4.27-1.6.07.56,0,.56,0,1.15,0,.14,0,.06-.09.09-.1,0-.52,0-.61,0-.6-.09-.59,0-.59,0-.59.07-.59-.07-1.19,0-.59,0-.22-.05-.07,0,0-.1,0-.3.57-.05.56.07.64.07.65-.07.54-.09.53.07.6.07.66.05.59,0h.17l.16,0,.11,0,.12-.11,0-.15.07-.18v-.14l0-.1v-.56l-.05-.61,0-.45.26,0,.09,0,.08.07ZM992,660.44l0,0-.07,0v0l0,0h0Zm.09-2.35,0,0h0v0h0l0,0h.06Zm.28,2.23,0-.07-.07-.06-.05-.05,0-.1,0-.09,0,0h0v.14l.09.1.05,0v.12l0,0,0,0,0,0Zm.26.52-.07-.05v-.06l0-.05-.07.05v.11l0,0v.05l.11,0,.07,0Zm-.09.92-.09,0,0,.09h0l0,0,.07,0Zm.24-3.06,0-.07-.07,0-.07,0h-.07v.07l0,.1.07.09,0,.05,0,0,0-.05,0-.06,0-.1Zm-.22-.77V658l0-.05,0-.07Zm.87.47-.07-.07h-.07l0,0,0,0,0,.05.06,0Zm0,1.34,0,0,0,0h-.05v.09l.05,0h0Zm.64-1.58,0-.09h0l0,0h-.17l-.09.16.12,0,.11,0,0,0h0Zm-.1.64,0,0h0l-.08.05V659l0,0,0,0,.06,0,0-.07,0,0,0,0,0,0Zm.1-1.9,0,0h-.07l0,.09,0,.07h.07l0,0,0,0Zm.12.72,0,0,0,0v.07l0,0h0Zm.07-.16.07.09v-.13l.05,0,0,0h-.05l0,0Zm.07.45.05.16,0-.17,0-.11-.05,0,0,0Zm.16.82,0-.1,0,0-.06,0-.07.07v.11Zm.17.23,0-.09-.1,0v.1l0,0,0,0Zm-.14-.72,0,0v0l0,0h0l0,0,0,0-.05,0Zm.3.59.05.2.19.07-.08-.16-.13-.12,0-.12-.1-.09v.1l0,.09Zm-.07-.36.07.07.1,0,.2,0,.22,0-.24-.13-.23,0-.1,0Zm.1,4.72v-2l.1.19.05.07.3.38V662l0,.71v1.45l0,.29h-.06l-.17,0-.23,0,0-.58Zm0-5.05,0,0h0v0l0,0h-.09Zm0,1.11.05.07.1.07,0-.1-.07-.07h-.05Zm.24.54-.09-.08.07-.06.06-.07,0-.05,0-.07-.32,0,0,.07,0,.07,0,.1Zm.38.18,0-.07v-.11l-.09-.08-.09,0,0,.09,0,0,0,.05H995l0,.06,0,0,0,0,.15,0h.14Zm-.26-.7h0l0,0,0,0,0,0h.05l0,0Zm.13-.49,0,.09V659l.1-.14-.24-.21v.14Zm-.09-.59v.09l.06,0h.07l0-.07,0-.07-.05,0-.08,0Zm.14-.24v0l.06,0h.05l0,0v-.05l-.07,0h-.07Zm.14,1.67.07,0,.07,0,.15.06.14,0v-.07l-.12,0-.12,0-.09-.05-.1,0-.09,0,0,0v.12l.07,0Zm.1-.71,0,.13.12-.15-.09-.21,0,0h0l-.13,0,0,.08,0,0v0Zm0,.29v0l0,0,0,.07,0,.09.05-.07Zm.11.78.08-.06,0-.11,0,0,0,0-.07,0,0,.09,0,0,0,0-.09,0V660h.09l.07-.07Zm-.16-1.44,0,.05h.05l.24.07v0l-.1-.07-.09-.07,0,0-.05,0,0,0Zm.87,1,0-.09,0-.05h-.09l0,0,0-.06.07-.08.07-.13.07-.05,0-.1.07-.07.05-.09-.15-.16-.19-.1,0,.16.07.1,0,.11,0,.1v.09l-.17.14H996l-.16.07-.19-.07,0,.1.06.16h.24v-.11l.1,0,.09.1,0,.13Zm-.21.73-.17,0-.18,0v-.07h-.07l0,0,0,.06,0,.08.05.05-.05.09,0,.09.09.07.09,0,0-.07,0-.09.07-.11,0-.07Zm-.28-.25,0,.06,0,.07h0l0,0,.06,0v0l-.07,0Zm0-1.32,0,.09v.09l0,.13h.12l.11-.18-.12-.19-.13,0Zm.43,1.83-.05,0-.07,0,0,0,0,0,0,0h.08Zm.47.05.09,0,.09,0-.09-.14-.1,0-.14.17-.18.07-.08,0,0,.11.05,0,.07,0,.12-.11.14-.1,0,0Zm-.24-1.22,0,0v0h0l0,.06,0,0,0,0,0,0Zm.07.19-.07-.05-.05,0,0,0v0l.07,0,.09,0,0,0Zm0,1.76,0,0-.07,0v0l0,0,0,0,0,0Zm.4-.14,0-.1,0-.09,0-.09,0-.08-.14.17.12.16,0,0Zm.24-.87,0-.05,0,0h-.07l0,.07,0,.08.06,0,.06,0Zm-.07,1.17v0h0l0,0,0,0v.05h.05l0,0Zm.25-.63,0,0h-.09v0l0,0,.05,0h0Zm.21,1,0-.08-.11-.07,0,.1,0,.07h0Zm.31-1.14,0,0h0l0,.05v.06l0,0h0l0-.05Zm1.83,2.15-.42.58-.84.92-.14.09h-.17l-.12-.07-.09-.07,0-.05,0,0,.09-.07.22-.16.45-.55.44-.6.9-1.11.47-.54.11-.12v.1l0,.68-.37.44Zm.5,3.14,0,0,0,0-.09,0,0,.07,0,.06h.09Zm.33-.56-.1,0-.05,0-.06,0,0,0,0,0,.09,0Zm6.41,1.2,0,.58,0,.57,0,.33,0,.21,0,.12,0,.09-.07.05-.14.07-.24,0-.3,0-.61,0-1.18,0-.59-.06-.6-.07-.59,0-.61,0-.59,0-.57-.08-.18-.05,0-.16,0-.24h.48l.62,0,.56,0,1.18.11,1.19,0,.59,0,.31,0,.51,0,.24,0,.18-.09.1-.1.05-.16,0-.57,0-.35,0-.59,0-.44.18,0,.07,0,.08,0,.07.07,0,.11Zm-5.83-1.06,0,.14.16,0-.06-.08v-.18h-.09l0,.07Zm.29,1.31h.07l0,0h-.06Zm.12-4.51,0,.08,0-.08v-.07l0,0,0,0Zm.07,3.57,0,.1,0,.05.07,0v0l0,0-.05-.07Zm0-5,0,0h.06l0-.06Zm.1,1,0,0,0,0v0l0,0,0,.11.07.07h0l0-.06.05-.05v-.09l0,0,0,0Zm1.38,2.25,0,0v0h0l0-.06,0,0V664h0l0-.09v-.17l.1,0,0-.09,0-.1h0l0,0,0-.09-.07,0v-.1l0,0,0-.07,0,0,0,0,0,.05,0,.08-.1-.08-.12,0v.14l.07.09.07.07v.09l-.12-.07-.1-.13,0-.08,0-.11-.06-.07-.07,0h0l-.14,0-.09.14,0,.11.1.1,0,.11h0l0,0-.14-.11,0,0-.05,0h-.07l-.07,0h-.12l-.13-.09v0l0,0v-.07l0-.07,0-.05.05.05h0l0,0v0l0,0-.06,0h0l0,0,0-.07,0,0v0l0,0,0,0H1002l0-.06,0,0,0,0,0,0v0l0,0,0,.21,0,.19,0,.07v.09h.06l0,.05,0,0,0,0h0v.06l-.07.1-.06.1.09,0,.09-.17.07,0,.07-.1h.22l.06.1.1,0v0l.16,0,.1,0,0-.07,0-.09h0l.08,0,.11,0,.08.07,0,.14H1003l0,0h0l0,0,0,.07,0,0,0,.07.06.07,0,.07h0v.07l-.06,0-.05,0H1003l-.07.06,0,0,0,0-.09-.12-.12,0,0,.1-.05.09v.08l.07.08.07,0,0-.09,0,0v-.06h.07l0,.07,0,0,0,0h.09l.09,0,.08,0,.11,0v0l0-.06Zm-1.38-1.59v-.1h.12l.08,0-.18-.14,0,0v.07l0,.08Zm.23,2.8H1002l-.07,0-.05,0h0l0,0,.07.05.07,0h.05Zm-.12,1.92,0,0h-.05l0,0,0,0h0Zm.14-3.19h.08l.06,0,.07,0-.11-.07-.07-.1,0-.05,0,0,0,0v.05l0,.07V664l-.07,0,0,.07,0,.07,0,.07.05,0Zm0,.73h0l0,0,0,0h0Zm0-4.12,0,.14.07.14,0-.14v-.12l0-.09v-.11l-.06.07v.11Zm0,1.13h.09v-.07l-.05,0,0,0Zm.09-.31-.07.05.09,0,.07,0v0l0,0Zm.3,4.91-.07,0,0,0h-.19l-.05.05v0l0,.07,0,0h0v0h0l0,0,0,0,.08,0,.06,0,0,0,0-.05,0,0v0l0,0Zm.12-1.92-.07-.07-.07,0-.09,0,0,0-.07,0h-.07l-.05,0,0,0,0,0h.28l0,0,0,.05,0,0Zm-.35-.3h-.07v.09h0l0,0Zm.07,1,0,0h-.05l0,0,0,0h0l0,0Zm0,.31h0l0,0h0v0l.07.07,0,0Zm0-3.26,0,0,0,.05v0l0,0v-.07l0,0Zm.12.84-.05,0,0,0,0,0,0,0,0,0h0l0,0Zm-.09-1,0,.12v-.1l0-.16Zm.17,2.65-.15,0,0,.14,0,.05,0,0,.05-.07v-.09l0,0Zm-.06-3.35v0l0,0,0,0v0l0,0v0Zm0-.2.09-.07,0-.09,0,0h0l0,.07Zm.33.67-.07-.19-.08-.14h-.09l-.07.08v.07l.07,0,.1.07Zm-.29-1,0,0,0,0,0-.07,0,0v.06Zm.07,1.55-.06,0v.09l.07,0,0,0Zm0-2.12,0,.05v0l.06,0v-.1l0-.05,0,0Zm.1,1.85,0-.25,0,.09.07.09-.09.08Zm0-.68,0,0,0,0v0h0l0,0v0l0,0Zm.12,1.22v.05l.07.1.09,0h0l0,0-.06-.07-.07,0-.07-.14,0-.05h0l0,0v0l0,0,0,0Zm-.05-1.78,0,.12,0-.1,0-.07Zm0,.19.1.07.09.09,0-.16Zm0,2.79.06,0,0,0v-.08l0,0h0v.09Zm.13.62-.06,0,0,0,0,.07v.06h0l0,0,0-.05Zm.1-2.09-.07-.12-.05,0,0,.12.07.07.07,0,0-.07.09,0v.1l0,.09.12.12.06,0v0l0,0v-.05l0,0h.08l.07,0h.07l0-.07.05,0,.07,0v-.17l-.07-.16-.05.11v.08l0,.09,0,.11h-.17l-.11-.1Zm0-.17,0-.17,0-.06h-.05l0,0v0l0,0,.11.14h0Zm0,1.22v0l0,0Zm.08-.45v0h0l0,0,0,0v0l.05-.06Zm0,2.12,0,0h0l0,.06h0l0,0h.05l0,0Zm-.07-3.48,0,.05,0,0h0v-.05l0,0,0,0h0Zm.16.28.14,0,0-.17,0,0,0-.07-.07,0v.07l0,.1Zm.1,3V665l.07,0,0-.09h0l0,0v-.05l-.07,0h-.09l0,.06Zm.23.74,0-.1,0,0,0-.05,0,0v0l0,0-.05,0,0,0,0,.07.07.14,0,.09,0,.09h0Zm-.14-4.35.07.06.14-.06v-.17l0-.09-.07,0,0,.06-.06,0Zm.19,2.65,0-.11,0,.07V664h0Zm.07-2.11,0,.05,0,.06.05,0h0l0,0h.07l.05-.06,0,0v0l-.07,0,0,0h0l0,0Zm0,2.18.07,0,0,0-.07,0,0,.07Zm.13,1.34,0,0,0,0,0,0,0,0h0l0,0Zm0-1,0,0h0v0l0,0h0Zm2.28-6.16.16-.07.07-.16.07-.14v-.05l.12-.63,0-.61,0-.54.1,0,.09,0,.14.07.07.1,0,.11,0,.57-.05.6,0,.55-.1.38v.06l-.06.1-.08,0h-.09l-.38.07-.46.06-.21.05-.07.07v.1l0,.8.05.65.07,1.29,0,.64,0,.63,0,.64,0,.65v.15l-.14,0-.35,0,0-.45v-.61l0-.63,0-.64,0-.63,0-.68-.06-1.29v0l0-1,.42,0,.45-.07h0l.08,0Z" transform="translate(-957 -575)"/><path class="cls-2" d="M1008.92,667.73l-.54,0-.39-.07h-.14l-.08,0-.07-.07,0-.1,0-.33,0-.48V666l0-.46.05-.33,0-.12,0-.09.05-.07.11,0,.26,0,.37.11.24,0,.1,0,.07,0,0-.09,0-.12,0-.38,0-.52,0-.77,0-.52v-2.06l0-.52,0-.76,0-.53,0-.38,0-.12L1009,658l-.09,0-.1,0-.24,0-.35,0-.25,0-.1,0-.07-.05,0,0,0-.11-.06-.33-.05-.45v-.66l0-.46,0-.33,0-.12,0-.1.05-.07.13,0,.38,0,.54.1.38,0h1.33l.64,0,.26,0h2.63l.77,0,.27,0,.65,0,.66,0h.66l.38,0,.54-.07.39,0,.1,0,.05.07,0,.09.1.73v1l0,.49v1l-.09.61,0,.12,0,.11-.07.07-.1,0-.32.05-.45,0-.33,0h-.31l-.44,0-.43-.07-.07-.05-.06,0,0-.11,0-.22,0-.32,0-.22v-.18l0-.08,0,0-.46,0-.64.07-.45,0-1.1,0h-.45l-.12,0-.07.07-.06.07v.52l0,.56,0,.4,0,.12,0,.09.07,0,.12,0,.35.05h.26l.25,0h.73l.24,0,.25,0,.48.07.11,0,.07.05,0,.11.05.33-.05.45,0,.35,0,.33,0,.45,0,.33,0,.13-.14.13-.12,0-.33,0-.47-.07-.35,0-.33,0-.23,0-.57,0h-.19l-.16.09-.12.14,0,.17,0,.37,0,.26,0,.25v.36l0,.09,0,.07.05.05.07,0,.47,0,.63,0h2l.09,0,.07,0h0l.05,0,.06-.28,0-.21,0-.21.06-.3,0-.1,0-.07.08,0h.12l.32,0,.43,0h.33l.54,0,.23,0,.33,0,.12,0,.09.07.05.09,0,.12,0,.37-.1.5,0,.38,0,.37,0,.49v.38l0,.37,0,.5,0,.37,0,.12-.06.08-.08.06-.13,0-.38,0h-.56l-.4,0h-3.06l-.56,0-.38,0-.4,0-.54,0h-.4l-.94,0h-.8l-.54,0Zm11,0,0,.26,0,.37,0,.12,0,.08-.08.06-.13,0-.38.05h-.56l-.4,0h-3.06l-.28,0-.66,0-.4,0-.54.05h-1.08l-1.06,0-.54,0h-.4l-.4,0h-.26l-.81-.1-.08,0-.07-.07,0-.1,0-.25H1011l.28,0h1.08l.56,0,.38,0,.63,0,.28,0,3.48,0h.63l.41,0,.16,0,.12-.05.09-.07.07-.05,0-.07,0-.09,0-.11,0-.17.06-.36,0-.34,0-.26v-.71l0-.52,0-.33,0-.32,0-.24,0-.07.24,0,.12,0,.09.07,0,.09,0,.12,0,.37-.1.5,0,.38,0,.37,0,.49v.38l0,.37Zm-10.33-9h.06l0-.05,0-.07,0-.09v.06l0,.07h0Zm.12,3.6v0l0,0,0,0v.06h.05Zm.14-3.15,0,.05h.09l0-.07,0-.07H1010l0,0,0,0ZM1010,658l0,.09h0v0l.18,0,.08-.14h-.1l-.09,0,0,0h0Zm.18,4,0-.06v.07l0,.06Zm0-4.55,0,0h0l.07,0,0-.07v-.06l0,0,0-.05v-.06l0,0,0,0,0,0,0,.07v.05l0,0,0,0Zm.24,7.35,0,0,0,0,0,0v0l0,0v0l0,0Zm.33-.26,0-.05-.09,0-.07,0,0-.11-.07-.07,0,0,0,0,0,.14.12.07h.07l0,.07v.06l0,0,.06,0,0,0Zm-.31-1.83-.05,0v.07l.08.1.11.07,0,0h0v-.05l0,0v-.12l0-.07,0-.07h-.09Zm.21-4.82,0,.05,0,0,.07,0,0-.06v0l0,0h-.07Zm.35,7.07,0,.08v0l0,.07,0,0,.11,0,.08-.05,0-.09-.07,0,0,0,0-.07Zm0-2.72,0,.05,0,0,.07,0,.05-.07-.1-.06-.07,0Zm.17-1.71,0,.07.07,0,0,0,0,0v-.09l-.05,0-.09,0Zm.07-2.83,0,0,0,0v0l.07,0,0,0h.09v-.07l0,0,0-.05,0-.07v0l0,0,0,0v.06l0,0v.05Zm0-1.15,0,0h.06l.07,0v-.05l0,0-.05,0,0,0,0,0Zm.1,9.43-.08.07,0,.09,0,0h0l0-.07Zm0-7.53v-.06l0,0,0,.07Zm.09,3.27,0,.19.08-.07.12,0h.09l0-.08-.07-.07h0Zm.17,1.88,0,0,0,0h-.05v.1h.06Zm.09-2.65.09.07,0-.14,0,0v0h-.05l0,.07Zm.12,1.67v0l.06-.07,0-.07h-.07l-.05.07v.11h0v.09l.07,0,0,0Zm0-4.28,0,0h0l0,0v0h-.07Zm.4-1,0,0,.1-.07.06-.12,0,0,0,0,.05,0,0,0,0,0h-.08l0,0,0,.09v.07l-.07.05Zm.4-.68.09,0,.07,0h0l0,0,0,0,0-.08-.07-.06-.07,0,0,.07Zm.16.57,0,0h-.07v0l0,0h.07Zm3.81,4.39-.07.8,0,.33,0,.23v.1h-.16l-.26.05-.17.09-.12.16-.09.22,0,.25-.07,0-.22,0-.35,0-.33,0h-.23l-.22,0-.35,0h-.21l-.18,0-.1.09,0,.15v.25l-.28,0H1013v-.19l0-.28,0-.22v-.34h.14l.33,0,.46,0,.29,0,.3,0,.21,0,.26,0h.08l.34,0,.19,0,.07,0,.14-.1.1-.11.12-.21,0-.17.05-.38,0-.79,0-.29,0-.13.19,0,.12,0,.11,0,.07,0,0,.11Zm-1.08-3.07,0,.18,0,.36-.21,0-.47,0h-1.08l-.12,0-.07.07,0,.07,0,.11v.33h-.28l-.24,0,0-.31,0-.51v-.29h.9l.47,0,.51,0,.33-.06h.36Zm-2.54,7.73,0,.06.07,0,0,0h.05l0-.06-.05,0Zm.33.51.07,0,.07,0,0,0h0l.13.07.14-.09-.14,0h-.13l-.09,0Zm.2-10.66.08,0,.07,0v-.06l-.07,0Zm.08,10.28,0,0h.07l0,0h0l0,0,0,0Zm.07-.23.07,0h.11l-.09,0Zm.12,1-.05,0,0,.05,0-.05Zm.06-.75h0l.09,0,0,0,.07,0-.07-.1-.09,0Zm0-1.07.05.09.06,0h0l0,0,.1,0,0-.07,0-.14h-.09l-.05,0h0Zm.14.67H1014l0,.16.07-.12.09-.09Zm.19.5h0l0,0,.05,0v0l0,0,0,0Zm.09-.24,0,0v0l0,0v0h0l0,0Zm.09.15.06.07h.09l0-.07.07-.12.08-.14-.08,0-.11,0-.14.11Zm0,.37,0,.07,0-.09,0-.07h0l0,0Zm.06-.91,0,0,0,0,.05,0,0,0v0l0,0Zm0-.26,0,.07h.12l.16.06,0-.14-.09,0-.08,0,0,0Zm.23,1.15h-.09l0,.07.05.05h0l0,0Zm-.06-1.65,0,0v0l0,.07,0,0,.07,0,0,0v0h0v-.07l-.06-.07h0Zm.37,1.88-.07,0,0,0-.09,0-.07,0,0,.07v.09l0,0,0,0h0l0,0,.1,0,.07-.09Zm-.19-.61.09-.07.1.1,0-.12-.1,0-.12,0Zm.26.23H1015l-.14,0,.14,0Zm-.23-.6,0,0,0,0h0l0,0,.08,0,.07-.06h-.12l-.08,0-.06,0Zm.14-.68.11.06h.08l.09,0,.11,0v.19l-.08.11,0,.12-.14.09,0,0,.11,0,.09-.08,0-.06-.05,0,0-.09h.1l.09,0,.07-.07,0-.07,0,0h-.05l0,0,0,0,0,0,0-.08,0-.09v-.07l-.07,0,0-.07,0-.07h-.16Zm.23,1.33,0,0h-.12v0Zm.22.47h-.08V667l0-.07,0,0,0,0-.07.1-.07.09,0,0h.07l.09,0Zm-.08.21-.07-.06-.09,0,0,0h.18Zm0-.91.07,0,0-.07,0,0,0,0Zm.4-.5-.07.05,0,.09-.09,0-.07,0,0,0v0l0,0h0l0,0v-.05l0,0,.07,0,.11-.05,0-.11v0Zm.05,1-.05,0V667h.06l0,0,.07,0,.21.05.19-.07.09,0h.07v0l0,0,0-.06h0l0,.07.07,0,.21.11,0-.09-.09,0-.09,0v-.07l-.06-.05-.07,0v-.24l.11,0,0-.11h0l0-.17-.05-.11-.09,0-.08,0v0l0-.09,0-.1.07-.11.14,0v.07l0,0V666h.06l.05,0,.07,0,.05,0,0-.05,0,0,0,0,0,0v0h.07l0,0,0,.06h0v.09l.06.05,0,0,0,0-.12.11,0,.14h.12l.09.06.08,0,.06-.07,0-.07-.07,0,0,0-.07,0,0-.07,0,0,0,0,0,0v-.09l0-.09,0-.08,0-.11,0,0h0l.06,0v-.07l-.07,0,0,.07h-.1l0,0-.1,0h-.16l0-.05v0l-.09-.06h-.1v-.06l0,0-.07,0,0,.09h-.11l0,0-.05,0v0l0,.06,0,.07.09,0-.07.11,0,.12.12,0,.09-.09.07-.05.1,0-.09.12-.1.13-.11,0-.08,0-.07.07,0,.07v0l0,.16.15.09.11,0,.09-.1.05,0,.07,0h0l0,.09,0,.07,0,.07.05,0v.07l0,.07,0,.12-.07.12,0,0,0,0h-.07l-.09,0-.05-.05.05-.06v-.08l0,0,0,0,0,.07,0,0,0,0,0,0-.05-.05,0,0,0,0,0,0Zm.09-1.11v0h.06l0,0-.07,0h0Zm.13.73.07,0,0,0v-.07l0,0,0,0,0,0Zm.7-.51,0,0,.05,0,0,0v0h-.11l0,0Zm0-.78.07,0h.07l0,0v0l0,0Zm.44,1.58,0-.05-.07,0,0,0v-.12l0,0-.07.1-.1.09-.05,0,0,0,0,0,.05,0,0,0h.07l0,0,.07,0,.07,0Zm-.3-1.23h0Zm1.79-5.8.21-.09.07-.07,0-.1,0-.17,0-.14v-.16l.09-.61v-.63l0-.62V656l.25,0,.1,0,0,.07,0,.09.1.73v1l0,.85v.37l0,.5-.06.3,0,.12,0,.1-.07.07-.1,0-.32.05H1018l-.44,0-.43-.07-.07,0,0-.05,0-.11-.05-.24h.43l.77.05.4-.05Zm-1.37,6.79,0,0h-.07l0,0v0l0,0,0,0Zm0-1.6,0,0h0l0,0,0,0h-.07Zm.16,1.65.05.06,0,0,0-.06v-.24l0-.07.07,0v-.07h-.1l-.07.07,0,.07,0,.08,0,.07,0,.07Zm0-.71,0,0,.07,0,.05,0,0,0,0-.06h-.11Zm.28.38,0,.16h.19l0,0-.07,0h-.09l0,0Zm.17.45,0,0h0v.07l0,0,0,0Zm.19-1.06,0,0,0,0h0l0,0v0l0,0h-.07Zm.12.77v.09h0l0,0v0l0,0Z" transform="translate(-957 -575)"/><path class="cls-2" d="M1030,667.63l-.09,0-.09,0-.09-.09,0-.09,0-.12,0-.87V666l0-.46,0-.15.09-.11.1,0,.19,0h.14l.14-.06.09-.1,0-.09,0-.1,0-.09v-.09l-.09-.22-.07-.21-.05-.11-.07-.08-.09-.07-.15,0-.67,0-.64,0-1.43-.11h0l-.61,0h-.59l-.17.07-.09.18-.08.24-.09.23v.12l0,.1.09.12.09.09.12,0h.33l.12,0,.12.07.09.14,0,.16V666l0,.45,0,.45v.44l0,.17-.1.12-.12.07-.14,0-1.36,0h-1.43l-1.44-.07-1.34,0-.11,0-.12,0-.1-.1,0-.2v-.5l0-.51,0-.52,0-.5,0-.18.1-.14.14-.07h.14l.87,0,.12,0,.09-.11.42-.94.28-.52.28-.56.24-.54.26-.54.24-.55.25-.54.26-.54.26-.56.23-.56.22-.61,0-.12-.07-.1-.17-.07h-.67l-.17-.05-.12-.13,0-.14,0-.08,0-.51,0-.52v-1l0-.19.12-.16.18,0,.6,0,.6,0,.62.05,1.22.07.61,0,1.24-.07h0l1.15,0,.12,0,.09,0,.07.07,0,.11.45,1.11.3.61.28.59.31.58.32.59.27.59.27.59.26.61.26.59.24.63.23.61.24.61.25.59.27.52.28.49.11.11.12,0h.4l.42,0,.1,0,.09.07.07.07.07.09,0,.07v.08l0,.52v1l0,.5,0,.09,0,.11-.07.07-.07,0-.09,0-.1,0-1.33,0-.69-.05-.73,0-.7,0-.71,0h0l-.66,0Zm-2.32-1.33,0-.08-.1-.14-.14-.14-.12,0-.16,0v.09l0,.47,0,.45v.45l0,.28v.16l-.09.17-.16.11-.14,0-.21,0-.15,0-1.38,0h-1.46l-1.41-.07h-.31v.37l.07.14.14,0,.14,0,1.34,0,1.45.07h1l1.36,0,.15-.06.11-.05.09-.12,0-.16v-.43l0-.45,0-.46Zm-3.81-3.77,0,0,0,.14,0,0,0,0v-.09l0,0Zm.31-1.08.1-.16.16-.1.07,0,.21.1.09.18.14.12v.11l0,.12.11,0,.07,0,0-.05,0-.14-.06-.09-.1,0-.09-.07.07-.13.07-.1,0-.12-.06-.09-.1,0,0,.07,0,.07,0,.07-.07,0-.12,0-.12,0-.11-.05-.07.08h-.1l-.1,0,0,.12,0,.11,0,.24Zm.1,1.11,0,0h-.07l-.05.07,0,.07,0,.07.09,0,.06-.07Zm.25-.92.1-.09,0-.12h-.23l-.13.19v.14l.14,0h0l0,0Zm-.12.54,0-.07,0-.12,0-.13h0l0,0,0,.12,0,.07v.07l0,.06,0,0h.11Zm-.13,1.74,0,0,0,0v0h0l0,0v0l0-.05Zm.06-.91h-.06v0l0,0h.07Zm0,.63,0,0h0l0,0,0,0,0,0,0-.05.11-.12-.16.05Zm.2-1-.09-.09-.07-.11v.3l0,.1,0,.09v0l.12.07.07,0,.07,0,0-.1-.09-.09Zm-.07-.47h.1l0-.05,0,0,.07-.14.06-.06.06,0-.22,0-.14.18,0,0h0l0,.07Zm.15,1h-.07l0,0,0,0,0,0v0Zm.09-2.3,0,0v-.07l0,0,0,0,0,0,0,0Zm0,1.42.17-.07-.17,0,0,0v.11l0,.15.12,0Zm.23-1.51,0,0,0-.09,0-.07h-.06l0,0,0,.07,0,0Zm.08,2v-.07l.14-.12v-.11l0-.12,0,.09,0,.07-.07.17-.09.09V663l.08-.07Zm0,.28,0,0,0,.05.11,0,.1,0-.09-.1Zm0-1.24v0h.12l.06-.08-.09,0Zm.23,1,0,0,0,0,.09.07.09,0v-.05l-.06,0Zm.1-1.26v.23l0,.09.09,0,0,0,0,0v-.07l-.06,0-.05-.06,0-.09,0-.16-.12-.14,0,0,0,0,0,.14Zm0-1.68,0-.09,0-.07-.06,0h-.07l0,.06,0,.06,0,.08Zm-.07,2.21,0,.1,0,0h0l0,0,0-.05,0,0Zm.14-3.12,0,0,0,0,0,0,0,0-.07,0,0,.05,0,0Zm-.07,3.53v0h0l0-.09,0-.12-.11.07Zm.1-1.08,0,0,.07,0,.11,0,0,0h0l0,.07.09,0,0-.09-.09,0,0,0-.09-.06-.1,0Zm.33.72,0,.05-.07,0-.09,0h-.07l-.07,0,0,.07,0,.07.09.14.07-.06,0-.07.09-.07,0-.13Zm.14-.3-.07-.14-.07,0,0,.07-.1,0,0,.11,0,.1h.08l.07,0,0,0,.06.06h.05l0,0,0-.07Zm-.21-.66.06-.05v0l-.06,0,0,0,0,0,0,.07.05.07Zm.33-1-.15-.09h-.06l0,0V660l-.06-.08-.08.14.05.1.24.07.14.14.09,0,.1,0,0-.07,0,0Zm-.29-.74h0l0,0v0l0,0,0,0v0Zm.42,1.38-.07.09-.07,0-.06,0-.1,0h-.09l.09.17,0,.18,0,0,0,.07h.07l0-.07.07-.05,0-.07h.09l.07-.05,0-.11,0-.1Zm.08-1.11,0-.07,0,0-.09,0,0,.11H1026l-.09,0,.25.07Zm-.24,1,0,0,0-.07,0-.07h0l0,0,0,.07,0,.07Zm3.59,4.21.19-.12.1,0,.26,0,0,0-.05-.15-.07-.2,0,0-.57,0-.73.06-1.4-.11-.59,0h-.48l-.07.21-.06.14h.25l.19,0,.09,0,.15.14h1.31l.61,0,.71,0Zm-3-5.59h0l-.07,0v0h0l0,0,0,0Zm.07-.55v0l0,0,0,.07,0,.13.08-.08Zm0,1.18-.07,0h0l0,.05.07,0,0,0Zm2.09,1.29.14,0,.14-.12.07-.16,0-.12,0-.1-.17-.44-.2-.45-.15-.42-.14-.43-.09-.13-.15,0H1028l-.14,0-.09.13-.14.42-.15.43-.2.44-.19.4,0,.14,0,.15.11.14.12.09.12,0h.64Zm-1.15-3.78,0,0-.09,0,0,.07v.07h.18Zm.44,3.33.22-.49.11-.28-.25-.68-.06.17-.14.44-.23.47-.14.33Zm-.12-3.8-.06,0h0v0h.07l.09,0,.07-.07h-.07Zm.85.26v-.17l-.09,0-.07.07v0l0,.17.16,0Zm0,1.29.07,0,.06,0-.06,0Zm.39-.85,0-.06,0,0,0,0,0,.06,0,0,0,0,0,0Zm0,1.27h0l0,0,0,0h0V659Zm.57-2-.14,0h-.1l-.13,0v0h-.09v0l.07.07h0v0l.16,0h.07l.12,0,0,0,0,0Zm-.09,1.17h-.14l0,0,0,0h0v0l0,0,0,0v.1h0l0,0,.14-.14,0,0,0,0,0,0Zm.68.94h-.09l-.08,0-.07-.07-.11,0v0l.08.09.12,0,.07,0,.06.06v.05l0,0,0,0,0,0,0-.07Zm-.14.35h0l0,0v0l0,0h0l0,0v0Zm.49-1.71,0,0h0l0,0,0,.07,0,.05,0,0,0,0v0l0,0Zm.16,1.62,0,0,0,0,0,.09.07.08v.07l0,0,.08,0,0-.07,0-.07Zm.2-3,.28.59.28.57.3.58.61,1.2.26.59.52,1.22h0v0l.23.61.24.6.22.61.25.6.26.47.23.41h.41l-.38-1-.23-.61-.24-.63-.26-.59-.26-.61-.26-.59-.28-.61-.63-1.15-.28-.59-.29-.61-.46-1.11-.1-.14-.1-.06-.13,0-.31,0Zm5.75,10.89,0-1v-.09l-.06-.07-.07-.08-.07-.07-.08-.07-.11,0-.08,0v1l0,.5,0,.25,0,.13-.11.14-.07.07-.1.07-.11,0-.14,0-.21,0-.66,0-1.41,0-.69,0-.7,0h-1l0,.16,0,.12.07.09.11.08.14.05.66,0,.66,0,.73,0,.7,0,.73,0,.7,0,.68,0h.15l.14,0,.12-.07.09-.12,0-.16v-.5Zm-5.48-4.31h0l0,.07,0,.07,0-.07v-.09Zm.1-2.75v.08h0l0-.08,0-.09Zm.54,3.5,0-.06h0l0-.06h0l-.07,0,0,.09,0,.05.07,0,.07.07Zm.07,1.2,0-.07h-.06v0l0,0h.12Zm.12.83,0-.07v0h0l0-.06h0l0,.05,0,0v.12l0,0,0,.05h0l0,0,0-.06Zm.3-1.84h0l0,0,0-.05,0,0,0,0v.1l.06,0h.14l.07.05.08,0,0,0v0l-.09-.09Zm0-.26h0v-.09h0l0,0v0Zm.33,2.21,0,0h0v0h0l0,0h0l0,0h0l0,.07h0l0,.06Zm0,.43,0,.07,0,0h0l0,.07h.09v0l.07-.14-.11-.12Zm.2-1.25-.11,0,0,0h0V665h0l0,.06,0,0v.07l.07,0,.07,0v-.07l0,0,0-.06Zm.29,1.9,0-.06h-.09l0,0,0,0,0,.07h0l0,0Zm.14-1.59h0v0l0,0h.07l0,0Zm.24-.33v0h0Zm.11,1.76,0,0,0,0v0l0,.05,0,0,0-.05Z" transform="translate(-957 -575)"/><path class="cls-2" d="M1046.49,655.16l.07.05,0,.2,0,.73,0,.71,0,.71,0,.74.05.71,0,.23,0,.48,0,.11,0,.09-.09.05h-.09l-.26,0-.36,0-.61-.07-.63.09-.26,0-.35,0-.1,0-.06-.05,0-.09,0-.1-.12-.63,0-.62,0-.16,0-.1-.1-.09-.11,0-.26,0-.26,0-.23.09,0,0,0,.14v.61l0,.63v1.23l0,.61,0,.63,0,.61,0,.63,0,.61,0,.62-.05.18.05.12.6,0,.61-.06.15,0,.07.11,0,.22v.38l-.07.6v1.37l-.08.07-.3.05h-.31l-.65-.06-.62,0h-.63l-2.51.07-.64,0h-.28l-.35,0-.1-.1v-.21l0-.56,0-.57-.06-.56v-.26l0-.31,0-.11.06-.07.19-.05.35,0,.22,0,.56,0,0-.08,0-.19,0-.61v-.63l0-.61,0-.63V659l0-.61,0-.12-.06-.08-.12-.09-.1,0-.31,0-.34.05-.15,0-.07.14,0,.7,0,.38,0,.3,0,.12,0,.07-.09.07-.12,0-.33,0-.3,0-.62,0-.61,0-.61-.06-.12,0-.06,0,0-.08,0-.12,0-.71,0-.71-.05-.74,0-.71v-.73l.08-.71,0-.11,0-.07.08,0,.11,0,.62-.07.65,0h.64l.65,0,.62,0,.65,0,.64,0,.65,0,1.91,0h.65l.64,0h.64l1.27,0,.65,0,.33,0,.31,0Zm-11.09,2.11,0,0h.09l-.07,0-.07,0ZM1038,661l.33,0,.12,0,0,0v-2.31h-.17l-.18,0v.87l0,.24v.21l0,.12,0,.13-.07.12,0,.07-.09,0-.09,0h-.28l-.38.06-1-.09-.51,0,0,.24,0,.12,0,.07,0,0,.13,0,.6,0,.61,0,.63,0Zm-1.81-4.06,0,0,0,0V657l.06,0,.07,0v0l0,0,0,0-.07,0-.07,0Zm.14-.49,0,0h0v.05h.06Zm.27,0,0,.08v0l0,0h-.06v.07l0,0h0l0,0,0-.07,0,0,.05,0,.06-.07,0,0h0Zm.68.73v.05l0,0,0-.07v0h0Zm.47-.91,0,0-.05.09,0,0v0h0l0,0h.16l0-.06v-.05l-.09-.09Zm.3,1,0,0h-.07l0,0,0,0,0,0h0l.06,0,.05,0h0l0,0-.05,0Zm0-1.53,0,0h0l0,0,0,0v.05Zm.14,1,0,0,.06,0v-.12l-.06,0Zm.14-.68,0,0-.1,0Zm6.25,9.82-.28,0,0,.36v.6l0,.59v.35l0,.17-.11.1h-.15l-.12,0-.37,0h-.31l-.65-.06-.62,0h-.61l-2.51.07-.44,0v.4l.11.11.35,0h.28l.64,0,2.51-.07h.62l.63,0,.64,0,.32,0,.29,0,.09-.07v-.16l0-.61,0-.61.07-.59v-.38l0-.23-.07-.1Zm-6-8.86,0,.09v0l0,0h.07l0-.06v0l-.05-.12-.14,0Zm.66.07,0,.07,0,0,.06,0,0,0,0,0,0,0,0,0Zm.12-.09,0,0-.07,0,0,0h.07Zm.21-.35h-.07l0,0,0,.05h0v0l.07,0,0-.05Zm0,.32v0l.09,0,.14,0-.09-.1-.1,0Zm.26,2.47v.05l0,0,0,0,0,0,0,0Zm.19-2.42v0h0l0,0v0l0,0Zm.07-.28v0l0,0,0,0,0,0v0l0,0Zm.33.19.16-.31-.23.1-.13.13,0,.1.08.07h.09Zm-.17.32,0,0v.09l.06,0,.06-.09-.06-.08Zm.12-.89v-.09h0l0,0,0,0,.07,0Zm0,.22.07,0,.06,0,0,0,0,0-.08,0-.06,0,0,0Zm0,2.58,0-.07,0,0v.07Zm.23-2,.18.05.15-.11h-.31l-.11,0-.12,0,.09,0,.07,0h0Zm0,.14h-.09l0,.07.07,0h0l0,0Zm.16,2.73,0,0h0l0,0,0,0v-.19l-.06,0-.09,0,0,.07-.07,0v.07l.09.09Zm-.16,1.74h0l0,0h0l0,0h0v-.07Zm.16-.35-.06-.08-.08-.08,0,0,0,.12.13.07,0,0,0,.07v0l0,0,0,0,0,0v-.07l0,0-.09,0Zm.12-4.58.07.06-.06-.14-.27,0,.1.07.1-.09Zm-.06-.33,0,0,.17-.11,0,0-.11,0-.1,0,0,0v.05l0,0h.06Zm.13,0h0l-.09,0,0,.09h.21l.12.05,0-.15Zm-.06.78v.07l.09,0,.11,0-.11,0Zm.49-.84.07-.07-.09-.15-.19,0-.1,0,.07.09.14.07Zm0,1h-.11l0-.05v-.09l0,0,0,0-.06.1-.09.1.07,0h.07l.1,0Zm-.23-.29,0,0,0,0H1041v.06h.09Zm.38-1,0,0,0,0v.19l-.1.12,0,.14-.15.1.07.06.12,0,.09-.09,0-.07-.07-.05,0-.09.12,0,.1,0,.07-.07,0-.07,0-.07h0l-.06.06h-.06l0,0,0-.11,0-.08v-.09l-.09,0,0-.09,0-.06h-.19l-.19.09.13.05h.11Zm-.4,3.12,0,0,.05,0,.07-.05,0-.06,0,0,0,0-.05,0Zm.12,2.7v-.06h0l0,0v0l0,0,0,0,0,0,0,.11h0l0,.06,0,0h.1l.09,0,0-.07Zm0-5.17h0l0,.06h.08l0-.07,0,0Zm.51.45-.09,0-.07,0-.09,0-.07,0,0,.07v.1l0,.06v0l-.09,0v.11l0,.07.07,0v0l0,0,0-.07h0l0,0,.1-.08.09-.08Zm-.4,5.88,0,0,0-.07V663l-.07.07,0,.08Zm.38-6.23,0-.12,0,0-.09.07,0,.09-.09.05-.09,0,0,0,0,.05,0,0h.06l0,0v-.05l0,0,.07,0Zm-.1,1.85,0,.17.11-.05.12,0h.07v-.1l-.07-.06h0Zm.07,1.77v.09h.06l.06,0,0,0,0,0Zm.19-3.32,0-.07,0,0V657l-.07,0h-.07l0,.07.07.07v0l0,.07.06,0Zm.94.15-.06,0-.08,0V657l.12-.08,0-.11h0l0-.19-.07-.12-.08,0-.11,0v0h0l0-.12-.07-.11.09-.1.16,0v.08l0,0,0,0,.17-.09.09,0,0,0,.1-.05,0-.06h.07v.13h0l0,.09,0,.07,0,0,0,0-.14.1,0,.18h.13l.12,0,.1,0,0-.07v-.09l-.09,0,0,0h-.07v-.07l.07,0,0,0,0,0v-.11l-.06-.09.06-.1-.06-.12-.1,0,.05,0,0,0h0l0,0-.07,0,0,.07h0l-.07,0h0l0,0-.1,0-.14,0h-.05l0-.06,0,0-.1-.05-.14,0,0-.07,0,0-.09.05,0,.09H1042l0,0-.07,0,0,.11.09.07.1,0-.1.12,0,.14h.15l.11-.11.08-.07.11,0-.09.16-.12.12-.12,0-.11,0-.08.07,0,.09v0l0,.18.18.1.12,0,.1-.12.07,0,.07,0h.06l-.06.11,0,.09,0,.07,0,0v.08l0,.07v.16l-.08.14h-.06v0h-.2v0l0,0,.05,0v-.07l-.06,0-.06.05,0,.07,0,0-.08,0,0,0,0,0,0,0,0,0v.07l-.07,0,0,.05,0,0,0,0,0,0,0,0,.24,0,.23-.09.08,0h.09v-.05l0,0,0-.06h0v.07l.07,0,.14.05.12.07,0-.1-.12-.07-.09,0Zm-.86-1.11h0l-.05,0h-.09l0,0,0,0Zm0,1.83V658l0-.07,0-.05v-.06h-.07v.07l0,.11Zm.09,1.42,0-.07h0l0,0-.05.07v.09l0,0h0l0,.07.07.06,0-.06,0-.07v-.07Zm.11-2.47V657l0,0,0,0,0,0,0,0,.07,0Zm.67-.61v0l.06,0,.07,0,0-.07,0,0h-.05l-.07,0Zm.4.8v-.05l-.06-.14-.09.12-.11.09-.07,0,0,0,0,0h.06l.07,0h.08l0,.07.09,0,.08,0,.07,0,0-.07h-.09Zm-.13,7.3.26,0v-.76l0-.61,0-.63v-1.84l0-.51,0-.09,0-.24-.12-.64-.05-.61H1043l-.21,0,0,.45,0,.63v1.25l0,1.26,0,.61,0,.61,0,.59,0,.52Zm.31-7.47,0,.05v0h0l.07,0,0,0v0l0,0Zm.24-.71,0,0h.08l.06,0,0,0,0-.06h-.14Zm0,.45,0,.09,0,.08,0,.07,0,.09.07,0,0,0,0,0v-.29l0,0,0,0,.07,0,0-.07-.14,0-.07.09Zm.38,0-.07,0,0,.17h.23l0,0-.07,0H1044Zm.07.44,0,0v0h.07l0,0,0,0Zm.1-.75,0,0,0,0h0l0,0v0l0,0Zm.18-.44,0,0v0l0,0h0l0,0v-.05l-.06,0Zm.12.89v0l0,0,0,0,0,0v0l0-.06Zm3.08,2.33,0-.73,0-.71v-.72l0-.73,0-.19-.07,0-.1,0-.25,0v.07l0,.73,0,.73v.7l0,.71,0,.23-.06.54v.16l0,.05,0,0,0,.09-.07.12-.21.1-.05,0h0l-.12,0-.34,0-.38,0-.57,0-.54,0,.05.21,0,.1,0,.09,0,0,.11,0,.35,0h.26l.62-.09.61.07.37,0,.23,0,.08,0,.09-.05,0-.08,0-.11,0-.42,0-.22Zm-2.7-2.45.09,0h.11v0l-.07,0Z" transform="translate(-957 -575)"/><path class="cls-2" d="M1064.35,667.7l-.66.07-.65,0,0-.1.07-.19,0-.58,0-.56,0-.57,0-.56.07-.21.19-.08h1.12l.07-.09v-.16l0-.8,0-.78.06-.18-.06-.08-.69-.07-.72,0h-.71l-1.43,0-.71.08-.07.07,0,.18-.07.42,0,.43v.89l.1.05.53,0,.55,0,.18,0,.1.09,0,.63,0,.62,0,1.26,0,.17-.09.1-.64,0-.64-.07-.65,0h-.64l-.63.06-.64.07-.65,0-.64,0-.65.06-.64-.07-.07-.09,0-.17v-1.9l.1-.63.07,0,.16,0,.47,0,.47,0,.19.07.09,0v-.66l-.07-.68.06-.68.07-.66-.06-.68,0-.66v-1.36l0-.66,0-.68-.07-.17-.19-.07-.47,0-.45,0-.23,0-.1-.16v-.56l.06-.57L1055,656v-.55l.1-.2.21-.08.57,0,.59,0,1.19,0,.59,0,.59,0,.58,0h1.18l.58.07.22,0,.12.16,0,.55-.11.58.06.55,0,.56,0,.16-.07.05-.68,0-.68,0-.07.08,0,.16v1.46l0,.18,0,.09.74.05.73,0,1.46,0,.75,0,.73,0,0-.13-.07-.19.07-.73,0-.73,0-.16-.1-.08h-.7l-.7,0-.07-.14,0-.21,0-.56.07-.55,0-1.12,0-.15,0-.06.65-.05.64.05.64-.05.65,0h1.29l.64,0,.64,0,.65,0,.64.07,0,.1-.07.21v1.12l0,.55,0,.56,0,.21-.09.1h-1.23l-.19.07-.06.19,0,.62,0,.65v1.93l0,.65-.1,1.28V664l.07.64.07.19.19.07h.61l.61,0,.07.09-.06.17,0,.56v.57l0,.56v.58l.07.15,0,.07-.63,0-.65-.06-.64,0h-1.93Zm-1.85.68,0,.17-.09.1-.64,0-.64-.07-.65,0h-.64l-.63.06-.64.07-.65,0-.64,0-.65.06-.64-.07-.07-.09,0-.17v-.25h1l.64,0,.7-.07.61-.06h.62l.61,0,.67.07h.85l.19-.11.1-.09,0-.19v-.17l0-.16v-.63l0-.6,0-.35.22,0,.18,0,.1.09,0,.63,0,.62Zm-4.89-4.17h0l0,0,0,0,0,0,0,0,0,0Zm.07-2.08,0-.09,0,0h0l0,0,0,.05,0,0h0Zm.26,2,0-.05-.11-.1v-.09l-.06-.07h0l0,0,0,.12.07.09h0v.06l0,0,0,0h.07Zm.23.47-.05,0,0,0v-.05l-.07.05v.1l0,0v0h.09l.07,0Zm-.05.8-.07,0,0,.07,0,0h0l0-.06Zm.17-2.69,0-.06-.07,0-.06,0h-.05l0,.06,0,.1.07.07,0,0,0,0,0,0v-.11l0,0Zm-.16-.79,0-.07v0l0,0-.07,0Zm.61.59h.09l0,0,0,0h0l0,0v0l0,0h0Zm.13,1.1,0,0,0,0h0l0,0v0l0,0,0,0Zm.27-1,.07.05.07,0v0h0v0h0l0-.05-.07-.06h-.07l0,0Zm0-1.94,0,0,0,0,0,0,0,0,0,0,0,0Zm.2,2.15h-.06l0,0,0,.07v0l0,.06,0,.05.06,0v-.1l.06,0Zm.48-.32v0h-.06l-.08,0,0,.11.09-.09,0,0Zm.07-.54-.05,0-.07,0,0,0,0,0h0l0,0,.07,0Zm.3-.5,0-.07,0,0-.09,0,0,.08,0,.06h.18Zm.38-.65-.07,0-.07,0,0-.06-.05,0v0l.07,0,.1,0Zm.56,3-.07.06,0,.18-.07.42v0l-.34,0-.23,0v-.54l0-.4.06-.35.36,0,1.39,0h.72l.71,0,.32,0v.54h-.78l-1.43,0Zm.35-5.49h.14l.19,0,.14-.11,0-.15,0-.23,0-.12,0-.56-.05-.5.08-.42.25,0,.17,0,.12.16,0,.55-.05.58.05.55,0,.46v.12l-.07.1-1.32.07-.07.09,0,.16v.5h-.22l-.32,0v-1.18l.32,0Zm0,2.84-.07-.11,0-.1v-.09h-.1l0,.06v0l0,.17Zm.21,1.25h-.07l0,0h.07Zm.21-.92,0-.07-.07,0,0,.1,0,.07.07,0,0,0Zm.29-.71h.07l0-.07-.06,0-.07,0h-.06l-.07,0-.07,0v.07l.09,0,.09,0h0Zm.44,1.14h0l-.06,0h-.07l0,0-.09,0,0,.07V662l.07.05,0,.07h.07l.1-.07.11-.16Zm.56-1,0,0h0l0,0,0,0,0,0h0l.06,0Zm.62-4.37,0-.09-.07,0,0,0h0l.06.07Zm.44,5.26,0,0,0,0-.07,0-.06,0-.07.18-.08.05-.07.09,0,0,.12-.07.09-.1v-.07l.07,0h0Zm6.16,4.89v.57l0,.56v.58l.07.15,0,.07-.63,0-.64-.06-.65,0h-1.93l-1.29,0-.66.07-.65,0,0-.1.07-.19,0-.25.35,0,1.27,0h1.93l.63,0,.63.06.69,0,.23,0,.19-.08,0-.14v-.21l-.07-.19,0-.09v-.49l0-.55v-.46l.58,0,.07.09-.06.17Zm-5.92-4.63,0,0,0,0,0,0v.05l0,0,0,0Zm0-.61.08,0h0l.07,0,0,0,0-.11-.07-.07-.09,0,0,.07,0,0-.07,0Zm.07-4.86h.08l0-.05,0,0h.07l-.07-.06h-.1l-.06,0,0,0,0,.09Zm.38-.62h.09l0,0,0,0h0l0,0Zm.1,5.55,0,0,.1.14.12.09h.09l0-.08.09-.09,0-.1-.09-.09-.09,0h-.13l-.07,0-.06,0Zm0-5.24,0,0,.05,0,0,0,0-.07.07-.05.09,0,.07,0v0l0,0-.12,0-.09.08,0,.06h0l-.05,0,0,0Zm.14,4.75,0,.07v.09l-.05.1.08.12v-.12h.18l.14-.07-.16-.1Zm.21-.66-.11,0-.07.06,0,.06h.16Zm.09-.35h-.13l-.08.09.12.07.12-.07,0,0Zm0,2.63h.07l.09,0,.1,0-.17-.1-.13-.14,0-.07,0,0-.06,0,0,.07,0,.09v.08l-.09,0,0,.11v.1l.07.07.09,0v-.1Zm-.18-1.84h0l0,.09V661l.07-.1v-.11Zm.16,2.94,0-.05h-.08l0,0,0,0h0Zm0-1.9-.07.07,0,.07.09,0h0l0,0h.12l.09-.07v-.09l-.09,0-.08.06h-.07Zm.17-.77V661l-.07,0h-.1l.09.07v.12l0,0,0,0,0,0Zm-.14-3.53h0l0,0v0l0,.07,0,.05,0,0,0-.07,0-.07,0,0,0,0,0,0h0Zm.18,2.66,0,.11,0,.08v0l0,0-.09.18.14.19,0-.17,0-.2,0-.1Zm.08,1.26-.06-.07h-.09l-.05,0v.07l.05,0,.07,0,.07,0v.09l.11.13.16.07h0l0,0-.07-.1-.12-.05Zm-.17-4.18.05,0v0h0l0,.05Zm.73,5.94-.1-.07-.12,0-.13,0-.1,0-.11,0-.1,0-.07.09v.06h.28l.19,0,.05,0,.06,0,0,.09.08,0Zm-.56-.39-.06,0h-.06v.05l0,.07.07.05.07-.07Zm0-.62-.07,0,0,0,0,.06,0,0h.1l0,0Zm0-2.37,0,0h0l0,0,0,0,0-.05h-.07Zm0-.3.14-.1,0-.12,0,0h0l-.06.11Zm.14,4.67,0,0h-.06l0,0,0,.05,0,0h0l0,0Zm.44-3.73-.13-.28-.15-.17-.14,0-.12.11v.1l.11,0,.19.09Zm-.53-1.41.06,0,0-.06,0,0v0h0l0,0Zm0-.92,0,.09h.12l.12-.1,0-.16-.07.09-.09,0h0Zm0,3.11,0,.11.09,0,0-.09h0l0,0Zm.25,2.29-.25.05,0,.21,0,.07h0l.06-.08v-.12l.08-.06Zm.73-1.9,0,0,0,0h-.26l-.15-.12-.2,0-.12-.19-.1.07-.07.14.12.1.09.07.08-.08.13,0v.14l0,.12.09.09.1.07.09-.05,0-.07-.07-.06,0-.07,0-.05.14,0,.12,0h.11l0-.1.11,0,.1,0,0-.22-.09-.23-.09.16v.12Zm-.8-.91-.14.14.19,0-.07-.31-.09.1Zm0,4,0-.13,0,.1v.09h0v0Zm.07-5.9-.09,0,.07.1,0,.05,0,.06,0,0v-.07Zm0,1h0l0,0,0,0,0,0h0v-.05Zm0-2.23,0,0h0l0,0v-.06h-.09l0,.05Zm.19,3.1-.1,0v.1l0,.16-.07.12.23,0,0-.23v0Zm0-3.92,0,0v0l0,0,0,.05v.09l0,0h.11V657h0v0l0,0,0,0,0-.07-.1-.07-.06,0h0l0,0h0l0,0Zm0,3.45,0,.07,0,0,.07,0,0-.09,0,0,0-.07-.08.05Zm.19.61.09.1,0,0-.07-.24,0-.07h-.11l0,0v0l0,0Zm0,3-.07-.07h0v0l0,0,0,0,0,0Zm.33-2.7-.09-.12-.1.07-.06.08-.07.07,0,.14.11.07.2-.09Zm-.32,1.15.09,0,0,0,0-.07,0-.07-.07,0-.06,0,0,0Zm.16-3.29,0-.07,0,0v.14l.07,0,0-.07Zm0,4.16,0-.05-.09.05v.17l.07,0,.07,0Zm0-3.14,0,.06,0,0v.07l.07,0h0l0-.05-.05-.06Zm.07,2v0l0,0,0,0,0,0,0,0v0l0,0Zm.28,2,0,0-.07,0,0,.05v0l0,0h.07l0-.06Zm0-6.53.05,0,0,0,0-.06Zm.26-.47,0,0h.06v0l0,0h0Zm2.51,1.27.14-.14,0-.22,0-.16v-.19l0-.56-.05-.54V656l.57,0,0,.1-.07.21v1.12l0,.55,0,.56,0,.21-.09.11h-.62l-.61,0-.19.07-.06.19,0,.63,0,.64v1.93l0,.65-.1,1.29,0,.17h-.47l-.05-.51v-.61l.05-.62,0-.66,0-.67v-1.93l0-.64,0-.47.45,0h.85Z" transform="translate(-957 -575)"/><path class="cls-2" d="M1074,667.23l-.56-.26-.5-.3-.44-.4-.4-.45-.45-.46-.35-.45-.24-.59-.18-.54-.17-.61-.11-.56-.08-.62,0-.58,0-.61.07-.59.14-.61.19-.54.22-.68.21-.43.39-.63.29-.38.51-.42.45-.31.52-.35.49-.28.61-.26.5-.16.67-.14.52-.08.61-.07.57-.06.51,0,.69,0,.61.11.58.12.54.14.61.24.57.3.47.33.51.45.36.39.38.54.27.46.33.56.24.51.16.64.08.54.09.61,0,.59-.07.65-.11.54-.07.64-.08.56-.28.61-.61,1-.35.44-.45.47-.44.35-.52.35-.5.27-.6.21-.55.16-.58.17-.59.14-.59,0h-.63l-.61,0-.59-.07-.49-.1-1.22-.39Zm-2.11-4-.07-.07,0,.07v0l0,.05v.06h0Zm0-1.34h0l0-.07v-.19l0,0,0,0v.12l0,.07Zm.23.66,0-.16-.07.06H1072v.08l0,.06h0Zm.08,1.12v-.07l-.07.07,0,.07,0,0,.06,0Zm0-2.76h0v-.09h0l0,0,0,0Zm.13,4.25,0-.07,0-.05,0,0v.06l0,0,0,0,0,0h0Zm.08-3,.06,0v-.09l0,0,0,0,0,0,0,0Zm0-3.52,0-.07,0-.07,0,0h0l0,.07Zm.12,5.17,0,0h0l0,0,0,0,0,0h0l0,0Zm.1-4.3v0l0,0,0,0h-.07l0,.07,0,.07,0,0,0,.1,0-.08Zm.25,2.23,0,0,0,0v-.07l0-.09-.07-.07,0-.05h0l0,.05,0,0v.11l0,.07,0,0Zm-.07-1.74.08.08.06,0,0,.09,0,.07,0,0,0-.12-.08-.07,0,0,0-.05v-.1h0l0,0Zm.2,5.52v-.07l0-.06h-.06l0,.07Zm0-1.21,0-.05h0l0,0,0,.07,0,.05,0,0,0-.06Zm.72,1.48h.16l.1-.09-.07,0h0l0,0,0,0-.09,0h-.07l-.1,0v0h0l-.07-.07.16,0,0,0h.07l.08,0,0,0,.11,0v0h0l0,0,.1,0,0-.06v0l.12-.12-.07-.16-.07-.07v0H1074l0,0,0,0,0,0,.18,0h.07V665l0-.05,0-.07.1-.09h.24v.07l0,0h-.07l0,0v0l0,0,0,0h.08l.05,0h.06l0,.07,0,.07h0v0l0,0h.07l0,0h.06l0,0,0,0h0l0,0,0,0-.15-.18h-.11v0l0,0,0-.07,0,0,0,0,0,0-.07,0v0l0-.05,0-.07-.05-.13,0-.12-.09,0,0,.12,0,.09v.14l0,.07-.14.13,0,0-.12,0-.06.08,0,0-.14.09,0,.12,0,.09.09,0v0l-.06.11,0,.1h-.12l-.09-.12,0,0h.05l0,0,0,0-.06,0-.08,0-.07,0h0l-.11,0,0,0,0,0h0l0-.07h0l0-.07h0v0l0,0,0-.09h.08l.16,0,.14-.07-.09-.1,0-.1v0h0l0,0,0,0h-.09l0,0v.12h.06l0,.07,0,0-.07,0h0l-.11,0,0,.06v.05h-.07l0,0,0,.1v0h0l0,.06-.07,0h0v0h0l.06,0,.06,0,.05,0,0,.05h0v0l0,.09.11.09h0l0,0,0,.11,0,.12,0,0,0,0h0l0,0v.05l.12.09h0l0,0,.06,0v0l0,0,0,0,0,0v0l0,.05,0-.05v-.12l0-.05Zm-.68-3.36v-.07l0,0,0,0Zm0-2.66,0,0v0l0,0v0l0,0,0,0Zm.07,3.59,0,0v0h0l0,0v0h0Zm.23.78,0,.07-.07,0-.07,0,0,.14.09,0h0l0,0h0l0-.06.07,0h.07l.07,0v0l0,0,0-.05-.05,0-.1,0Zm-.13-.3,0,.07,0,.07.1-.1,0-.16,0,0h0v.09Zm.16-1.75,0,0,0,0v-.06h0Zm.21,2.89-.07,0h0l0,0,0,.05,0,0h.05l0,0Zm-.09-1.31,0,0h0l0,0,0,0,0,0h0l0,0Zm.18.56h0l0,0h0v0l0,0h0v0l0,0h0Zm.08.22h.14l.14,0,0,0h.05v0l0,0,0-.07,0,0v-.07l0-.07-.07-.05h0l-.06.05,0,0,0,0,0,.05,0,0,0,0Zm11.58-2.4,0,.85-.13.81-.19.74-.31.79-.4.71-.47.63-.49.5-.8.61-.92.51-.56.21-.54.17-.59.12-1,.12-.78,0-.52,0-.8-.07-.84-.16-.5-.19-.53-.26-1-.57.77.31.64.19.92.18.8.07h.53l.78,0,1-.12.6-.12.54-.18.55-.21.93-.5.8-.61.48-.51.47-.62.4-.72.32-.78.19-.75.12-.8,0-.85,0-.58-.07-.69-.16-.75-.19-.65-.29-.69.43.71.14.23.17.41.14.46.21.55,0,.11v.12l.07.7Zm-11.3-.68.05.56.09.43.11.37.17.38.26.39.31.36.56.47.56.28.61.19.71.09.75,0,.63-.15.62-.39.46-.45.4-.49.31-.66.16-.64,0-.7,0-.59-.13-.78-.3-.63-.42-.52-.43-.46-.67-.4-.55-.15-.84,0-.63,0-.73.19-.68.35-.48.41-.37.51-.16.31-.15.4-.12.37-.07.49Zm.12,4.42,0-.05h0l0,.07,0,0h0Zm.72.44,0,0v-.05l-.05-.07,0-.05h0l-.07,0h-.07l0,.09-.07.05-.11-.07,0-.09h-.1l-.07,0,0,.07,0,.05,0,0,.06,0v0l0,.07,0,.09,0,.05,0,.07,0,.14.24.17h0l.16,0h.12l0,0-.09-.07-.09,0,0,0-.11-.12,0,0v0l0,0v0l0,0,0-.07,0,0,.07,0h.07l.05,0,.06,0,.15.07Zm-.58-.42v0l0,0h.1l.08,0,.08,0,.09,0h.07l0,0v0l0-.05h0l0,.05,0,0-.07,0-.12,0Zm0-.63.07,0,0,0,0,0,0-.05h0l-.05.05Zm.08-3.27v-.47l.07-.75.15-.59.3-.59.37-.45.48-.4.53-.28.66-.19.64-.06.63.06.45.1.61.28.05,0-.22,0-.7-.05-.73.05-.75.23-.61.31-.54.45-.42.53-.33.66-.19.68-.09.85,0,.54.1.57-.12-.19-.23-.55Zm.51,3.9h0v0h0l0,0-.07,0v0Zm.26.52h0v0l0,0,0,0-.06,0,0,0h-.17v0h.07l0,0h.16Zm-.07.82v-.05l0,0,0-.06h-.07v.07h0l0,0v.07l0,.07,0,0h0l0,0Zm.07-1.53,0,0,0,0h0v0l0,0h0Zm0,.33,0,0v0l0,0V666l.26.06-.06-.07h-.13Zm0-.26,0,0h.06l.13.07-.12-.08v0Zm.33,1.13,0-.05,0,0,0,0-.12,0-.09-.09v.14l.16.11h0l0,0h.14Zm-.19-1.65-.07.1v.07l0,0h0l0,0,0,0v0l0,0h0v0l0,0-.11,0,0,0Zm.08.14h0l0,0v0h0l.06.07.08,0,.07,0v0l0-.1,0,0,0-.05h-.21l0,0Zm.37.83,0,0,0,0,0,0-.06,0h0l-.06.06-.1.08-.14.09.1,0h.13l.07,0,.08,0Zm-.31-1.08v0h0l0,0h0l0,0,0,.06Zm.15,1.55,0,0,0,0-.07,0v0h0v0l0,0h.07Zm.07-1h0l0,0v.05l.08,0,.06,0Zm.13.21,0,0h0l0,0,0-.07,0,0v0l0,0,0,0Zm0,.51,0,0v0l0,0,0,0h0v0l0,0Zm.35.92,0-.09,0,0-.07,0L1076,667l-.08.05,0,.14.17,0Zm-.26-1.13,0,0,0,0h0l0,0h0v0Zm.33.31-.11.13-.12,0,.18,0Zm0-.22.11,0h0v0l-.09,0-.12-.07Zm.28.28,0,0,0,0h-.12l.12.06Zm.42-.6-.09,0-.07,0h0l-.14-.07h0l0,0-.07,0h0l0,0h0l.16,0,.08,0Zm-.33.35,0,0h-.05l0,0,0,0h.05Zm0-.76v-.06l-.05,0v0Zm.32.85,0-.07,0,0h-.08l0,0,0,.07.08,0Zm.4-.56-.07,0-.06,0,0-.06h0v.06l.07,0,.09,0Zm0,.63,0,0-.09,0,0,0,0,0,0,0,0,0h.06Zm.6-.28.18,0-.05-.09,0-.11v-.07l-.07,0-.07.07v0Zm.28,1.2-.07,0-.05.06h.07Zm.19-.75.07-.07,0-.07,0,0,0,.05v.11Zm.11,1.2h-.07l0,0,0,0h0l0,0Zm.26-1.89,0,0,.07,0,0-.06-.05-.05,0,0h0v0l-.07,0-.07,0v.05l.07.06Zm.33,1.06-.05,0,0,0h-.11l-.07,0,0,.05,0,.09.07,0,0,.07.05,0,.11-.06.07-.09,0,0Zm.31-.82v0h0v0l0,0v.07l0,0,0,0Zm1.08.21,0,0,0,0-.07,0v.07l0,.09,0,.07-.05.08,0,.11h.05l.07-.12v-.12l0,0,0-.05,0,0Zm.18-.54-.07-.07-.09,0,0,0,0,.09,0,0,0,.06.11,0,0-.07h0v0l0,0Zm.15.63,0,0,0,0,0,0v0l0,0,0,0v-.05Zm.25-1.34h.09l.08,0,0,0h-.08Z" transform="translate(-957 -575)"/><path class="cls-2" d="M1093.32,658l-.16-.09,0-.21,0-.55v-.56L1093,656l0-.55.09-.21.19-.09.59,0,.59,0h.61l.6,0,2.36.07.6-.05.59,0,.21.07.1.19,0,.55,0,.58,0,.57,0,.56-.09.21-.21.12-.45,0-.47,0-.19-.08-.1,0,0,.68.07.7v.69l0,.68,0,1.4v.67l0,.67-.14.68-.2.62-.32.61-.38.54-.45.47-.54.42-.54.38-.61.32-.63.22-.66.16-.66.05-.7,0-.7,0-.64-.08-.68-.16-.63-.21-.62-.3-.56-.34-.54-.4-.49-.47-.33-.58-.28-.64-.17-.63-.14-.68-.07-.66,0-.68V660.8l0-.64,0-.63,0-.64,0-.65-.1-.15-.21,0-.46,0-.43-.06-.16-.08-.1-.18v-.1l0-.12,0-.87,0-.89v-.14l0-.12.1-.14.16-.05.59-.13h.59l1.19,0,.59,0,.61,0,1.18-.11h.59l.59.07.23.07.09.19,0,.52,0,.54v1.06l0,.14-.07.12-.1.07-.11,0-.14,0h-1l-.08.08-.09.68,0,.68,0,.7v2.05l.1.75.21.63.32.66.47.49.62.22.75.07.73-.09.63-.24.49-.45.35-.63.12-.63v-.74l.07-1.29,0-.66,0-.65.07-1.29,0-.14,0-.1Zm-6.46,5,0,.14-.06,0v0h.07l0-.07,0-.1Zm.05-1.55,0,0v.09h0l0,0,0-.07v-.12l0-.09-.07,0,0,.05,0,.07,0,0Zm.3.75H1087l0,.08.07.07h0l0,0,.17,0,0-.19Zm0-1.81-.07,0,0,0,0,0,0,0,0,0,0-.06Zm.14,3.1,0,0,0,.09.07.05.07,0,0-.11,0-.07Zm.26-5.61,0,0h0l0,.09,0,.09.07-.07Zm0,3.86-.09,0,0,0,.05,0h.12l0-.06Zm.19-2.75h0V659l0-.05-.11,0-.07,0,0,.09.09,0,0,.07,0,.06.05-.09Zm.49.6-.07,0,0-.07,0,0,0-.06,0,0,0,0,0,.07,0,0,.09,0,.09,0,0,.1.09.07,0,0,0-.12Zm0,1.58-.09-.07,0,0h-.06v0l0,.05v.13l0,.06,0,.07.1,0,.06-.07.07,0,0-.06Zm.19-2h0v.07l0,0,0,0v-.07Zm0,2.92,0,.05,0-.07,0,0Zm.54-.38h0l0,0,0,0,0,0v0Zm11.34-4.23,0-.58,0-.55-.11-.2-.2-.07H1100l0,.45,0,.54,0,.61,0,.14v.24l-.07.14-.13.12-.17,0-.17,0h-.09l-.47,0-.38,0,0,.21.07.7v.69l0,.68,0,.72v1.35l0,.7-.16.75-.2.68-.34.64-.43.63-.49.49-.59.45-.54.4-.71.37-.65.22-.71.16-.72.07-.73,0-.71,0-.66-.09-.73-.15-.61-.23.42.26.19.09.48.17.72.18.69.08.72,0,.73,0,.73-.07.73-.17.65-.23.73-.38.54-.38.61-.47.48-.51.44-.63.33-.64.23-.7.14-.73v-.68l0-1.39,0-.68v-.69l-.07-.7,0-.68.11,0h.19l.47,0,.38,0,.21-.12.09-.14,0-.56Zm-8.71-1v1l0,.19V658l0,.14-.09.13-.07.07-.12,0-.12,0h-.16l-.24,0h-.68l-.05.35v3.38l.08.68.2.57.27.59.18.18-.09-.28-.1-.75v-3.43l0-.71.09-.09h1l.09,0,.1,0,.11-.06.07-.13V658l0-.54,0-.54-.06-.52-.08-.2-.23-.07h-.14Zm-.36,9.75-.07-.06,0,0v0l0,.07.09,0,0,0Zm1-.11h0l0,0v0h-.08v.09l0,.07h0l0,0,0-.07.11,0-.09-.05Zm.13-.54h0v0l0,0h0v0Zm.42,0-.1.06,0,0,0,0v.05l-.06,0h0v0h0v0l0,0h0l0-.05,0-.07,0-.07.06,0,0-.07v0Zm.7.86h0v.09l0,0,0,0v-.07Zm.49-1,0,0,0,0,0,0v.06l0,.08,0,0v0h.06v0l.06,0h0l0,0,0,0,0-.07,0-.07Zm.05-.7,0,0v0l0,0,0-.07h0Zm.5,1.72-.07,0-.08,0,0,0h0l-.07,0v.05l.05,0,.07,0h.12l.05,0v0Zm-.08-1.42h-.06v0h0Zm.08.73h-.05l0,0v0l0,0,0,0h0l0-.06v0Zm.63.29-.07-.05,0,0-.14,0h0l0,0,0,0,0,.08,0,0,0,0h.09l0-.09Zm.23-3.6.07-.11.07-.08,0-.06.14,0,.12,0,.14.16.17.07.11.21.1-.06.09-.14-.11-.12-.07-.09-.08.09-.12,0v-.16h0l0,0,0,0v0l-.09-.05,0,0,0,0-.06,0-.08,0v0l0,0,.07,0v0h0v0l-.07,0h-.14l-.12,0h-.13l0,.08-.1,0h-.13v.24l.06.23.1-.14Zm0-2.46h0l0-.07v0h-.11l0,.05V660Zm0,3.47,0,.05,0,.07v.07l0,0,0,0,0-.07,0-.05Zm.35-.72.07-.06.09-.13-.11-.08-.2,0-.09.24,0,.13.14-.06Zm-.08,2.22h0v.11l.07,0,0,0,0-.05Zm0-1.73,0,.07,0,0h0l0,0,0-.05,0,0,0-.12-.07-.11h0v.28Zm0,.47h.08l0,0,.05,0h0v0l0,0v0h-.08l0,0h0Zm0-1.72h.07l0,0v0l0,0,0,0,0,0h0Zm.1-1.15.09,0,0-.09,0-.07-.07,0h0l0,0h0v.17Zm.21,3.78-.19,0-.08.08v.07l0,0,.08-.09Zm-.21-.51h.07v-.07h-.07v.07Zm0-2.45v.07l0,.07.07,0,0,0,0,0,0-.09-.07,0Zm.16,4-.09.06,0,.1h0v0l0,0,0,0h0l0,0,0,0,0,0Zm.09-2.47,0,0v0l0-.16.11-.12-.25,0-.1.22v0l.06.12Zm0,1.81h-.07l-.07.07,0,.07h0l0,0,0,0h0l0,0,.05,0,0,0Zm.16-1.16,0,0,0-.09-.07-.08-.05-.09-.12-.09v.26l.07.25.1.08.16,0,0-.11,0,0Zm-.23-3.69,0,0v0l0-.05,0,0,0,0,0,0,0,.05Zm.07,4.07v.09l.05,0,0,0h0v-.07l0,0Zm.14-.94.09-.07.07,0h-.19l0,.16v.19l0,0,0-.05h0Zm.23-2.51.12,0,.1,0,.11,0h.1l.07-.08v-.07h-.08l-.2,0h-.19l0,0,0,0-.05-.08-.06,0,0,0h0v.16l.1.09Zm.16-.66,0-.07-.05,0-.06.11,0,.12-.09,0,0,.09.25-.07Zm-.09,2.56h-.09l-.07.07,0,0,0,0,.08,0Zm0-3.5,0-.09,0,0h0l0,.09,0,.14Zm.15,4.27v.12l0,.12,0,.05-.09.09,0,.1,0,.07v0l0,0h0l.09-.08.1-.09v0h0l0-.06.11-.2v0l-.09-.23Zm.26-.86,0,0h-.07l-.07,0v-.09l-.07-.17-.16-.09,0,0,.07.12.12.07,0,.13,0,.1.06.09h.08l.06,0Zm-.36,1.61,0,0v0l.11.07.12,0-.09-.12Zm.14-4.46,0,0,0,0,0,0h0l0,0,0,0,0,0Zm.14,2.07.07,0v-.12h-.12l0,0,0,.07Zm.15.42.09,0,0,0h0l0,0v-.12l0,0,0,0-.07,0,0,0h0l-.11,0,0,0-.08.07,0,0v.06l.09,0,.08,0Zm-.2.69,0,.06v0l0,0h0V663l0,0Zm.15-1.76v0l0-.07-.07,0,0,0,0,0,0,.07.07,0Zm-.07.21-.08,0,.15.1.12.16,0,.07,0,0h.07l0-.09,0-.07,0-.09.08,0,0-.11,0-.1-.07-.07-.09,0v.1l-.07,0H1097Zm.11,2.46-.09,0,0,.06,0,.1.07.11,0-.06.07-.05,0,0,0,0Zm0-.49v-.22l-.07.1,0,.1,0,0Zm.26-.52,0,.07-.07,0h-.1l-.14,0,.24.24.07,0,0-.09.07-.12,0-.12Zm.12-.19-.07-.16-.1-.1-.09,0,0,.07-.09.07v.12l0,.09.11,0,.13,0,.06.05.07,0v-.05Zm-.31-2.4.05,0,0,0,0,0-.05,0,0,0v.07Z" transform="translate(-957 -575)"/><path class="cls-2" d="M1102.86,667.49l-.68-.23-.31-.14-.84-.59-.29-.23,0-.08,0-.12v-.39l0-.75,0-.85,0-.52.05-.12.14-.18.16-.14.12,0h.36l.25,0,.26,0h.71l.25,0,.22,0,.35,0,.11,0,.05.07,0,.08,0,.11,0,.29v.19l0,.49,0,.07,0,.09.09.05.07,0,.21,0,.49.1.26,0,.49,0h.83l.35,0,.31,0,.3-.05.29-.15.23-.23.14-.28.07-.31-.07-.26-.14-.21-.26-.16-.37-.14-.26-.09-.61-.15-.38-.09h-.92l-.3,0-.33-.06-.59-.12-.58-.17-.59-.25-.52-.31-.23-.17-.22-.21-.21-.23-.16-.26-.26-.54-.19-.57-.12-.61,0-.34,0-.31.05-.31.1-.28.23-.57.26-.56.17-.25.23-.2.49-.37.54-.33.55-.24.3-.09.3-.11.27-.1.61-.16.63-.07h.94l.31,0,.3.05.61.07.3.05.61.14.87.26.27.14.28.16.51.35.24.19.09.07,0,.1,0,.3,0,.56v.83l0,.56-.07.4,0,.1v0l-.06,0h-.08l-.39,0h-1.3l-.52,0-.39-.05-.12,0,0,0,0-.09,0-.12-.05-.25v-.61l0-.08,0-.06-.09,0-.07,0-.33-.05-.7-.07h-.92l-.3.06-.26.1-.26.14-.22.17-.16.23,0,.29,0,.34.19.29.26.19.35.14.28.05.66,0,1,.09.89.15.61.14.57.19.54.25.28.15.26.18.44.4.19.23.33.47.24.55.11.28.1.59,0,.32,0,.34-.12.63-.12.3-.24.61-.14.28-.19.26-.47.43-.56.35-.58.3-.61.24-.6.17-.67.13-.31,0-.64,0h-.7l-.7,0-.33,0-.36,0-.67-.19-.31-.1Zm-.54-8.76,0,0h0l0,0,0,0v.11l.07-.07Zm9.94,5.59v.4l-.06.38-.07.33-.1.32-.12.33-.14.31-.16.32-.24.31-.28.28-.28.22-.28.19-.31.2-.28.17-.33.16-.3.12-.35.12-.31.1-.31.09-.37.09-.38,0-.35,0-.31,0-.65,0-.71,0h-.42l-.33-.09-.66-.21-.33-.09-.33-.1-.33-.12-.32-.14-.29-.19-.19-.14h0l.73.27.63.16.33.09.45.07.37,0h.35l.69,0,.67,0,.31,0,.35,0,.36-.05.39-.09.31-.08.31-.13.35-.12.3-.12.31-.16.3-.15.31-.2.28-.19.28-.22.28-.28.22-.33.18-.32.14-.29.12-.33.1-.32.07-.33.05-.4,0-.38,0-.35,0-.33-.07-.3,0-.19.12.18.16.24.08.14,0,.1.07.3,0,.33Zm-9.59-4.58,0,0v-.11l0,0-.07,0,0,.07,0,.07h.07l0,0,0,.05ZM1103,661v0l0,0,0,0,0,0v.07h.1Zm.33-1-.07-.06h-.15l0,0v0h0l0,0v0l0,.06,0,0,0,0h.14l.07,0h0l0,0Zm-.19-.31,0,0h0v-.07h0l0,0Zm.77,2.12h0l0,0,0,0h0l0,0h0l-.07-.05-.07,0,0,0h.09l0,0,0,0,0,0,.07,0h0l0,0Zm.15-1,0-.07,0,0h-.09l0,0h-.06l0,0h0v.07h0l0,0,0,0h0v0l0,0,0,0,0,0Zm.06,2.54,0-.14,0-.15.19,0,.35.05.35,0h.87l.35.05.29.07.28.08.24.07.32.13.16.1,0,.07v.1l-.31-.06-.36-.07h-.94l-.3,0-.61-.1-.3-.07Zm.19-2,0-.06h0l0,0,0,0,0,0,0,0v0l0,0Zm.12-1.13,0,0h0l0,0v0h0l0,0Zm.24,1.61,0-.13-.09,0-.07,0,0,.09v.16h.08Zm-.17-1.18h0v0l.06,0h-.06Zm2.49-2.31.21.05v.42l-.25,0-.33,0H1106l-.26,0-.23,0-.2.07-.2.11-.13.1-.07.12,0,.11-.16-.14-.08-.12,0-.2,0-.12.09-.12.12-.1.19-.11.21-.07.24,0,.25,0h.61l.33,0Zm-1.85,3.06v0l-.06,0h0l0,0v0h.06v0Zm.2.59,0,0-.07,0-.07.07h0l.06,0,0,0h0Zm.31-.36,0-.06h-.12l-.07-.14-.1,0,0,0v0l.07.05.14.07v0l0,0h0l.07,0Zm.16-.06,0,0,0,0,0,0,0,0,0,0,0,0Zm0-5.38,0,.07.07,0,.07,0,0-.05,0,0-.06,0Zm0,5.14,0,0v0h0l0,0Zm.12.64,0-.1h-.07l0,.1,0,.09Zm0-.36h.09l0-.09.1-.14.13-.17-.23.07-.18.1,0,.12Zm.4.31.17-.09-.15,0h-.14l-.09,0H1106l.09.07.07,0h0Zm-.31-1.11,0,0,0,0h.05l0-.05v0l0,0Zm.14,1.2-.09,0,0,.09.06.07.05,0V662Zm.07-1-.07,0h0l-.07,0,0,.07.07.06,0,0,0,0Zm-.07-5.24.07,0,.07,0,.07-.07h-.11l0,0,0,0Zm.14,5.64.08.09.11-.07,0,.07,0,.07v-.16Zm0,4.37,0,.06h.09l.07,0,0,0,0,0h0l0,0h0l0,0Zm.22-3.69h.09v0h0l0,0h-.09l0,0v0Zm0-1.06,0,0v0l.06,0,0,0,.09-.07,0,0,0,0h0v0l-.13,0-.1,0h0Zm.3.3.08.05,0,0v-.2l-.1,0h0l0,0-.07,0,0,0h0l-.09,0,0,.1h.08Zm-.14,1,0,0-.07,0,0-.05,0-.09,0,0V662l0,0,0,.07,0,.07,0,.05v.07Zm0,3,0,.05,0,0h.09l0-.07-.11,0,0,0,0,0Zm.07-3.48,0,0v0h0v-.07Zm.38.42-.07,0,0-.09-.09,0-.09,0v.14l0,0,0,0v.07l0,0,.06,0,.13,0,.11-.07Zm.28-.51,0,0-.1,0-.09.07-.08,0H1107l-.07,0V662l0,0h0l0-.07,0,0,.09,0,.14,0,.1-.1Zm-.49-.89,0,.06,0,.05,0,0,.07.1.13.12.08-.05,0-.19,0,0,0,0h0l-.14-.09h0Zm0,.79,0,.05,0-.09h0l0,0v0l0,0Zm0-5.68,0,.16.16,0,0-.1v-.16l-.07,0-.07,0Zm.2,1.31-.07,0-.06,0h.06Zm.33,4.23.08.07.18-.11v-.08l0,0-.07,0h-.06v-.07l0-.11,0-.12,0-.07-.07-.07,0-.09,0-.1-.17,0h-.08l-.06,0-.16,0,.09.08.08.07.09.05.07.09.07.07,0,0v0l0,.09,0,.1-.14.09-.1.14-.2,0,0,.09.11.11.1-.06.09,0,0-.09.07-.08Zm-.13.54,0-.09,0,0h0l0,.07v.14l-.07,0,0,.08h.07l0-.09,0,0Zm0-5.55,0,.06,0,0,0,0v-.1l-.06,0,0,0Zm0,9,0,.14h.07l.07,0,0,0v0l0-.11v0l-.07,0,0,0,0,0Zm.48-3.27-.06.05-.07,0-.15.06,0-.06,0,0v.05l0,0,0,0,.07,0v.08h0v0h0l.07-.07,0,0,0,0,0,0,0,0v-.06l0,0,0,0v0Zm-.21-.12h-.06l0,0v0l0,.06h0l0-.06v-.08Zm0-6.2v0l.06.06h.17l.05-.05-.05,0-.07,0h0l-.06-.06-.07,0Zm0,10.76h.05l0,0h0Zm.34-9.66,0,0-.05,0h-.1l-.06,0,0,.09,0,0,0,0h.07l.09,0,.06-.09,0,0v0Zm-.24,8.91,0,0h0l0,0v0l0-.05,0,0,0,0v0Zm.11-4.58h0l0,0,0,0h0v0Zm-.06,4,0,0,0,0v0h.07v-.06h-.05v0l0,0v0h-.06Zm.09-3.76h.07l.07,0v-.06l0,0h0l-.06,0v.06Zm.07.87h0v0h0v0h0l0,0h0v0h0Zm.14.07-.07.05v.11l0,0,.06,0,.14-.12.12-.11v0l0-.06.09,0h0l0,0h0l0,0,0-.05h-.11l-.06.1-.06.09Zm0,.4v0h0l0,0,0,0v0h.1Zm0,4.11,0,0h0l0,0,0,0h.07Zm.35-.9h0l-.05.06h-.07l0,0h0v0l0,0v.07l.07,0,0,0,.06,0,0,0,0,0v0l0-.1Zm-.12-.84v0l0,0h0v0l0,0-.05-.05h0Zm.14-2.4h0l0-.09,0-.09,0,0,0,0v0l0,0-.18.14,0,.07,0,.07Zm.1.26v0l-.06,0v.07l0,0,0,0v-.07Zm-.07-5.54.07,0h.14l0,0,0,.05v0h.09l0,0,0-.07h-.21l0,0,0,0h-.07l0,0Zm.07-.52,0,0h0v-.07h0l0,0Zm2.13,2.7.14,0,.1,0,.11-.07.07-.25v-.14l.07-.66,0-.31v-.44l0-.41V657l.13.1.2.2.12.07,0,.41,0,.56,0,.42v.4l0,.29,0,.28-.11.35,0,.09-.48.05h-.91l-.38,0h-.09l-.19-.09-.28-.07-.57-.19,0-.12.26,0,.73,0,.28,0,.3,0h.36l.13,0Zm-2-1.83,0,0h0v.08h.06Zm0,4.09,0,.07,0,0h.09V662l0,0,0,0,0,0h-.07Zm.09-5.66,0,0,.08,0,0,0v0l0,0-.08,0-.07,0Zm.13,7.19v-.07l-.07-.08v.08l0,.07,0,0Zm0-.92,0,0h.08v0l0,0h-.05ZM1109,664v0l0,0,0,0v-.05h0l0,0Zm.14.57-.07,0v0l.05.05v.09l.07,0v-.09h0v-.07Zm0-6.8,0,.08v.07l.06,0,.07,0,0-.07,0,0-.09,0-.07-.07Zm.09,7.31,0,0,0,.07,0,.05,0,.07,0,.09v0l0,.05h0v0l0-.05,0-.07,0-.05,0,0v0l0,0,0-.05,0,0v0l0,0h0Zm.09-2.47v0h0l0,0,0-.05,0,0h0l0,0Zm.2,2.43,0,0h0v0l0,0,0,0,0,0,0,0Zm.25-6.4,0,0h0l0-.07,0-.09,0,.09Z" transform="translate(-957 -575)"/><path class="cls-2" d="M1113.74,667.73l-.54,0-.38-.07h-.14l-.09,0-.07-.07,0-.1,0-.33,0-.48,0-.67,0-.46,0-.33,0-.12.05-.09,0-.07.1,0,.26,0,.37.11.24,0,.11,0,.07,0,0-.09,0-.12,0-.38,0-.52,0-.77,0-.52,0-.77v-1.29l0-.52v-.76l0-.53,0-.38,0-.12-.05-.07-.09,0-.11,0-.24,0-.35,0-.24,0-.11,0-.07-.05,0,0,0-.11,0-.33,0-.45v-.66l0-.46.06-.33v-.12l0-.1,0-.07.12,0,.38,0,.54.1.39,0h1.32l.64,0,.27,0H1119l.77,0,.28,0,.64,0,.67,0h.66l.38,0,.54-.07.38,0,.11,0,0,.07,0,.09.11.73v1l0,.49v1l-.09.61,0,.12v.11l-.07.07-.11,0-.31.05-.45,0-.33,0h-.32l-.43,0-.44-.07-.07-.05,0,0,0-.11,0-.22,0-.32,0-.22v-.18l0-.08,0,0-.45,0-.64.07-.46,0-1.09,0h-.46l-.12,0-.07.07,0,.07,0,.11v1l0,.4,0,.12,0,.09.07,0,.12,0,.35.05h.26l.24,0h.73l.25,0,.24,0,.49.07.1,0,.07.05,0,.11,0,.33,0,.45,0,.35,0,.33v.45l0,.33,0,.13-.13.13-.13,0-.33,0-.47-.07-.35,0-.33,0-.22,0-.58,0h-.19l-.16.09-.12.14,0,.17,0,.37v.26l0,.25v.36l0,.09v.07l0,.05.07,0,.47,0,.63,0h2l.08,0,.08,0h0l0,0,0-.28,0-.21,0-.21,0-.3,0-.1,0-.07.09,0h.12l.31,0,.44,0h.33l.54,0,.23,0,.33,0,.12,0,.09.07,0,.09,0,.12,0,.37-.11.5,0,.38,0,.37,0,.49v.38l0,.37,0,.5,0,.37,0,.12,0,.08-.09.06-.12,0-.38,0h-.56l-.4,0h-3.07l-.55,0-.39,0-.4,0-.54,0h-.4l-.94,0h-.8l-.54,0Zm11,0,0,.26,0,.37,0,.12,0,.08-.09.06-.12,0-.38.05h-.56l-.4,0H1120l-.27,0-.67,0-.4,0-.54.05h-1.08l-1.06,0-.54,0h-.4l-.4,0h-.26l-.8-.1-.09,0-.07-.07,0-.1,0-.25h2.46l.28,0h1.08l.55,0,.39,0,.62,0,.28,0,3.48,0h.63l.42,0,.16,0,.12-.05.08-.07.07-.05.06-.07,0-.09,0-.11,0-.17,0-.36,0-.34,0-.26,0-.71,0-.52,0-.33,0-.32.06-.24v-.07l.25,0,.12,0,.09.07,0,.09,0,.12,0,.37-.11.5,0,.38,0,.37,0,.49v.38l0,.37Zm-10.32-9h0l0-.05,0-.07,0-.09v.06l0,.07h0Zm.12,3.6,0,0,0,0,0,0v.06h.06Zm.14-3.15,0,.05h.09l0-.07v-.07h-.07v0l0,0Zm.16-1.19,0,.09h0v0l.17,0,.09-.14h-.11l-.08,0,0,0h0Zm.17,4,0-.06V662Zm0-4.55,0,0h0l.07,0,0-.07v-.06l0,0,0-.05v-.06l0,0,0,0,0,0v.12l0,0,0,0Zm.25,7.35,0,0,0,0v.07l0,0,0,0,0,0Zm.33-.26,0-.05-.09,0-.07,0-.05-.11-.07-.07,0,0,0,0,.06.14.12.07h.07l0,.07v.06l0,0,0,0,0,0Zm-.32-1.83,0,0v.07l.09.1.1.07,0,0h0l0-.05,0,0v-.19l0-.07h-.09Zm.21-4.82,0,.05,0,0,.06,0,0-.06v0l0,0h-.06Zm.35,7.07,0,.08v0l0,.07,0,0,.1,0,.09-.05,0-.09-.07,0,0,0,0-.07Zm0-2.72,0,.05,0,0,.06,0,.06-.07-.11-.06-.07,0Zm.17-1.71,0,.07.07,0v0l0,0,0-.09,0,0-.09,0Zm.07-2.83,0,0v0l.07,0,0,0h.09v-.07l0,0,0-.05,0-.07v0l0,0v.09l0,0,0,.05Zm0-1.15,0,0h0l.07,0v-.05l0,0-.06,0v0l0,0Zm.11,9.43-.09.07,0,.09,0,0h0l0-.07Zm0-7.53,0-.06,0,0v.07Zm.09,3.27,0,.19.09-.07.12,0h.09v-.08l-.07-.07h0Zm.17,1.88,0,0,0,0h-.05v0l0,.07h0Zm.09-2.65.08.07,0-.14,0,0v0h0l0,.07Zm.12,1.67v0l0-.07,0-.07h-.07l0,.07v.11h0v0l0,.07.07,0,0,0Zm0-4.28,0,0h0l0,0,0,0h-.07Zm.4-1,0,0,.11-.07,0-.12,0,0,.06,0,.05,0,0,0,0,0h-.09l0,0,0,.09,0,.07-.07.05Zm.4-.68.09,0,.07,0h0l.06,0,0,0,0-.08-.07-.06-.07,0,0,.07Zm.16.57,0,0h-.07v0l0,0h.07Zm3.81,4.39-.07.8,0,.33V663h-.15l-.26.05-.18.09-.12.16-.09.22,0,.25-.07,0-.23,0-.35,0-.33,0h-.22l-.23,0-.35,0h-.21l-.17,0-.1.09,0,.15,0,.25-.28,0h-.19v-.19l0-.28,0-.22v-.34h.14l.33,0,.45,0,.3,0,.29,0,.21,0,.26,0h.09l.33,0,.19,0,.07,0,.14-.1.11-.11.12-.21,0-.17.06-.38,0-.79,0-.29,0-.13.19,0,.12,0,.1,0,.07,0,0,.11Zm-1.08-3.07,0,.18V659l-.21,0-.47,0h-1.08l-.12,0-.07.07,0,.07,0,.11v.33h-.28l-.24,0,0-.31v-.8h.91l.47,0,.5,0,.33-.06h.37Zm-2.54,7.73,0,.06.07,0,0,0h0l0-.06,0,0Zm.33.51.07,0,.07,0,0,0h0l.14.07.14-.09-.14,0h-.14l-.09,0Zm.19-10.66.09,0,.07,0v-.06l-.07,0Zm.09,10.28,0,0h.06l0,0h0v0l0,0Zm.07-.23.07,0h.1l-.09,0Zm.12,1-.05,0v.05l0-.05Zm0-.75h0l.09,0,0,0,.07,0-.07-.1-.08,0Zm0-1.07,0,.09,0,0h0v0l.11,0,0-.07,0-.14h-.09l0,0h0Zm.14.67h-.07l0,.16.07-.12.08-.09Zm.19.5h0l0,0,.05,0v0l0,0,0,0Zm.08-.24,0,0,0,0,0,0v0h0l0,0Zm.09.15.07.07h.09l0-.07.07-.12.09-.14-.09,0-.1,0-.14.11Zm0,.37,0,.07.06-.09,0-.07h0l0,0Zm.07-.91,0,0,0,0,0,0,0,0v0l0,0Zm0-.26v.07h.12l.16.06,0-.14-.09,0-.09,0,0,0Zm.22,1.15h-.09v.07l0,.05h0l0,0Zm0-1.65,0,0v.12l0,0,.07,0,0,0v0h0v-.07l-.05-.07h0Zm.37,1.88-.08,0,0,0-.08,0-.07,0,0,.07v.09l0,0v0h0l0,0,.11,0,.07-.09Zm-.2-.61.09-.07.11.1,0-.12-.1,0-.13,0Zm.26.23h-.12l-.14,0,.14,0Zm-.22-.6,0,0v0h0l0,0,.09,0,.07-.06h-.12l-.09,0,0,0Zm.14-.68.1.06h.09l.09,0,.1,0,0,0v.17l-.09.11,0,.12-.14.09,0,0,.1,0,.09-.08,0-.06-.06,0,0-.09h.11l.08,0,.07-.07,0-.07,0,0h0l-.06,0,0,0v0l0-.08,0-.09v-.07l-.07,0v-.07l0-.07H1120Zm.22,1.33,0,0H1120v0Zm.23.47h-.09V667l0,0,0,0-.07.1-.07.09.06,0h.07l.08,0Zm-.09.21-.07-.06-.08,0,0,0h.17Zm0-.91.07,0,0-.07,0,0,0,0Zm.4-.5-.07.05,0,.09-.09,0-.07,0,0,0v0l0,0h.06l0,0v-.05l0,0,.07,0,.1-.05,0-.11v0Zm.05,1-.05,0,0,.07h.05l0,0,.07,0,.2.05.2-.07.08,0h.07v0l.05,0,0-.06h0l0,.07.07,0,.21.11V667l-.08,0-.09,0,0-.07,0-.05-.07,0v-.08l0-.09,0,0v0l.1,0,0-.11h0l0-.17,0-.11-.09,0-.09,0v0l0-.09,0-.1.07-.11.13,0v.07l0,0V666h0l0,0,.07,0,.06,0,0-.05,0,0,0,0,0,0v0h.07l0,0,0,.06h0v.09l0,.05,0,0,0,0-.12.11,0,.14h.12l.09.06.09,0,0-.07,0-.07-.07,0,0,0-.07,0,0-.07,0,0,0,0,0,0v-.09l0-.09,0-.08,0-.11-.06,0h0l0,0,0,0v0l0,0-.07,0,0,.07h-.11v0l-.11,0h-.16l0-.05,0,0-.08-.06h-.11v-.06l0,0-.07,0,0,.09h-.1l0,0-.06,0,0,0,0,.06,0,.07.09,0-.07.11,0,.12.12,0,.09-.09.07-.05.11,0-.09.12-.11.13-.1,0-.09,0-.07.07,0,.07v0l0,.16.16.09.1,0,.09-.1,0,0,.07,0h0l0,.09,0,.07,0,.07,0,0v.07l0,.07v.12l-.07.12,0,0,0,0h-.07l-.09,0,0-.05,0-.06v-.05l0,0,0,0,0,0,0,.07,0,0,0,0,0,0,0-.05,0,0,0,0,0,0Zm.09-1.11,0,0h0l0,0-.06,0h0Zm.14.73.07,0,0,0v-.07l0,0,0,0,0,0Zm.7-.51,0,0,.05,0,0,0,0,0h-.1l0,0Zm0-.78.07,0h.07v0l0,0Zm.43,1.58,0-.05-.07,0,0,0v0l0-.07,0,0-.07.1-.11.09-.05,0,0,0,0,0,.05,0,.06,0h.07v0l.07,0,.07,0Zm-.29-1.23h0Zm1.79-5.8.21-.09.07-.07,0-.1.06-.17v-.14l0-.16.09-.61v-.63l0-.62V656l.24,0,.11,0,.05.07,0,.09.11.73v1l0,.85v.37l0,.5,0,.3,0,.12v.1l-.07.07-.11,0-.31.05h-1.1l-.43,0-.44-.07-.07,0,0-.05,0-.11-.06-.24h.44l.76.05.4-.05Zm-1.38,6.79v0h-.07l0,0v0l0,0,0,0Zm0-1.6,0,0h0l0,0,0,0h-.07Zm.15,1.65.06.06,0,0,0-.06v-.24l0-.07.07,0,0-.07h-.1l-.08.07,0,.07,0,.08,0,.07,0,.07Zm0-.71,0,0,.07,0,0,0,0,0,0-.06h-.1Zm.28.38,0,.16h.19l0,0-.07,0h-.08l0,0Zm.18.45,0,0h0v.09l0,0Zm.19-1.06v0l0,0h0l0,0v0l0,0h-.07Zm.12.77,0,0v.07h0l0,0v0l0,0Z" transform="translate(-957 -575)"/><path class="cls-2" d="M1014.4,693.55v.12l0,.41v.08l0,.05,0,0-1,0h-.12l-.4,0h-.12l-.4,0h-.64l-.39,0h-.12l-.65,0h-.26l-.09,0-.05,0,0-.05,0-.08,0-.18v-.34l0-.4v-.65l0-.4V692l0-.41V691l0-.4v-.12l0-.4v-.3l0-.23v-.11l0-.39v-.11l0-.06,0,0h.16l.49,0h.58l.45,0h.12l.46,0h.12l1,0h.13l.26,0h.19l.1,0,0,0v.06l0,.1v.2l0,.19V690l0,.06,0,0h-.27l-.71,0h-.12l-.39,0h-.12l-.39,0-.34,0h-.25l0,0v.13l0,.18v.39l0,0,.09,0h1.2l.84,0,.24,0h.08l.05,0,0,.05v1l0,.1,0,.05-.05,0h-.23l-.34,0h-.12l-.6,0h-.61l-.3,0h-.22l0,0,0,.06v.11l0,.19v.36l0,0,0,0h.08l.41,0h.13l.4,0,.54,0h.12l.54,0h.22l.27,0,.05,0,0,0v.09Z" transform="translate(-957 -575)"/><path class="cls-2" d="M1019.84,692.57v.13l0,.13,0,.12,0,.16,0,.11-.06.15-.06.1-.09.13-.07.09-.09.1-.09.08-.16.1-.09.06-.12.06-.1.06-.18.06-.22.07-.12,0-.19,0H1018l-.16,0h-.28l-.36,0h-.28l-.17,0h-.11l-.13,0-.11,0-.17-.06-.11,0-.11-.05-.11-.06-.09-.06-.25-.16-.09-.08-.13-.1-.09-.08-.09-.08-.06-.07v-.05l0-.07,0,0,.08-.08.21-.2.07-.08.13-.2.07-.08.07-.08.08-.05.09,0,.08.06.24.16.12.06.1.06.17.08.12,0,.12,0,.12,0h.29l.48,0h.12l.06,0,.11,0,.1-.06.08-.08,0-.05,0-.12v-.18l-.06-.11,0,0-.1-.07-.06,0-.11,0-.13,0-.13,0-.72-.07-.22,0-.12,0-.17-.07-.11,0-.12-.06-.25-.12-.1-.07-.11-.07-.1-.07-.13-.1-.07-.1-.07-.12,0-.11-.05-.16,0-.11,0-.17,0-.24v-.12l0-.18,0-.11,0-.1,0-.12.07-.16.06-.11.06-.09.07-.08.12-.12.1-.07.1-.07.11-.05.14-.08.23-.1.11,0,.17,0,.12,0,.23,0,.17,0h.35l.23,0,.11,0h0l.12,0,.26,0,.13,0,.12,0,.13,0,.12.05.11,0,.12,0,.14.09.11,0,.09.07.07.07v.07l0,.08-.09.16-.06.09-.28.37-.09.11-.09.08-.06,0h0l-.08,0-.11-.07-.11,0-.06,0-.11,0-.06,0-.13,0-.17,0h-.12l-.2,0h-.32l-.13,0-.12,0-.05,0-.09.07,0,0,0,.1v.12l0,.1.06.1.08.08.09,0,.06,0,.11,0,.19,0h.25l.13,0,.26.06.24.07.17,0,.12,0,.21.08.15.06.11.06.1.06.1.06.22.18.08.09.08.09.09.14.06.09,0,.12,0,.11,0,.17,0,.11Z" transform="translate(-957 -575)"/><path class="cls-2" d="M1024.71,689.4v.52l0,.1,0,.05,0,0h-.22l-.22,0h-.12l-.35,0h-.48l-.07,0,0,0v.1l0,.45v.12l0,.45v.12l0,.46v1.82l0,.34v.12l0,.09,0,0h-.24l-.19,0h-.13l-.34,0h-.12l-.34,0h-.09l0,0V694l0-.32v-1.82l0-.46v-1.24l0-.06-.08,0h-.11l-.24,0H1021l-.2,0h-.69l-.05,0,0,0v-.25l0-.22v-.12l0-.29V689l0-.09,0-.06.05,0h.25l.28,0h.12l.44,0h.12l.44,0h.12l.56,0h1.69l.25,0h.28l.05,0,0,.06v.25Z" transform="translate(-957 -575)"/><path class="cls-2" d="M1025.84,693.75l0,.12,0,.12-.06.11-.06.11-.1.09-.11.06-.11,0h-.61l-.12,0-.12-.07-.1-.07,0-.05-.07-.08,0-.05,0-.09v-.05l0-.1v-.21l0-.1,0-.05,0-.09,0-.05.07-.08,0,0,.1-.08.12-.08.12-.06,0,0,.11,0h.19l.13,0,.11.05.11.06.1.07.1.07.08.09,0,.11,0,.12,0,.12Z" transform="translate(-957 -575)"/><path class="cls-2" d="M1089.3,692.93v0h2.59l.25,0h.13l.1,0,.05.07v1.06l0,.08,0,0,0,0-.25,0h-.38l-.55,0h-.43l-.66,0h-1.65l-.42,0h-.09l0,0,0,0v-.09l0-.45v-.12l0-.46v-.12l0-.23,0-.22,0-.12,0-.13,0-.12,0-.06.06-.13.06-.09.12-.14.09-.08.13-.1.09-.06.16-.1.09-.05.16-.08.12,0,.18-.06.13,0,.13,0h.12l.39,0h.39l.14,0,.06,0,.11-.07,0,0,.07-.1,0-.16v-.16l0-.06,0-.12,0-.06-.07-.09-.1,0-.17,0h-.44l-.1,0-.16,0-.1.05,0,0-.08.09,0,0,0,.12,0,.1-.07,0-.11,0h-.2l-.31,0h-.45l-.19,0-.1,0-.06,0,0,0v-.13l0-.11v-.07l0-.12,0-.06,0-.11.07-.14.06-.11.07-.1.08-.1.1-.08.09-.07.14-.1.11-.06.22-.12.13-.06.12,0,.17,0,.12,0,.11,0h1l.11,0,.16,0,.12,0,.24.08.11,0,.11,0,.16.07.11.07.1.08.1.1.08.09.07.1.1.14.06.1.05.12,0,.11,0,.11,0,.11,0,.18v.39l0,.17,0,.11-.05.13,0,.12-.08.14-.07.1-.1.13-.08.08-.12.11-.1.06-.16.09-.11,0-.13,0-.12,0-.13,0-.12,0-.18,0h-.12l-.12,0-.13,0h-.56l-.13,0-.06,0-.11.06,0,0-.08.09-.06.09-.05.1v.06l0,.1Z" transform="translate(-957 -575)"/><path class="cls-2" d="M1098,691.13v1.27l0,.11,0,.17-.08.24,0,.12-.08.15-.06.1-.08.12-.08.1-.08.11-.09.09-.12.13-.09.07-.15.07-.1,0-.15.07-.11,0-.15.06-.11,0-.17,0-.11,0h-.56l-.2,0h-.12l-.4-.07-.12,0-.16-.05-.11,0-.17-.07-.11-.07-.1-.07-.1-.06-.15-.11-.08-.08-.11-.12-.07-.09-.11-.14-.05-.1-.08-.14,0-.11,0-.17,0-.11,0-.16,0-.12,0-.13,0-.12V691l0-.12,0-.19,0-.12,0-.17,0-.11,0-.16,0-.11,0-.12.06-.11.09-.17.07-.1.12-.14.1-.08.11-.09.1-.06.15-.09.09,0,.27-.11.2-.08.12,0,.11,0h.44l.38,0h.12l.18,0h.13l.29.07.13,0,.12,0,.11,0,.11,0,.17.1.1.06.08.09.09.1.12.15.07.1.1.17,0,.1,0,.12,0,.1.06.18,0,.11,0,.13,0,.12,0,.17,0,.11Zm-3.21,1.57.07.1.08.09.1.06,0,0,.12,0,.13,0h.46l.12,0,.11,0,.11-.06,0,0,.08-.1.07-.12.05-.11.08-.26,0-.12V692l0-.37v-.46l0-.18,0-.12,0-.13,0-.11-.08-.17-.06-.09-.09-.09-.1-.08-.11,0,0,0-.11,0h-.29l-.13,0h0l-.12,0-.11.06-.14.09-.08.08-.08.11-.07.12,0,.13,0,.13v1.32l0,.12,0,.13,0,.1v0l0,.1Z" transform="translate(-957 -575)"/><path class="cls-2" d="M1100.15,692.93v0h2.59l.25,0h.13l.1,0,0,.07,0,.1v.55l0,.19v.3l0,0,0,0-.24,0h-.39l-.55,0h-.42l-.66,0h-1.65l-.42,0h-.09l-.06,0v-.13l0-.45v-.12l0-.46v-.12l0-.23,0-.22,0-.12,0-.13,0-.12,0-.06,0-.13.06-.09.13-.14.08-.08.14-.1.09-.06.15-.1.1-.05.16-.08.11,0,.19-.06.13,0,.13,0h.12l.38,0h.4l.13,0,.06,0,.12-.07,0,0,.07-.1,0-.16v-.22l0-.12,0-.06-.08-.09-.09,0-.17,0h-.44l-.1,0-.16,0-.1.05,0,0-.07.09,0,0-.05.12,0,.1-.07,0-.11,0h-.2l-.32,0h-.44l-.2,0-.1,0-.05,0,0,0v-.24l0-.07,0-.12,0-.06,0-.11.08-.14.06-.11.07-.1.08-.1.09-.08.09-.07.15-.1.1-.06.23-.12.13-.06.12,0,.16,0,.12,0,.12,0h1l.11,0,.16,0,.11,0,.24.08.12,0,.11,0,.16.07.11.07.09.08.1.1.09.09.07.1.1.14,0,.1,0,.12,0,.11,0,.11,0,.11,0,.18v.28l0,.11,0,.17,0,.11,0,.13,0,.12-.09.14-.06.1-.1.13-.09.08-.12.11-.09.06-.16.09-.12,0-.13,0-.12,0-.12,0-.13,0-.17,0h-.12l-.13,0-.12,0h-.57l-.12,0-.06,0-.12.06,0,0-.09.09-.06.09,0,.1,0,.06,0,.1Z" transform="translate(-957 -575)"/><path class="cls-2" d="M1108.86,691.13v1.27l0,.11,0,.17-.07.24,0,.12-.08.15-.07.1-.07.12-.08.1-.08.11-.09.09-.12.13-.09.07-.15.07-.1,0-.15.07-.11,0-.16.06-.1,0-.17,0-.11,0h-.56l-.2,0h-.12l-.41-.07-.11,0-.16-.05-.11,0-.17-.07L1105,694l-.11-.07-.1-.06-.14-.11-.08-.08-.12-.12-.06-.09-.11-.14,0-.1-.09-.14,0-.11-.06-.17,0-.11,0-.16v-.12l0-.13,0-.12v-.9l0-.25,0-.12,0-.19,0-.12,0-.17,0-.11,0-.16,0-.11,0-.12,0-.11.09-.17.08-.1.12-.14.1-.08.1-.09.1-.06.15-.09.1,0,.27-.11.2-.08.11,0,.12,0h.43l.39,0h.12l.18,0h.12l.3.07.13,0,.12,0,.11,0,.1,0,.18.1.1.06.08.09.08.1.12.15.07.1.11.17,0,.1.05.12,0,.1,0,.18,0,.11,0,.13,0,.12,0,.17v.28Zm-3.22,1.57.08.1.08.09.1.06,0,0,.13,0,.13,0h.45l.13,0,.11,0,.1-.06,0,0,.09-.1.06-.12.06-.11.07-.26,0-.12V692l0-.37V691l0-.12,0-.13,0-.11-.09-.17-.06-.09-.09-.09-.1-.08-.1,0,0,0-.12,0h-.29l-.12,0h-.06l-.11,0-.11.06-.14.09-.08.08-.09.11-.06.12,0,.13,0,.13V692l0,.19v.12l0,.13,0,.1,0,0,0,.1Z" transform="translate(-957 -575)"/><path class="cls-3" d="M1038.3,620.46s-2.9-1.08-2-2.15,2.32,0,2.32,0l2.32-1.85,2.61,1.85s1.59.61,2,.3,2.9.16,4.35,0a5.39,5.39,0,0,1,2-.3,14.54,14.54,0,0,0,3.48.3,8,8,0,0,1,2.32.31,15.65,15.65,0,0,0,3.48.31,17.55,17.55,0,0,1,2.9,0,20.88,20.88,0,0,0,2.61-.31l3.19-.31,2.9-.3s3.48-.77,3.77,5.23l-.29,4.61L1076,630v1.23l.29,1.23s1.16,1.39-.87,2.46c0,0-.87-3.07,0-2.77l.29-7.38-1.45,6.46-.58,2.77.87,2.77-.29,2.46-.58,3.69.29,2.16s14.21,1.84,19.72,5.23c0,0-37.63-6.15-72.79-.62,0,0,25.6-4.9,26.68-4.92,1.58,0,.29-10.77.29-10.77H1047l-1.16-.92-1.74-3.69-.87-3.39-.87-1.23-2.61,1.23h-2l-.29-1.23.58-.92.58-1.23ZM1052.48,633l-.48,2.55v2l-.68.87-.32,3.48v1.23s12.59-.58,17.27.58c0,0,1.73-2.47,1.73-3.78v-2.61l-.29-2.32s-1.87-2.9-3.45-2-9.94,1.67-13.83,0Zm19.42,4s-.58,2.75-.87,4.35a13.13,13.13,0,0,1-.58,2.32l1.45.29S1073.42,638.6,1071.9,637Zm-23.2,6h1.16s.58-4.14,0-5.22c0,0-.51,1.74-1.16,5.22Z" transform="translate(-957 -575)"/><g id="Layer_2" data-name="Layer 2"><g id="Layer_1-2" data-name="Layer 1-2"><path class="cls-2" d="M1037,704.92l1.42,2.73a27.81,27.81,0,0,1,2.57-1.55c2.67-1.27,4.27-3.17,6-5a3.28,3.28,0,0,1,3-.93,4.55,4.55,0,0,0-1.14-4l-11.64,8.5A1.43,1.43,0,0,1,1037,704.92Zm8.26-3.14h0a6.25,6.25,0,0,1,4.43-2.41v.13c-1.7,0-3,1.31-4.12,2.5-2.1,2.48-4.16,3.48-6.93,4.83l-.05-.11A18,18,0,0,0,1045.27,701.78Zm-5.88,2.6h0a.59.59,0,0,1,.81.12.58.58,0,0,1-.13.81.58.58,0,0,1-.68-.93Zm8.48-6.31h0a.57.57,0,0,1,.68.92.57.57,0,0,1-.8-.12A.58.58,0,0,1,1047.87,698.07Zm1-1.3a4.69,4.69,0,0,1,.88,2.18h-.12a4.65,4.65,0,0,0-1-2.05Z" transform="translate(-957 -575)"/><path class="cls-2" d="M1036.69,709.41a6.44,6.44,0,0,1,1.49-1.59l-1.41-2.67c-1.58,1.47-2.06,3-1.32,4.47C1035.82,710.16,1036.23,710.09,1036.69,709.41Zm1.1-1.8a4.59,4.59,0,0,0-1.44,1.74l-.12-.05a4.69,4.69,0,0,1,1.4-1.89l.15.21Z" transform="translate(-957 -575)"/><path class="cls-2" d="M1051.76,701c.64.76,1.36,1.73,2,2.49l20.52-15.12c-2.31-2.64-4.67-5.22-6.94-7.88-.88-1-1.9-1.24-2.69-.12-5.37,7.73-10.21,11.34-15.26,15.65a4.47,4.47,0,0,1,1.12,4A2.89,2.89,0,0,1,1051.76,701Zm14.83-19a.88.88,0,0,1-.19,1.25l0,0a.91.91,0,0,1-1.06-1.48.9.9,0,0,1,1.27.21Z" transform="translate(-957 -575)"/><polygon class="cls-2" points="117.56 113.72 97.09 128.78 97.63 129.49 118.18 114.42 117.56 113.72"/></g></g><g id="Layer_2-2" data-name="Layer 2"><g id="Layer_1-2-2" data-name="Layer 1-2"><path class="cls-2" d="M1044.85,680.44a9.27,9.27,0,0,0,3,5.46c3.9,3.74,8,7.24,12.14,10.7a5.48,5.48,0,0,1,1.86,3.72l0,0a3.4,3.4,0,0,1,.48.88l.06-.12a7.7,7.7,0,0,1,2.16-4.63c-1.67-1.13-3.4-2.18-5-3.41q-4.89-3.76-9.54-7.8C1048.2,683.69,1046.54,682.05,1044.85,680.44Z" transform="translate(-957 -575)"/><path class="cls-2" d="M1047.53,688l.59.48c4.18,3.48,8.81,7.18,12.84,10.77l0,0a3.25,3.25,0,0,0-1.28-2.51c-4.13-3.45-8.07-6.95-12-10.68-1.56-1.47-3-3.19-3.21-5.93-.33-.31-.43-.42-.68-.67l0,0-.14-.12h0C1043.15,682.45,1044.51,685.33,1047.53,688Z" transform="translate(-957 -575)"/><path class="cls-2" d="M1075.41,705l-10.62-8.32a7.68,7.68,0,0,0-2.18,4.92,2.71,2.71,0,0,1,3.09.64c1.46,1.89,2.75,3.9,5.34,5a18,18,0,0,1,2.4,1.42l2.21-3.42Zm-1.91,2.6-.09.15c-2.68-1.18-4.68-2.05-6.36-4.69-.89-1.24-2-2.61-3.89-2.33l0-.15a4.32,4.32,0,0,1,4.24,2.18h0a12,12,0,0,0,6.07,4.84Zm-.36-1.72c-.27.33-.67.45-.9.26s-.2-.6.06-.93a.69.69,0,0,1,.9-.26h0a.67.67,0,0,1-.06.93Zm-7.72-6.2c-.26.33-.66.45-.89.26s-.2-.6.06-.93a.69.69,0,0,1,.9-.26h0c.23.18.2.6-.06.93h0Zm-.55-2.17a8.35,8.35,0,0,0-1.52,2.57h-.13a8.47,8.47,0,0,1,1.46-2.72Z" transform="translate(-957 -575)"/><path class="cls-2" d="M1076.23,710.52a3.9,3.9,0,0,0-.37-5.1l-2.17,3.38a4.48,4.48,0,0,1,1.24,1.66C1075.27,711.21,1075.71,711.22,1076.23,710.52Zm-2.06-2,.21-.26a3.52,3.52,0,0,1,1.07,2l-.14.08A3.29,3.29,0,0,0,1074.17,708.5Z" transform="translate(-957 -575)"/></g></g><path class="cls-4" d="M975.35,717.15s.54.45,1.58,1.23" transform="translate(-957 -575)"/><path class="cls-5" d="M978.55,719.57c15.2,10.91,82.58,52.78,156.72-1.28" transform="translate(-957 -575)"/><path class="cls-4" d="M1136.09,717.69c.54-.39,1.07-.79,1.61-1.2" transform="translate(-957 -575)"/></svg>